<svg width="380" height="440" viewBox="0 0 380 440" fill="none" xmlns="http://www.w3.org/2000/svg">
<g clip-path="url(#clip0)">
<g filter="url(#filter0_d)">
<rect x="53" y="58" width="273.897" height="90.1896" rx="6.68041" fill="#1F4459"/>
<path d="M90.754 81.3867C90.4311 82.5447 89.8355 83.3908 88.967 83.9253C88.1097 84.4486 87.0965 84.7102 85.9274 84.7102C84.8029 84.7102 83.8342 84.4875 83.0214 84.0422C82.2198 83.5857 81.6019 82.9343 81.1676 82.0882C80.7334 81.242 80.5163 80.2232 80.5163 79.0319C80.5163 77.8405 80.7334 76.8218 81.1676 75.9756C81.6019 75.1294 82.2198 74.4836 83.0214 74.0383C83.8342 73.5818 84.7973 73.3535 85.9107 73.3535C87.0575 73.3535 88.0596 73.5985 88.9169 74.0884C89.7742 74.5783 90.3421 75.3465 90.6204 76.3931L88.0986 77.4119C87.9427 76.7327 87.6866 76.2651 87.3303 76.009C86.9852 75.7418 86.5454 75.6082 86.0109 75.6082C85.2093 75.6082 84.5802 75.8976 84.1237 76.4766C83.6783 77.0556 83.4557 77.9073 83.4557 79.0319C83.4557 80.1564 83.6672 81.0082 84.0903 81.5871C84.5245 82.1661 85.1703 82.4556 86.0276 82.4556C86.5621 82.4556 87.013 82.3108 87.3804 82.0214C87.759 81.7207 88.015 81.2642 88.1487 80.6519L90.754 81.3867ZM97.0614 79.249C97.0614 78.8593 96.9501 78.5531 96.7274 78.3304C96.5158 78.0966 96.2263 77.9797 95.8589 77.9797C95.4915 77.9797 95.1742 78.0743 94.907 78.2636C94.6509 78.4418 94.4727 78.7647 94.3725 79.2323L91.9676 78.6644C92.1235 77.8628 92.5354 77.2226 93.2035 76.7438C93.8715 76.2651 94.8123 76.0257 96.0259 76.0257C97.2507 76.0257 98.1971 76.2985 98.8651 76.844C99.5443 77.3785 99.8839 78.1634 99.8839 79.1989V82.2552C99.8839 82.6894 100.079 82.9065 100.468 82.9065C100.669 82.9065 100.83 82.8842 100.953 82.8397L100.786 84.4597C100.452 84.6156 100.045 84.6935 99.5666 84.6935C99.0433 84.6935 98.5923 84.5933 98.2138 84.3929C97.8352 84.1814 97.5791 83.864 97.4455 83.4409C97.2117 83.8752 96.8387 84.1981 96.3266 84.4096C95.8255 84.61 95.2911 84.7102 94.7233 84.7102C93.8659 84.7102 93.1812 84.5154 92.669 84.1257C92.168 83.7249 91.9175 83.1515 91.9175 82.4055C91.9175 81.8042 92.0956 81.3088 92.4519 80.9191C92.8193 80.5183 93.3927 80.2399 94.1721 80.084L97.0614 79.4828V79.249ZM94.7233 82.1383C94.7233 82.3832 94.8123 82.5669 94.9905 82.6894C95.1686 82.8119 95.3802 82.8731 95.6251 82.8731C96.0037 82.8731 96.3377 82.7618 96.6272 82.5391C96.9167 82.3053 97.0614 81.9434 97.0614 81.4535V80.9859L95.7086 81.2698C95.3746 81.3366 95.1241 81.4368 94.9571 81.5704C94.8012 81.6929 94.7233 81.8822 94.7233 82.1383ZM107.977 76.1927V78.2135H105.488V81.5704C105.488 81.9713 105.583 82.2607 105.772 82.4389C105.973 82.6059 106.245 82.6894 106.591 82.6894C106.858 82.6894 107.086 82.6616 107.275 82.6059C107.465 82.5391 107.643 82.4444 107.81 82.322L108.11 84.0756C107.832 84.2649 107.476 84.4207 107.041 84.5432C106.618 84.6546 106.19 84.7102 105.755 84.7102C104.798 84.7102 104.041 84.5098 103.484 84.109C102.939 83.697 102.66 83.0067 102.649 82.0381V78.2135H101.213V76.1927H102.649V74.3222L105.488 73.5372V76.1927H107.977ZM113.614 84.7102C112.222 84.7102 111.12 84.3317 110.307 83.5746C109.505 82.8174 109.104 81.7486 109.104 80.368C109.104 79.455 109.288 78.6756 109.656 78.0298C110.034 77.3729 110.546 76.8774 111.192 76.5434C111.849 76.1983 112.612 76.0257 113.48 76.0257C114.36 76.0257 115.106 76.1983 115.718 76.5434C116.342 76.8774 116.815 77.3451 117.138 77.9463C117.46 78.5364 117.622 79.2156 117.622 79.9838C117.622 80.1954 117.611 80.4014 117.589 80.6018C117.577 80.791 117.566 80.9525 117.555 81.0861H111.86C111.938 81.6651 112.127 82.0826 112.428 82.3387C112.729 82.5836 113.124 82.7061 113.614 82.7061C114.037 82.7061 114.371 82.6226 114.616 82.4556C114.872 82.2886 115.061 82.0548 115.184 81.7541L117.455 82.5057C117.299 82.9844 117.026 83.3908 116.637 83.7249C116.258 84.0477 115.802 84.2927 115.267 84.4597C114.744 84.6267 114.193 84.7102 113.614 84.7102ZM113.48 78.0131C112.578 78.0131 112.044 78.5308 111.877 79.5663H114.933C114.811 78.5308 114.326 78.0131 113.48 78.0131ZM124.671 82.6894C125.64 82.6894 126.381 82.8954 126.893 83.3073C127.416 83.7082 127.678 84.2871 127.678 85.0442C127.678 86.0908 127.26 86.8647 126.425 87.3657C125.601 87.8779 124.488 88.1339 123.085 88.1339C121.571 88.1339 120.48 87.9447 119.811 87.5661C119.143 87.1875 118.809 86.6754 118.809 86.0296C118.809 85.651 118.932 85.3282 119.177 85.0609C119.433 84.7937 119.839 84.61 120.396 84.5098C119.583 84.2092 119.177 83.6469 119.177 82.823C119.177 82.4333 119.294 82.0937 119.528 81.8042C119.761 81.5036 120.084 81.2865 120.496 81.1529C119.605 80.663 119.16 79.9003 119.16 78.8649C119.16 77.963 119.511 77.2671 120.212 76.7772C120.925 76.2762 121.921 76.0257 123.202 76.0257C123.848 76.0257 124.432 76.0925 124.955 76.2261C125 75.8253 125.111 75.4523 125.289 75.1071C125.479 74.762 125.735 74.4836 126.058 74.2721C126.392 74.0494 126.798 73.9381 127.277 73.9381C127.31 73.9381 127.349 73.9436 127.394 73.9548C127.438 73.9548 127.488 73.9548 127.544 73.9548L127.778 75.8587C127.655 75.8253 127.522 75.8086 127.377 75.8086C126.987 75.8086 126.676 75.8865 126.442 76.0424C126.208 76.1983 126.052 76.3987 125.974 76.6436C126.809 77.1335 127.227 77.8739 127.227 78.8649C127.227 79.7667 126.87 80.4626 126.158 80.9525C125.456 81.4424 124.471 81.6873 123.202 81.6873C122.623 81.6873 122.1 81.6372 121.632 81.537C121.264 81.6484 121.081 81.8432 121.081 82.1216C121.081 82.5001 121.392 82.6894 122.016 82.6894H124.671ZM123.202 77.6457C122.834 77.6457 122.534 77.7515 122.3 77.963C122.077 78.1746 121.966 78.4752 121.966 78.8649C121.966 79.2434 122.077 79.5385 122.3 79.75C122.534 79.9616 122.834 80.0673 123.202 80.0673C123.558 80.0673 123.853 79.9616 124.087 79.75C124.321 79.5385 124.438 79.2434 124.438 78.8649C124.438 78.4752 124.321 78.1746 124.087 77.963C123.853 77.7515 123.558 77.6457 123.202 77.6457ZM123.102 86.2968C123.903 86.2968 124.499 86.2133 124.889 86.0463C125.289 85.8904 125.49 85.69 125.49 85.4451C125.49 85.2781 125.423 85.1445 125.289 85.0442C125.167 84.9552 124.95 84.9106 124.638 84.9106H121.649C121.437 84.9106 121.264 84.9663 121.131 85.0776C121.008 85.189 120.947 85.3282 120.947 85.4952C120.947 85.7513 121.136 85.9461 121.515 86.0797C121.894 86.2245 122.422 86.2968 123.102 86.2968ZM133.032 76.0257C133.911 76.0257 134.679 76.1983 135.336 76.5434C136.004 76.8886 136.522 77.384 136.889 78.0298C137.268 78.6756 137.457 79.455 137.457 80.368C137.457 81.2809 137.268 82.0603 136.889 82.7061C136.522 83.3519 136.004 83.8473 135.336 84.1925C134.679 84.5376 133.911 84.7102 133.032 84.7102C132.163 84.7102 131.395 84.5376 130.727 84.1925C130.07 83.8473 129.552 83.3519 129.174 82.7061C128.806 82.0603 128.622 81.2809 128.622 80.368C128.622 79.455 128.806 78.6756 129.174 78.0298C129.552 77.384 130.07 76.8886 130.727 76.5434C131.395 76.1983 132.163 76.0257 133.032 76.0257ZM133.032 78.0465C132.542 78.0465 132.157 78.2302 131.879 78.5976C131.612 78.9539 131.478 79.544 131.478 80.368C131.478 81.1807 131.612 81.7708 131.879 82.1383C132.157 82.5057 132.542 82.6894 133.032 82.6894C133.533 82.6894 133.917 82.5057 134.184 82.1383C134.462 81.7708 134.601 81.1807 134.601 80.368C134.601 79.544 134.462 78.9539 134.184 78.5976C133.917 78.2302 133.533 78.0465 133.032 78.0465ZM139.305 84.5432V76.1927H141.81L141.927 77.9964C142.127 77.384 142.434 76.9053 142.846 76.5601C143.269 76.2038 143.809 76.0257 144.466 76.0257C144.677 76.0257 144.855 76.048 145 76.0925C145.156 76.1259 145.278 76.1649 145.367 76.2094L145.084 78.5475C144.972 78.5141 144.827 78.4807 144.649 78.4473C144.482 78.4139 144.276 78.3972 144.031 78.3972C143.519 78.3972 143.074 78.5587 142.695 78.8816C142.328 79.2044 142.144 79.6888 142.144 80.3346V84.5432H139.305ZM149.571 76.1927V84.5432H146.732V76.1927H149.571ZM147.984 72.2179H150.623L148.936 75.1071H146.865L147.984 72.2179ZM156.502 79.249C156.502 78.8593 156.391 78.5531 156.168 78.3304C155.956 78.0966 155.667 77.9797 155.3 77.9797C154.932 77.9797 154.615 78.0743 154.348 78.2636C154.092 78.4418 153.913 78.7647 153.813 79.2323L151.408 78.6644C151.564 77.8628 151.976 77.2226 152.644 76.7438C153.312 76.2651 154.253 76.0257 155.467 76.0257C156.691 76.0257 157.638 76.2985 158.306 76.844C158.985 77.3785 159.325 78.1634 159.325 79.1989V82.2552C159.325 82.6894 159.519 82.9065 159.909 82.9065C160.109 82.9065 160.271 82.8842 160.393 82.8397L160.226 84.4597C159.892 84.6156 159.486 84.6935 159.007 84.6935C158.484 84.6935 158.033 84.5933 157.654 84.3929C157.276 84.1814 157.02 83.864 156.886 83.4409C156.652 83.8752 156.279 84.1981 155.767 84.4096C155.266 84.61 154.732 84.7102 154.164 84.7102C153.307 84.7102 152.622 84.5154 152.11 84.1257C151.609 83.7249 151.358 83.1515 151.358 82.4055C151.358 81.8042 151.536 81.3088 151.893 80.9191C152.26 80.5183 152.833 80.2399 153.613 80.084L156.502 79.4828V79.249ZM154.164 82.1383C154.164 82.3832 154.253 82.5669 154.431 82.6894C154.609 82.8119 154.821 82.8731 155.066 82.8731C155.444 82.8731 155.778 82.7618 156.068 82.5391C156.357 82.3053 156.502 81.9434 156.502 81.4535V80.9859L155.149 81.2698C154.815 81.3366 154.565 81.4368 154.398 81.5704C154.242 81.6929 154.164 81.8822 154.164 82.1383ZM168.688 84.5432V78.1968C168.688 77.9073 168.688 77.6123 168.688 77.3117C168.699 76.9999 168.704 76.6826 168.704 76.3597C168.337 76.7049 167.925 76.9999 167.469 77.2449C167.023 77.4898 166.561 77.6568 166.082 77.7459L165.815 75.3743C166.194 75.3298 166.606 75.2129 167.051 75.0236C167.507 74.8343 167.931 74.6061 168.32 74.3389C168.71 74.0605 168.994 73.7877 169.172 73.5205H171.46V84.5432H168.688ZM180.506 72.6521L175.83 85.7123H173.191L177.868 72.6521H180.506ZM185.78 84.7102C184.823 84.7102 183.988 84.5265 183.275 84.1591C182.574 83.7805 181.983 83.1682 181.505 82.322L184.027 81.0694C184.149 81.5148 184.344 81.871 184.611 82.1383C184.889 82.4055 185.301 82.5391 185.847 82.5391C186.359 82.5391 186.766 82.4055 187.066 82.1383C187.367 81.8599 187.517 81.4591 187.517 80.9358C187.517 79.9226 186.96 79.416 185.847 79.416C185.079 79.416 184.489 79.6331 184.077 80.0673L181.906 79.6665L182.607 73.5205H189.555V75.7418H184.695L184.411 77.9463L184.361 78.2135H184.377C184.6 77.9574 184.912 77.7626 185.313 77.629C185.713 77.4954 186.159 77.4286 186.649 77.4286C187.372 77.4286 187.99 77.5733 188.502 77.8628C189.026 78.1523 189.421 78.5475 189.688 79.0486C189.967 79.5496 190.106 80.123 190.106 80.7688C190.106 81.6706 189.905 82.4166 189.504 83.0067C189.104 83.5857 188.575 84.0143 187.918 84.2927C187.261 84.571 186.548 84.7102 185.78 84.7102Z" fill="#F8F9FA"/>
<path d="M91.8918 116.456C91.8918 107.89 98.836 100.945 107.402 100.945H163.103C171.669 100.945 178.613 107.89 178.613 116.456V116.456C178.613 125.022 171.669 131.966 163.103 131.966H107.402C98.836 131.966 91.8918 125.022 91.8918 116.456V116.456Z" fill="#272727"/>
<path d="M114.398 112.137V120.956H112.287L109.201 115.772L108.439 114.329H108.426L108.479 115.852V120.956H106.823V112.137H108.92L112.007 117.308L112.768 118.764H112.795L112.741 117.241V112.137H114.398ZM119.494 114.142C120.162 114.142 120.754 114.28 121.271 114.556C121.787 114.832 122.188 115.228 122.473 115.745C122.767 116.261 122.914 116.885 122.914 117.615C122.914 118.346 122.767 118.969 122.473 119.486C122.188 120.002 121.787 120.399 121.271 120.675C120.754 120.951 120.162 121.089 119.494 121.089C118.817 121.089 118.22 120.951 117.703 120.675C117.196 120.399 116.795 120.002 116.501 119.486C116.216 118.969 116.073 118.346 116.073 117.615C116.073 116.885 116.216 116.261 116.501 115.745C116.795 115.228 117.196 114.832 117.703 114.556C118.22 114.28 118.817 114.142 119.494 114.142ZM119.494 115.504C118.995 115.504 118.603 115.682 118.318 116.039C118.042 116.386 117.904 116.912 117.904 117.615C117.904 118.319 118.042 118.849 118.318 119.205C118.603 119.553 118.995 119.726 119.494 119.726C119.984 119.726 120.367 119.553 120.643 119.205C120.928 118.849 121.07 118.319 121.07 117.615C121.07 116.912 120.928 116.386 120.643 116.039C120.367 115.682 119.984 115.504 119.494 115.504ZM124.446 120.956V114.275H126.089L126.156 115.478C126.378 115.032 126.681 114.698 127.064 114.476C127.456 114.253 127.888 114.142 128.36 114.142C128.841 114.142 129.273 114.253 129.656 114.476C130.048 114.689 130.342 115.019 130.538 115.464C130.743 115.019 131.059 114.689 131.487 114.476C131.914 114.253 132.355 114.142 132.809 114.142C133.246 114.142 133.642 114.231 133.999 114.409C134.364 114.587 134.653 114.854 134.867 115.21C135.081 115.567 135.188 116.021 135.188 116.573V120.956H133.357V116.934C133.357 116.444 133.246 116.097 133.023 115.892C132.809 115.687 132.538 115.585 132.208 115.585C131.799 115.585 131.451 115.736 131.166 116.039C130.881 116.333 130.739 116.774 130.739 117.362V120.956H128.908V116.934C128.908 116.444 128.797 116.097 128.574 115.892C128.36 115.687 128.084 115.585 127.746 115.585C127.514 115.585 127.283 115.647 127.051 115.772C126.828 115.896 126.641 116.092 126.49 116.359C126.347 116.627 126.276 116.978 126.276 117.415V120.956H124.446ZM141.004 121.089C140.469 121.089 140.006 120.951 139.614 120.675C139.231 120.39 138.946 120.02 138.759 119.566L138.692 120.956H137.076V111.349H138.906V115.411C139.102 115.037 139.378 114.734 139.735 114.502C140.1 114.262 140.541 114.142 141.057 114.142C141.592 114.142 142.068 114.28 142.487 114.556C142.914 114.832 143.248 115.233 143.489 115.758C143.738 116.275 143.863 116.898 143.863 117.629C143.863 118.359 143.738 118.983 143.489 119.499C143.248 120.007 142.91 120.399 142.474 120.675C142.046 120.951 141.556 121.089 141.004 121.089ZM140.456 119.686C140.955 119.686 141.342 119.513 141.618 119.165C141.895 118.809 142.033 118.292 142.033 117.615C142.033 116.938 141.895 116.426 141.618 116.079C141.342 115.723 140.959 115.544 140.469 115.544C139.997 115.544 139.619 115.736 139.334 116.119C139.049 116.493 138.906 116.996 138.906 117.629C138.906 118.279 139.049 118.787 139.334 119.152C139.619 119.508 139.993 119.686 140.456 119.686ZM145.452 120.956V114.275H147.042L147.163 115.585C147.332 115.13 147.586 114.778 147.924 114.529C148.271 114.271 148.708 114.142 149.233 114.142C149.545 114.142 149.786 114.191 149.955 114.289L149.741 115.825C149.652 115.798 149.541 115.776 149.407 115.758C149.282 115.731 149.118 115.718 148.913 115.718C148.637 115.718 148.374 115.785 148.125 115.919C147.884 116.043 147.684 116.239 147.523 116.506C147.363 116.765 147.283 117.094 147.283 117.495V120.956H145.452ZM154.058 121.089C153.007 121.089 152.165 120.786 151.533 120.181C150.901 119.566 150.584 118.711 150.584 117.615C150.584 116.885 150.727 116.261 151.012 115.745C151.297 115.228 151.693 114.832 152.201 114.556C152.718 114.28 153.306 114.142 153.965 114.142C154.642 114.142 155.216 114.28 155.688 114.556C156.16 114.823 156.521 115.193 156.77 115.665C157.02 116.128 157.145 116.658 157.145 117.255C157.145 117.433 157.14 117.602 157.131 117.762C157.122 117.923 157.109 118.065 157.091 118.19H152.375C152.446 118.706 152.624 119.094 152.909 119.352C153.203 119.602 153.582 119.726 154.045 119.726C154.437 119.726 154.753 119.651 154.993 119.499C155.234 119.348 155.421 119.138 155.555 118.871L157.011 119.432C156.797 119.958 156.423 120.368 155.889 120.662C155.354 120.947 154.744 121.089 154.058 121.089ZM153.951 115.491C153.087 115.491 152.566 115.968 152.388 116.921H155.394C155.341 116.457 155.189 116.106 154.94 115.865C154.7 115.616 154.37 115.491 153.951 115.491ZM161.368 121.089C160.691 121.089 160.072 120.969 159.511 120.728C158.959 120.488 158.509 120.149 158.161 119.713L159.217 118.644C159.431 118.965 159.716 119.228 160.072 119.432C160.428 119.637 160.851 119.74 161.341 119.74C161.689 119.74 161.965 119.691 162.17 119.593C162.383 119.486 162.49 119.321 162.49 119.098C162.49 118.956 162.441 118.836 162.343 118.738C162.245 118.631 162.049 118.546 161.755 118.484L160.58 118.243C159.805 118.083 159.252 117.842 158.923 117.522C158.602 117.192 158.442 116.769 158.442 116.253C158.442 115.887 158.549 115.544 158.763 115.224C158.985 114.903 159.315 114.645 159.751 114.449C160.188 114.244 160.731 114.142 161.381 114.142C162.735 114.142 163.706 114.556 164.294 115.384L163.198 116.453C163.002 116.141 162.744 115.905 162.423 115.745C162.112 115.576 161.782 115.491 161.435 115.491C160.651 115.491 160.259 115.709 160.259 116.146C160.259 116.288 160.321 116.413 160.446 116.52C160.571 116.618 160.798 116.702 161.127 116.774L162.49 117.054C163.149 117.188 163.621 117.415 163.906 117.736C164.192 118.047 164.334 118.426 164.334 118.871C164.334 119.513 164.076 120.043 163.559 120.461C163.051 120.88 162.321 121.089 161.368 121.089Z" fill="#F8F9FA"/>
<line x1="223.768" y1="73.033" x2="223.768" y2="133.157" stroke="#ADB5BD" stroke-width="1.6701"/>
<path d="M259.438 79.4592H264.966V81.6804H256.566V70.6577H259.438V79.4592ZM270.64 81.8474C269.248 81.8474 268.146 81.4689 267.333 80.7118C266.531 79.9546 266.13 78.8858 266.13 77.5052C266.13 76.5922 266.314 75.8128 266.681 75.167C267.06 74.5101 267.572 74.0146 268.218 73.6806C268.875 73.3355 269.637 73.1629 270.506 73.1629C271.386 73.1629 272.131 73.3355 272.744 73.6806C273.367 74.0146 273.841 74.4823 274.163 75.0835C274.486 75.6736 274.648 76.3528 274.648 77.121C274.648 77.3326 274.637 77.5386 274.614 77.739C274.603 77.9283 274.592 78.0897 274.581 78.2233H268.886C268.964 78.8023 269.153 79.2198 269.454 79.4759C269.754 79.7208 270.15 79.8433 270.64 79.8433C271.063 79.8433 271.397 79.7598 271.642 79.5928C271.898 79.4258 272.087 79.192 272.209 78.8913L274.481 79.6429C274.325 80.1217 274.052 80.528 273.662 80.8621C273.284 81.185 272.827 81.4299 272.293 81.5969C271.77 81.7639 271.219 81.8474 270.64 81.8474ZM270.506 75.1503C269.604 75.1503 269.07 75.668 268.903 76.7035H271.959C271.836 75.668 271.352 75.1503 270.506 75.1503ZM282.368 73.3299V75.3507H279.879V78.7076C279.879 79.1085 279.974 79.3979 280.163 79.5761C280.364 79.7431 280.636 79.8266 280.982 79.8266C281.249 79.8266 281.477 79.7988 281.666 79.7431C281.856 79.6763 282.034 79.5817 282.201 79.4592L282.501 81.2128C282.223 81.4021 281.867 81.5579 281.432 81.6804C281.009 81.7918 280.581 81.8474 280.146 81.8474C279.189 81.8474 278.432 81.647 277.875 81.2462C277.33 80.8342 277.051 80.1439 277.04 79.1753V75.3507H275.604V73.3299H277.04V71.4594L279.879 70.6744V73.3299H282.368ZM283.93 81.6804V73.3299H286.435L286.552 75.1336C286.752 74.5212 287.058 74.0425 287.47 73.6973C287.893 73.341 288.433 73.1629 289.09 73.1629C289.302 73.1629 289.48 73.1852 289.625 73.2297C289.781 73.2631 289.903 73.3021 289.992 73.3466L289.708 75.6847C289.597 75.6513 289.452 75.6179 289.274 75.5845C289.107 75.5511 288.901 75.5344 288.656 75.5344C288.144 75.5344 287.699 75.6959 287.32 76.0188C286.953 76.3417 286.769 76.826 286.769 77.4718V81.6804H283.93ZM295.918 76.3862C295.918 75.9965 295.807 75.6903 295.584 75.4676C295.373 75.2338 295.083 75.1169 294.716 75.1169C294.348 75.1169 294.031 75.2116 293.764 75.4008C293.508 75.579 293.329 75.9019 293.229 76.3695L290.824 75.8017C290.98 75 291.392 74.3598 292.06 73.881C292.728 73.4023 293.669 73.1629 294.883 73.1629C296.107 73.1629 297.054 73.4357 297.722 73.9812C298.401 74.5157 298.741 75.3006 298.741 76.3361V79.3924C298.741 79.8266 298.935 80.0437 299.325 80.0437C299.526 80.0437 299.687 80.0215 299.809 79.9769L299.642 81.5969C299.308 81.7528 298.902 81.8307 298.423 81.8307C297.9 81.8307 297.449 81.7305 297.07 81.5301C296.692 81.3186 296.436 81.0012 296.302 80.5782C296.068 81.0124 295.695 81.3353 295.183 81.5468C294.682 81.7472 294.148 81.8474 293.58 81.8474C292.723 81.8474 292.038 81.6526 291.526 81.2629C291.025 80.8621 290.774 80.2887 290.774 79.5427C290.774 78.9415 290.952 78.446 291.309 78.0563C291.676 77.6555 292.249 77.3771 293.029 77.2212L295.918 76.62V76.3862ZM293.58 79.2755C293.58 79.5204 293.669 79.7041 293.847 79.8266C294.025 79.9491 294.237 80.0103 294.482 80.0103C294.86 80.0103 295.194 79.899 295.484 79.6763C295.773 79.4425 295.918 79.0806 295.918 78.5907V78.1231L294.565 78.407C294.231 78.4738 293.981 78.574 293.814 78.7076C293.658 78.8301 293.58 79.0194 293.58 79.2755Z" fill="#F8F9FA"/>
<path d="M256.753 104.742C256.753 99.2195 261.23 94.7423 266.753 94.7423H288.505C294.028 94.7423 298.505 99.2195 298.505 104.742V124.829C298.505 130.352 294.028 134.829 288.505 134.829H266.753C261.23 134.829 256.753 130.352 256.753 124.829V104.742Z" fill="#272727"/>
<path d="M285.283 108.868V122.095H282.237V116.022L282.337 111.954H282.297L279.03 122.095H276.244L272.978 111.954H272.938L273.038 116.022V122.095H269.972V108.868H274.882L276.966 115.601L277.707 118.407H277.748L278.509 115.622L280.573 108.868H285.283Z" fill="#F8F9FA"/>
<path d="M266.753 97.7423H288.505V91.7423H266.753V97.7423ZM295.505 104.742V124.829H301.505V104.742H295.505ZM288.505 131.829H266.753V137.829H288.505V131.829ZM259.753 124.829V104.742H253.753V124.829H259.753ZM266.753 131.829C262.887 131.829 259.753 128.695 259.753 124.829H253.753C253.753 132.009 259.573 137.829 266.753 137.829V131.829ZM295.505 124.829C295.505 128.695 292.371 131.829 288.505 131.829V137.829C295.685 137.829 301.505 132.009 301.505 124.829H295.505ZM288.505 97.7423C292.371 97.7423 295.505 100.876 295.505 104.742H301.505C301.505 97.5626 295.685 91.7423 288.505 91.7423V97.7423ZM266.753 91.7423C259.573 91.7423 253.753 97.5626 253.753 104.742H259.753C259.753 100.876 262.887 97.7423 266.753 97.7423V91.7423Z" fill="#F8F9FA"/>
</g>
<g filter="url(#filter1_d)">
<path d="M53 348.598H326.897V366C326.897 373.542 326.897 377.314 324.554 379.657C322.211 382 318.439 382 310.897 382H69C61.4575 382 57.6863 382 55.3431 379.657C53 377.314 53 373.542 53 366V348.598Z" fill="#243138"/>
<rect x="73.434" y="361.959" width="233.421" height="6.68041" rx="3.34021" fill="#F8F9FA"/>
<rect x="73.0414" y="361.959" width="108.458" height="6.68041" rx="3.34021" fill="#C74647"/>
</g>
<g filter="url(#filter2_d)">
<path d="M53 180.896C53 173.353 53 169.582 55.3431 167.239C57.6863 164.896 61.4575 164.896 69 164.896H310.897C318.439 164.896 322.211 164.896 324.554 167.239C326.897 169.582 326.897 173.353 326.897 180.896V253.318H53V180.896Z" fill="#1F4459"/>
<path d="M138.937 180.893V183.115H135.346V191.916H132.473V183.115H128.866V180.893H138.937ZM142.424 192.083C141.578 192.083 140.887 191.855 140.353 191.398C139.818 190.942 139.551 190.19 139.551 189.144V183.566H142.39V188.476C142.39 189.01 142.496 189.383 142.708 189.595C142.919 189.806 143.22 189.912 143.61 189.912C144.01 189.912 144.35 189.767 144.628 189.478C144.918 189.177 145.063 188.698 145.063 188.041V183.566H147.902V191.916H145.363L145.28 190.346C145.012 190.936 144.639 191.376 144.161 191.666C143.682 191.944 143.103 192.083 142.424 192.083ZM155.221 195.423V183.566H157.777L157.86 185.252C158.094 184.696 158.445 184.25 158.912 183.916C159.391 183.571 159.953 183.399 160.599 183.399C161.623 183.399 162.447 183.777 163.071 184.534C163.706 185.291 164.023 186.349 164.023 187.707C164.023 189.088 163.7 190.163 163.054 190.931C162.42 191.699 161.59 192.083 160.566 192.083C159.964 192.083 159.452 191.938 159.029 191.649C158.606 191.348 158.283 190.959 158.061 190.48V195.423H155.221ZM159.597 189.996C160.087 189.996 160.471 189.817 160.749 189.461C161.028 189.094 161.167 188.52 161.167 187.741C161.167 186.961 161.028 186.394 160.749 186.037C160.482 185.67 160.104 185.486 159.614 185.486C159.135 185.486 158.756 185.681 158.478 186.071C158.2 186.449 158.061 187.006 158.061 187.741C158.061 188.442 158.194 188.993 158.461 189.394C158.729 189.795 159.107 189.996 159.597 189.996ZM170.521 186.622C170.521 186.232 170.409 185.926 170.187 185.703C169.975 185.47 169.686 185.353 169.318 185.353C168.951 185.353 168.633 185.447 168.366 185.637C168.11 185.815 167.932 186.138 167.832 186.605L165.427 186.037C165.583 185.236 165.995 184.596 166.663 184.117C167.331 183.638 168.272 183.399 169.485 183.399C170.71 183.399 171.656 183.671 172.324 184.217C173.004 184.751 173.343 185.536 173.343 186.572V189.628C173.343 190.062 173.538 190.279 173.928 190.279C174.128 190.279 174.29 190.257 174.412 190.213L174.245 191.833C173.911 191.989 173.505 192.066 173.026 192.066C172.503 192.066 172.052 191.966 171.673 191.766C171.295 191.554 171.038 191.237 170.905 190.814C170.671 191.248 170.298 191.571 169.786 191.783C169.285 191.983 168.75 192.083 168.183 192.083C167.325 192.083 166.64 191.888 166.128 191.499C165.627 191.098 165.377 190.524 165.377 189.778C165.377 189.177 165.555 188.682 165.911 188.292C166.279 187.891 166.852 187.613 167.631 187.457L170.521 186.856V186.622ZM168.183 189.511C168.183 189.756 168.272 189.94 168.45 190.062C168.628 190.185 168.839 190.246 169.084 190.246C169.463 190.246 169.797 190.135 170.086 189.912C170.376 189.678 170.521 189.316 170.521 188.826V188.359L169.168 188.643C168.834 188.71 168.583 188.81 168.416 188.943C168.26 189.066 168.183 189.255 168.183 189.511ZM178.589 180.025V189.077C178.589 189.444 178.65 189.706 178.773 189.862C178.895 190.018 179.101 190.096 179.391 190.096C179.558 190.096 179.697 190.085 179.808 190.062C179.92 190.04 180.053 190.007 180.209 189.962L180.025 191.666C179.825 191.788 179.563 191.888 179.24 191.966C178.917 192.044 178.6 192.083 178.288 192.083C177.398 192.083 176.752 191.877 176.351 191.465C175.95 191.053 175.75 190.38 175.75 189.444V180.025H178.589ZM186.288 186.622C186.288 186.232 186.176 185.926 185.953 185.703C185.742 185.47 185.452 185.353 185.085 185.353C184.718 185.353 184.4 185.447 184.133 185.637C183.877 185.815 183.699 186.138 183.599 186.605L181.194 186.037C181.35 185.236 181.762 184.596 182.43 184.117C183.098 183.638 184.038 183.399 185.252 183.399C186.477 183.399 187.423 183.671 188.091 184.217C188.77 184.751 189.11 185.536 189.11 186.572V189.628C189.11 190.062 189.305 190.279 189.695 190.279C189.895 190.279 190.056 190.257 190.179 190.213L190.012 191.833C189.678 191.989 189.271 192.066 188.793 192.066C188.269 192.066 187.818 191.966 187.44 191.766C187.061 191.554 186.805 191.237 186.672 190.814C186.438 191.248 186.065 191.571 185.553 191.783C185.052 191.983 184.517 192.083 183.949 192.083C183.092 192.083 182.407 191.888 181.895 191.499C181.394 191.098 181.144 190.524 181.144 189.778C181.144 189.177 181.322 188.682 181.678 188.292C182.045 187.891 182.619 187.613 183.398 187.457L186.288 186.856V186.622ZM183.949 189.511C183.949 189.756 184.038 189.94 184.217 190.062C184.395 190.185 184.606 190.246 184.851 190.246C185.23 190.246 185.564 190.135 185.853 189.912C186.143 189.678 186.288 189.316 186.288 188.826V188.359L184.935 188.643C184.601 188.71 184.35 188.81 184.183 188.943C184.027 189.066 183.949 189.255 183.949 189.511ZM196.911 192.083C196.232 192.083 195.653 191.899 195.174 191.532C194.695 191.165 194.35 190.68 194.139 190.079L194.038 191.916H191.55V180.025H194.389V185.002C194.612 184.523 194.94 184.139 195.375 183.85C195.82 183.549 196.365 183.399 197.011 183.399C197.657 183.399 198.23 183.571 198.731 183.916C199.233 184.261 199.628 184.763 199.917 185.419C200.207 186.065 200.351 186.85 200.351 187.774C200.351 189.133 200.034 190.19 199.4 190.947C198.765 191.705 197.935 192.083 196.911 192.083ZM195.926 189.996C196.416 189.996 196.8 189.817 197.078 189.461C197.356 189.094 197.496 188.52 197.496 187.741C197.496 186.961 197.356 186.394 197.078 186.037C196.8 185.67 196.416 185.486 195.926 185.486C195.447 185.486 195.068 185.687 194.79 186.087C194.523 186.488 194.389 187.045 194.389 187.758C194.389 188.481 194.528 189.038 194.807 189.428C195.085 189.806 195.458 189.996 195.926 189.996ZM202.271 191.916V183.566H204.776L204.893 185.369C205.094 184.757 205.4 184.278 205.812 183.933C206.235 183.577 206.775 183.399 207.432 183.399C207.643 183.399 207.822 183.421 207.966 183.465C208.122 183.499 208.245 183.538 208.334 183.582L208.05 185.92C207.939 185.887 207.794 185.854 207.616 185.82C207.449 185.787 207.243 185.77 206.998 185.77C206.486 185.77 206.04 185.932 205.662 186.254C205.294 186.577 205.11 187.062 205.11 187.707V191.916H202.271ZM214.26 186.622C214.26 186.232 214.148 185.926 213.926 185.703C213.714 185.47 213.425 185.353 213.057 185.353C212.69 185.353 212.373 185.447 212.105 185.637C211.849 185.815 211.671 186.138 211.571 186.605L209.166 186.037C209.322 185.236 209.734 184.596 210.402 184.117C211.07 183.638 212.011 183.399 213.224 183.399C214.449 183.399 215.395 183.671 216.063 184.217C216.743 184.751 217.082 185.536 217.082 186.572V189.628C217.082 190.062 217.277 190.279 217.667 190.279C217.867 190.279 218.029 190.257 218.151 190.213L217.984 191.833C217.65 191.989 217.244 192.066 216.765 192.066C216.242 192.066 215.791 191.966 215.412 191.766C215.034 191.554 214.778 191.237 214.644 190.814C214.41 191.248 214.037 191.571 213.525 191.783C213.024 191.983 212.489 192.083 211.922 192.083C211.064 192.083 210.38 191.888 209.867 191.499C209.366 191.098 209.116 190.524 209.116 189.778C209.116 189.177 209.294 188.682 209.65 188.292C210.018 187.891 210.591 187.613 211.371 187.457L214.26 186.856V186.622ZM211.922 189.511C211.922 189.756 212.011 189.94 212.189 190.062C212.367 190.185 212.579 190.246 212.823 190.246C213.202 190.246 213.536 190.135 213.826 189.912C214.115 189.678 214.26 189.316 214.26 188.826V188.359L212.907 188.643C212.573 188.71 212.322 188.81 212.155 188.943C212 189.066 211.922 189.255 211.922 189.511ZM230.053 183.566V185.586H227.681V191.916H224.842V185.586H223.506V183.566H224.842V182.797C224.842 182.085 224.992 181.511 225.293 181.077C225.605 180.632 226.011 180.309 226.512 180.109C227.024 179.897 227.576 179.791 228.166 179.791C228.622 179.791 229.023 179.841 229.368 179.941C229.713 180.031 229.969 180.136 230.136 180.259L229.852 182.029C229.73 181.962 229.591 181.907 229.435 181.862C229.279 181.806 229.084 181.779 228.85 181.779C228.45 181.779 228.127 181.868 227.882 182.046C227.637 182.224 227.514 182.536 227.514 182.981V183.566H230.053ZM234.279 192.083C233.433 192.083 232.742 191.855 232.208 191.398C231.673 190.942 231.406 190.19 231.406 189.144V183.566H234.245V188.476C234.245 189.01 234.351 189.383 234.563 189.595C234.774 189.806 235.075 189.912 235.465 189.912C235.865 189.912 236.205 189.767 236.483 189.478C236.773 189.177 236.918 188.698 236.918 188.041V183.566H239.757V191.916H237.218L237.135 190.346C236.868 190.936 236.495 191.376 236.016 191.666C235.537 191.944 234.958 192.083 234.279 192.083ZM246.122 192.083C244.73 192.083 243.628 191.705 242.815 190.947C242.014 190.19 241.613 189.121 241.613 187.741C241.613 186.828 241.797 186.049 242.164 185.403C242.543 184.746 243.055 184.25 243.701 183.916C244.357 183.571 245.12 183.399 245.989 183.399C246.868 183.399 247.614 183.571 248.227 183.916C248.85 184.25 249.323 184.718 249.646 185.319C249.969 185.909 250.13 186.589 250.13 187.357C250.13 187.568 250.119 187.774 250.097 187.975C250.086 188.164 250.075 188.325 250.064 188.459H244.369C244.447 189.038 244.636 189.456 244.936 189.712C245.237 189.957 245.632 190.079 246.122 190.079C246.545 190.079 246.879 189.996 247.124 189.829C247.38 189.661 247.57 189.428 247.692 189.127L249.963 189.879C249.808 190.357 249.535 190.764 249.145 191.098C248.767 191.421 248.31 191.666 247.776 191.833C247.252 192 246.701 192.083 246.122 192.083ZM245.989 185.386C245.087 185.386 244.552 185.904 244.385 186.939H247.442C247.319 185.904 246.835 185.386 245.989 185.386Z" fill="#F8F9FA"/>
<g filter="url(#filter3_d)">
<g filter="url(#filter4_d)">
<rect x="156.588" y="205.597" width="66.7216" height="34.3608" rx="10.0206" fill="#C74647"/>
<path d="M180.747 218.459V227.277H179.09V222.681L179.171 220.102H179.144L176.699 227.277H175.189L172.757 220.102H172.731L172.824 222.681V227.277H171.154V218.459H173.826L175.416 223.269L175.977 225.259H176.004L176.579 223.282L178.155 218.459H180.747ZM186.609 223.015C186.609 222.632 186.498 222.333 186.275 222.12C186.061 221.906 185.776 221.799 185.42 221.799C185.09 221.799 184.801 221.884 184.552 222.053C184.302 222.222 184.12 222.503 184.004 222.895L182.441 222.414C182.592 221.826 182.922 221.354 183.429 220.997C183.946 220.641 184.636 220.463 185.5 220.463C186.373 220.463 187.077 220.672 187.611 221.091C188.155 221.501 188.426 222.115 188.426 222.935V225.647C188.426 225.985 188.587 226.155 188.907 226.155C189.059 226.155 189.201 226.132 189.335 226.088L189.228 227.224C188.996 227.339 188.707 227.397 188.359 227.397C187.976 227.397 187.642 227.317 187.357 227.157C187.081 226.996 186.894 226.756 186.796 226.435C186.582 226.756 186.275 227.001 185.874 227.17C185.482 227.33 185.077 227.411 184.658 227.411C183.982 227.411 183.443 227.259 183.042 226.956C182.65 226.645 182.454 226.195 182.454 225.607C182.454 225.108 182.614 224.703 182.935 224.391C183.256 224.07 183.714 223.852 184.311 223.736L186.609 223.269V223.015ZM184.284 225.433C184.284 225.656 184.365 225.825 184.525 225.941C184.694 226.057 184.895 226.115 185.126 226.115C185.384 226.115 185.625 226.075 185.848 225.994C186.07 225.914 186.253 225.781 186.395 225.594C186.538 225.398 186.609 225.139 186.609 224.819V224.404L185.206 224.685C184.903 224.747 184.672 224.832 184.512 224.939C184.36 225.037 184.284 225.202 184.284 225.433ZM194.401 227.411C193.867 227.411 193.404 227.273 193.012 226.996C192.629 226.711 192.344 226.342 192.157 225.887L192.09 227.277H190.473V217.671H192.304V221.732C192.5 221.358 192.776 221.055 193.132 220.824C193.497 220.583 193.938 220.463 194.455 220.463C194.989 220.463 195.466 220.601 195.885 220.877C196.312 221.153 196.646 221.554 196.887 222.08C197.136 222.596 197.261 223.22 197.261 223.95C197.261 224.681 197.136 225.304 196.887 225.821C196.646 226.328 196.308 226.72 195.871 226.996C195.444 227.273 194.954 227.411 194.401 227.411ZM193.854 226.008C194.352 226.008 194.74 225.834 195.016 225.487C195.292 225.13 195.43 224.614 195.43 223.937C195.43 223.26 195.292 222.748 195.016 222.4C194.74 222.044 194.357 221.866 193.867 221.866C193.395 221.866 193.016 222.057 192.731 222.44C192.446 222.814 192.304 223.318 192.304 223.95C192.304 224.6 192.446 225.108 192.731 225.473C193.016 225.83 193.39 226.008 193.854 226.008ZM201.95 227.411C200.899 227.411 200.057 227.108 199.424 226.502C198.792 225.887 198.476 225.032 198.476 223.937C198.476 223.206 198.618 222.583 198.903 222.066C199.188 221.55 199.585 221.153 200.093 220.877C200.609 220.601 201.197 220.463 201.856 220.463C202.533 220.463 203.108 220.601 203.58 220.877C204.052 221.144 204.413 221.514 204.662 221.986C204.911 222.449 205.036 222.979 205.036 223.576C205.036 223.754 205.032 223.923 205.023 224.084C205.014 224.244 205 224.387 204.983 224.511H200.266C200.337 225.028 200.516 225.415 200.801 225.674C201.095 225.923 201.473 226.048 201.936 226.048C202.328 226.048 202.644 225.972 202.885 225.821C203.125 225.669 203.312 225.46 203.446 225.193L204.902 225.754C204.689 226.279 204.315 226.689 203.78 226.983C203.246 227.268 202.636 227.411 201.95 227.411ZM201.843 221.812C200.979 221.812 200.458 222.289 200.28 223.242H203.286C203.232 222.779 203.081 222.427 202.832 222.187C202.591 221.937 202.261 221.812 201.843 221.812ZM208.391 217.671V225.219C208.391 225.531 208.444 225.749 208.551 225.874C208.658 225.999 208.836 226.061 209.086 226.061C209.237 226.061 209.362 226.052 209.46 226.034C209.558 226.017 209.683 225.981 209.834 225.928L209.674 227.13C209.522 227.219 209.331 227.286 209.099 227.33C208.876 227.384 208.654 227.411 208.431 227.411C207.781 227.411 207.304 227.255 207.001 226.943C206.708 226.622 206.561 226.115 206.561 225.42V217.671H208.391Z" fill="#F8F9FA"/>
<rect x="157.423" y="206.432" width="65.0515" height="32.6907" rx="9.18557" stroke="#F8F9FA" stroke-width="1.6701"/>
</g>
</g>
</g>
<path d="M53 251.732H326.897V348.598H53V251.732Z" fill="#1F4459"/>
<path d="M81.5402 274.552H87.0682V276.773H78.6676V265.751H81.5402V274.552ZM93.424 271.479C93.424 271.089 93.3127 270.783 93.09 270.56C92.8784 270.327 92.589 270.21 92.2215 270.21C91.8541 270.21 91.5368 270.304 91.2696 270.494C91.0135 270.672 90.8353 270.995 90.7351 271.462L88.3302 270.894C88.4861 270.093 88.898 269.453 89.5661 268.974C90.2341 268.495 91.1749 268.256 92.3885 268.256C93.6133 268.256 94.5597 268.528 95.2277 269.074C95.9069 269.608 96.2465 270.393 96.2465 271.429V274.485C96.2465 274.919 96.4413 275.136 96.831 275.136C97.0314 275.136 97.1929 275.114 97.3153 275.07L97.1483 276.69C96.8143 276.846 96.4079 276.924 95.9292 276.924C95.4059 276.924 94.9549 276.823 94.5764 276.623C94.1978 276.411 93.9417 276.094 93.8081 275.671C93.5743 276.105 93.2013 276.428 92.6892 276.64C92.1881 276.84 91.6537 276.94 91.0859 276.94C90.2285 276.94 89.5438 276.745 89.0316 276.356C88.5306 275.955 88.2801 275.381 88.2801 274.635C88.2801 274.034 88.4582 273.539 88.8145 273.149C89.1819 272.748 89.7553 272.47 90.5347 272.314L93.424 271.713V271.479ZM91.0859 274.368C91.0859 274.613 91.1749 274.797 91.3531 274.919C91.5312 275.042 91.7428 275.103 91.9877 275.103C92.3663 275.103 92.7003 274.992 92.9898 274.769C93.2793 274.535 93.424 274.173 93.424 273.684V273.216L92.0712 273.5C91.7372 273.567 91.4867 273.667 91.3197 273.8C91.1638 273.923 91.0859 274.112 91.0859 274.368ZM102.194 276.94C101.359 276.94 100.585 276.807 99.8723 276.539C99.1597 276.261 98.5641 275.866 98.0853 275.354L99.4214 273.784C99.6997 274.14 100.067 274.441 100.524 274.686C100.991 274.919 101.509 275.036 102.077 275.036C102.422 275.036 102.706 274.986 102.929 274.886C103.151 274.786 103.263 274.63 103.263 274.418C103.263 274.274 103.207 274.151 103.096 274.051C102.984 273.951 102.762 273.867 102.428 273.8L101.258 273.567C100.212 273.355 99.4659 273.043 99.0205 272.631C98.5863 272.208 98.3692 271.657 98.3692 270.978C98.3692 270.521 98.5084 270.087 98.7867 269.675C99.0651 269.263 99.4937 268.924 100.073 268.656C100.652 268.389 101.392 268.256 102.294 268.256C104.02 268.256 105.278 268.734 106.068 269.692L104.716 271.228C104.448 270.894 104.103 270.633 103.68 270.444C103.257 270.254 102.834 270.16 102.411 270.16C101.598 270.16 101.192 270.366 101.192 270.778C101.192 270.922 101.258 271.05 101.392 271.162C101.537 271.273 101.798 271.362 102.177 271.429L103.697 271.729C104.554 271.896 105.172 272.186 105.551 272.598C105.929 272.999 106.118 273.489 106.118 274.068C106.118 274.88 105.79 275.565 105.133 276.122C104.487 276.667 103.508 276.94 102.194 276.94ZM112.871 280.28V268.423H115.427L115.51 270.109C115.744 269.553 116.095 269.107 116.562 268.773C117.041 268.428 117.603 268.256 118.249 268.256C119.273 268.256 120.097 268.634 120.721 269.391C121.355 270.148 121.673 271.206 121.673 272.565C121.673 273.945 121.35 275.02 120.704 275.788C120.069 276.556 119.24 276.94 118.216 276.94C117.614 276.94 117.102 276.795 116.679 276.506C116.256 276.205 115.933 275.816 115.71 275.337V280.28H112.871ZM117.247 274.853C117.737 274.853 118.121 274.674 118.399 274.318C118.678 273.951 118.817 273.377 118.817 272.598C118.817 271.819 118.678 271.251 118.399 270.894C118.132 270.527 117.754 270.343 117.264 270.343C116.785 270.343 116.406 270.538 116.128 270.928C115.85 271.306 115.71 271.863 115.71 272.598C115.71 273.299 115.844 273.851 116.111 274.251C116.379 274.652 116.757 274.853 117.247 274.853ZM128.171 271.479C128.171 271.089 128.059 270.783 127.837 270.56C127.625 270.327 127.336 270.21 126.968 270.21C126.601 270.21 126.283 270.304 126.016 270.494C125.76 270.672 125.582 270.995 125.482 271.462L123.077 270.894C123.233 270.093 123.645 269.453 124.313 268.974C124.981 268.495 125.922 268.256 127.135 268.256C128.36 268.256 129.306 268.528 129.974 269.074C130.654 269.608 130.993 270.393 130.993 271.429V274.485C130.993 274.919 131.188 275.136 131.578 275.136C131.778 275.136 131.939 275.114 132.062 275.07L131.895 276.69C131.561 276.846 131.155 276.924 130.676 276.924C130.152 276.924 129.702 276.823 129.323 276.623C128.944 276.411 128.688 276.094 128.555 275.671C128.321 276.105 127.948 276.428 127.436 276.64C126.935 276.84 126.4 276.94 125.832 276.94C124.975 276.94 124.29 276.745 123.778 276.356C123.277 275.955 123.027 275.381 123.027 274.635C123.027 274.034 123.205 273.539 123.561 273.149C123.929 272.748 124.502 272.47 125.281 272.314L128.171 271.713V271.479ZM125.832 274.368C125.832 274.613 125.922 274.797 126.1 274.919C126.278 275.042 126.489 275.103 126.734 275.103C127.113 275.103 127.447 274.992 127.736 274.769C128.026 274.535 128.171 274.173 128.171 273.684V273.216L126.818 273.5C126.484 273.567 126.233 273.667 126.066 273.8C125.91 273.923 125.832 274.112 125.832 274.368ZM136.239 264.882V273.934C136.239 274.301 136.3 274.563 136.423 274.719C136.545 274.875 136.751 274.953 137.041 274.953C137.208 274.953 137.347 274.942 137.458 274.919C137.569 274.897 137.703 274.864 137.859 274.819L137.675 276.523C137.475 276.645 137.213 276.745 136.89 276.823C136.567 276.901 136.25 276.94 135.938 276.94C135.048 276.94 134.402 276.734 134.001 276.322C133.6 275.91 133.4 275.237 133.4 274.301V264.882H136.239ZM143.937 271.479C143.937 271.089 143.826 270.783 143.603 270.56C143.392 270.327 143.102 270.21 142.735 270.21C142.368 270.21 142.05 270.304 141.783 270.494C141.527 270.672 141.349 270.995 141.249 271.462L138.844 270.894C139 270.093 139.411 269.453 140.08 268.974C140.748 268.495 141.688 268.256 142.902 268.256C144.127 268.256 145.073 268.528 145.741 269.074C146.42 269.608 146.76 270.393 146.76 271.429V274.485C146.76 274.919 146.955 275.136 147.344 275.136C147.545 275.136 147.706 275.114 147.829 275.07L147.662 276.69C147.328 276.846 146.921 276.924 146.443 276.924C145.919 276.924 145.468 276.823 145.09 276.623C144.711 276.411 144.455 276.094 144.322 275.671C144.088 276.105 143.715 276.428 143.203 276.64C142.702 276.84 142.167 276.94 141.599 276.94C140.742 276.94 140.057 276.745 139.545 276.356C139.044 275.955 138.794 275.381 138.794 274.635C138.794 274.034 138.972 273.539 139.328 273.149C139.695 272.748 140.269 272.47 141.048 272.314L143.937 271.713V271.479ZM141.599 274.368C141.599 274.613 141.688 274.797 141.867 274.919C142.045 275.042 142.256 275.103 142.501 275.103C142.88 275.103 143.214 274.992 143.503 274.769C143.793 274.535 143.937 274.173 143.937 273.684V273.216L142.585 273.5C142.251 273.567 142 273.667 141.833 273.8C141.677 273.923 141.599 274.112 141.599 274.368ZM154.561 276.94C153.882 276.94 153.303 276.756 152.824 276.389C152.345 276.022 152 275.537 151.789 274.936L151.688 276.773H149.2V264.882H152.039V269.859C152.262 269.38 152.59 268.996 153.025 268.707C153.47 268.406 154.015 268.256 154.661 268.256C155.307 268.256 155.88 268.428 156.381 268.773C156.882 269.119 157.278 269.62 157.567 270.276C157.857 270.922 158.001 271.707 158.001 272.631C158.001 273.99 157.684 275.047 157.049 275.805C156.415 276.562 155.585 276.94 154.561 276.94ZM153.576 274.853C154.066 274.853 154.45 274.674 154.728 274.318C155.006 273.951 155.146 273.377 155.146 272.598C155.146 271.819 155.006 271.251 154.728 270.894C154.45 270.527 154.066 270.343 153.576 270.343C153.097 270.343 152.718 270.544 152.44 270.945C152.173 271.345 152.039 271.902 152.039 272.615C152.039 273.338 152.178 273.895 152.457 274.285C152.735 274.663 153.108 274.853 153.576 274.853ZM159.921 276.773V268.423H162.426L162.543 270.226C162.744 269.614 163.05 269.135 163.462 268.79C163.885 268.434 164.425 268.256 165.082 268.256C165.293 268.256 165.472 268.278 165.616 268.322C165.772 268.356 165.895 268.395 165.984 268.439L165.7 270.778C165.588 270.744 165.444 270.711 165.266 270.677C165.099 270.644 164.893 270.627 164.648 270.627C164.135 270.627 163.69 270.789 163.312 271.112C162.944 271.434 162.76 271.919 162.76 272.565V276.773H159.921ZM171.91 271.479C171.91 271.089 171.798 270.783 171.576 270.56C171.364 270.327 171.075 270.21 170.707 270.21C170.34 270.21 170.022 270.304 169.755 270.494C169.499 270.672 169.321 270.995 169.221 271.462L166.816 270.894C166.972 270.093 167.384 269.453 168.052 268.974C168.72 268.495 169.661 268.256 170.874 268.256C172.099 268.256 173.045 268.528 173.713 269.074C174.393 269.608 174.732 270.393 174.732 271.429V274.485C174.732 274.919 174.927 275.136 175.317 275.136C175.517 275.136 175.679 275.114 175.801 275.07L175.634 276.69C175.3 276.846 174.894 276.924 174.415 276.924C173.892 276.924 173.441 276.823 173.062 276.623C172.684 276.411 172.427 276.094 172.294 275.671C172.06 276.105 171.687 276.428 171.175 276.64C170.674 276.84 170.139 276.94 169.572 276.94C168.714 276.94 168.03 276.745 167.517 276.356C167.016 275.955 166.766 275.381 166.766 274.635C166.766 274.034 166.944 273.539 167.3 273.149C167.668 272.748 168.241 272.47 169.02 272.314L171.91 271.713V271.479ZM169.572 274.368C169.572 274.613 169.661 274.797 169.839 274.919C170.017 275.042 170.228 275.103 170.473 275.103C170.852 275.103 171.186 274.992 171.475 274.769C171.765 274.535 171.91 274.173 171.91 273.684V273.216L170.557 273.5C170.223 273.567 169.972 273.667 169.805 273.8C169.65 273.923 169.572 274.112 169.572 274.368ZM180.679 276.94C179.844 276.94 179.071 276.807 178.358 276.539C177.645 276.261 177.05 275.866 176.571 275.354L177.907 273.784C178.185 274.14 178.553 274.441 179.009 274.686C179.477 274.919 179.995 275.036 180.563 275.036C180.908 275.036 181.192 274.986 181.414 274.886C181.637 274.786 181.748 274.63 181.748 274.418C181.748 274.274 181.693 274.151 181.581 274.051C181.47 273.951 181.247 273.867 180.913 273.8L179.744 273.567C178.698 273.355 177.952 273.043 177.506 272.631C177.072 272.208 176.855 271.657 176.855 270.978C176.855 270.521 176.994 270.087 177.272 269.675C177.551 269.263 177.979 268.924 178.558 268.656C179.137 268.389 179.878 268.256 180.78 268.256C182.505 268.256 183.764 268.734 184.554 269.692L183.201 271.228C182.934 270.894 182.589 270.633 182.166 270.444C181.743 270.254 181.32 270.16 180.897 270.16C180.084 270.16 179.677 270.366 179.677 270.778C179.677 270.922 179.744 271.05 179.878 271.162C180.023 271.273 180.284 271.362 180.663 271.429L182.183 271.729C183.04 271.896 183.658 272.186 184.036 272.598C184.415 272.999 184.604 273.489 184.604 274.068C184.604 274.88 184.276 275.565 183.619 276.122C182.973 276.667 181.993 276.94 180.679 276.94ZM194.43 276.94C193.395 276.94 192.559 276.562 191.925 275.805C191.301 275.047 190.99 273.99 190.99 272.631C190.99 271.696 191.134 270.906 191.424 270.26C191.724 269.603 192.136 269.107 192.66 268.773C193.194 268.428 193.807 268.256 194.497 268.256C195.087 268.256 195.588 268.4 196 268.69C196.423 268.979 196.74 269.364 196.952 269.842V264.882H199.791V276.773H197.252L197.152 275.136C196.918 275.693 196.562 276.133 196.083 276.456C195.616 276.779 195.065 276.94 194.43 276.94ZM195.415 274.853C195.883 274.853 196.256 274.658 196.534 274.268C196.813 273.878 196.952 273.305 196.952 272.548C196.952 271.846 196.818 271.306 196.551 270.928C196.284 270.538 195.911 270.343 195.432 270.343C194.942 270.343 194.552 270.527 194.263 270.894C193.985 271.251 193.845 271.819 193.845 272.598C193.845 273.377 193.985 273.951 194.263 274.318C194.541 274.674 194.925 274.853 195.415 274.853ZM206.153 276.94C204.762 276.94 203.659 276.562 202.847 275.805C202.045 275.047 201.644 273.979 201.644 272.598C201.644 271.685 201.828 270.906 202.195 270.26C202.574 269.603 203.086 269.107 203.732 268.773C204.389 268.428 205.151 268.256 206.02 268.256C206.899 268.256 207.645 268.428 208.258 268.773C208.881 269.107 209.354 269.575 209.677 270.176C210 270.766 210.162 271.446 210.162 272.214C210.162 272.425 210.15 272.631 210.128 272.832C210.117 273.021 210.106 273.182 210.095 273.316H204.4C204.478 273.895 204.667 274.313 204.968 274.569C205.268 274.814 205.663 274.936 206.153 274.936C206.576 274.936 206.91 274.853 207.155 274.686C207.411 274.519 207.601 274.285 207.723 273.984L209.995 274.736C209.839 275.214 209.566 275.621 209.176 275.955C208.798 276.278 208.341 276.523 207.807 276.69C207.283 276.857 206.732 276.94 206.153 276.94ZM206.02 270.243C205.118 270.243 204.583 270.761 204.416 271.796H207.473C207.35 270.761 206.866 270.243 206.02 270.243ZM219.835 264.882V273.934C219.835 274.301 219.897 274.563 220.019 274.719C220.142 274.875 220.348 274.953 220.637 274.953C220.804 274.953 220.943 274.942 221.055 274.919C221.166 274.897 221.3 274.864 221.455 274.819L221.272 276.523C221.071 276.645 220.81 276.745 220.487 276.823C220.164 276.901 219.847 276.94 219.535 276.94C218.644 276.94 217.998 276.734 217.597 276.322C217.197 275.91 216.996 275.237 216.996 274.301V264.882H219.835ZM226.719 268.256C227.598 268.256 228.367 268.428 229.023 268.773C229.691 269.119 230.209 269.614 230.577 270.26C230.955 270.906 231.144 271.685 231.144 272.598C231.144 273.511 230.955 274.29 230.577 274.936C230.209 275.582 229.691 276.077 229.023 276.422C228.367 276.768 227.598 276.94 226.719 276.94C225.85 276.94 225.082 276.768 224.414 276.422C223.757 276.077 223.239 275.582 222.861 274.936C222.493 274.29 222.31 273.511 222.31 272.598C222.31 271.685 222.493 270.906 222.861 270.26C223.239 269.614 223.757 269.119 224.414 268.773C225.082 268.428 225.85 268.256 226.719 268.256ZM226.719 270.276C226.229 270.276 225.845 270.46 225.566 270.828C225.299 271.184 225.166 271.774 225.166 272.598C225.166 273.411 225.299 274.001 225.566 274.368C225.845 274.736 226.229 274.919 226.719 274.919C227.22 274.919 227.604 274.736 227.871 274.368C228.149 274.001 228.289 273.411 228.289 272.598C228.289 271.774 228.149 271.184 227.871 270.828C227.604 270.46 227.22 270.276 226.719 270.276ZM236.499 276.94C235.664 276.94 234.891 276.807 234.178 276.539C233.465 276.261 232.87 275.866 232.391 275.354L233.727 273.784C234.005 274.14 234.373 274.441 234.829 274.686C235.297 274.919 235.815 275.036 236.382 275.036C236.728 275.036 237.012 274.986 237.234 274.886C237.457 274.786 237.568 274.63 237.568 274.418C237.568 274.274 237.513 274.151 237.401 274.051C237.29 273.951 237.067 273.867 236.733 273.8L235.564 273.567C234.518 273.355 233.772 273.043 233.326 272.631C232.892 272.208 232.675 271.657 232.675 270.978C232.675 270.521 232.814 270.087 233.092 269.675C233.371 269.263 233.799 268.924 234.378 268.656C234.957 268.389 235.698 268.256 236.6 268.256C238.325 268.256 239.584 268.734 240.374 269.692L239.021 271.228C238.754 270.894 238.409 270.633 237.986 270.444C237.563 270.254 237.14 270.16 236.716 270.16C235.904 270.16 235.497 270.366 235.497 270.778C235.497 270.922 235.564 271.05 235.698 271.162C235.842 271.273 236.104 271.362 236.483 271.429L238.002 271.729C238.86 271.896 239.478 272.186 239.856 272.598C240.235 272.999 240.424 273.489 240.424 274.068C240.424 274.88 240.096 275.565 239.439 276.122C238.793 276.667 237.813 276.94 236.499 276.94ZM250.25 276.94C249.214 276.94 248.379 276.562 247.745 275.805C247.121 275.047 246.81 273.99 246.81 272.631C246.81 271.696 246.954 270.906 247.244 270.26C247.544 269.603 247.956 269.107 248.48 268.773C249.014 268.428 249.626 268.256 250.317 268.256C250.907 268.256 251.408 268.4 251.82 268.69C252.243 268.979 252.56 269.364 252.772 269.842V264.882H255.611V276.773H253.072L252.972 275.136C252.738 275.693 252.382 276.133 251.903 276.456C251.436 276.779 250.885 276.94 250.25 276.94ZM251.235 274.853C251.703 274.853 252.076 274.658 252.354 274.268C252.633 273.878 252.772 273.305 252.772 272.548C252.772 271.846 252.638 271.306 252.371 270.928C252.104 270.538 251.731 270.343 251.252 270.343C250.762 270.343 250.372 270.527 250.083 270.894C249.805 271.251 249.665 271.819 249.665 272.598C249.665 273.377 249.805 273.951 250.083 274.318C250.361 274.674 250.745 274.853 251.235 274.853ZM261.973 276.94C260.582 276.94 259.479 276.562 258.666 275.805C257.865 275.047 257.464 273.979 257.464 272.598C257.464 271.685 257.648 270.906 258.015 270.26C258.394 269.603 258.906 269.107 259.552 268.773C260.209 268.428 260.971 268.256 261.84 268.256C262.719 268.256 263.465 268.428 264.078 268.773C264.701 269.107 265.174 269.575 265.497 270.176C265.82 270.766 265.982 271.446 265.982 272.214C265.982 272.425 265.97 272.631 265.948 272.832C265.937 273.021 265.926 273.182 265.915 273.316H260.22C260.298 273.895 260.487 274.313 260.788 274.569C261.088 274.814 261.483 274.936 261.973 274.936C262.396 274.936 262.73 274.853 262.975 274.686C263.231 274.519 263.421 274.285 263.543 273.984L265.815 274.736C265.659 275.214 265.386 275.621 264.996 275.955C264.618 276.278 264.161 276.523 263.627 276.69C263.103 276.857 262.552 276.94 261.973 276.94ZM261.84 270.243C260.938 270.243 260.403 270.761 260.236 271.796H263.293C263.17 270.761 262.686 270.243 261.84 270.243ZM267.82 276.773V268.423H270.359L270.442 270.043C270.71 269.453 271.083 269.007 271.561 268.707C272.051 268.406 272.614 268.256 273.248 268.256C273.861 268.256 274.395 268.395 274.851 268.673C275.319 268.952 275.664 269.364 275.887 269.909C276.143 269.364 276.522 268.952 277.023 268.673C277.535 268.395 278.091 268.256 278.693 268.256C279.517 268.256 280.196 268.506 280.73 269.007C281.276 269.497 281.549 270.232 281.549 271.212V276.773H278.709V271.863C278.709 271.329 278.604 270.956 278.392 270.744C278.181 270.533 277.908 270.427 277.574 270.427C277.151 270.427 276.8 270.588 276.522 270.911C276.243 271.223 276.104 271.691 276.104 272.314V276.773H273.265V271.863C273.265 271.329 273.159 270.956 272.948 270.744C272.736 270.533 272.463 270.427 272.129 270.427C271.74 270.427 271.394 270.577 271.094 270.878C270.804 271.178 270.66 271.674 270.66 272.364V276.773H267.82ZM288.453 271.479C288.453 271.089 288.342 270.783 288.119 270.56C287.907 270.327 287.618 270.21 287.25 270.21C286.883 270.21 286.566 270.304 286.298 270.494C286.042 270.672 285.864 270.995 285.764 271.462L283.359 270.894C283.515 270.093 283.927 269.453 284.595 268.974C285.263 268.495 286.204 268.256 287.417 268.256C288.642 268.256 289.589 268.528 290.257 269.074C290.936 269.608 291.275 270.393 291.275 271.429V274.485C291.275 274.919 291.47 275.136 291.86 275.136C292.06 275.136 292.222 275.114 292.344 275.07L292.177 276.69C291.843 276.846 291.437 276.924 290.958 276.924C290.435 276.924 289.984 276.823 289.605 276.623C289.227 276.411 288.971 276.094 288.837 275.671C288.603 276.105 288.23 276.428 287.718 276.64C287.217 276.84 286.683 276.94 286.115 276.94C285.257 276.94 284.573 276.745 284.061 276.356C283.559 275.955 283.309 275.381 283.309 274.635C283.309 274.034 283.487 273.539 283.843 273.149C284.211 272.748 284.784 272.47 285.564 272.314L288.453 271.713V271.479ZM286.115 274.368C286.115 274.613 286.204 274.797 286.382 274.919C286.56 275.042 286.772 275.103 287.017 275.103C287.395 275.103 287.729 274.992 288.019 274.769C288.308 274.535 288.453 274.173 288.453 273.684V273.216L287.1 273.5C286.766 273.567 286.516 273.667 286.349 273.8C286.193 273.923 286.115 274.112 286.115 274.368ZM297.223 276.94C296.388 276.94 295.614 276.807 294.901 276.539C294.189 276.261 293.593 275.866 293.114 275.354L294.45 273.784C294.729 274.14 295.096 274.441 295.553 274.686C296.02 274.919 296.538 275.036 297.106 275.036C297.451 275.036 297.735 274.986 297.957 274.886C298.18 274.786 298.292 274.63 298.292 274.418C298.292 274.274 298.236 274.151 298.124 274.051C298.013 273.951 297.79 273.867 297.456 273.8L296.287 273.567C295.241 273.355 294.495 273.043 294.049 272.631C293.615 272.208 293.398 271.657 293.398 270.978C293.398 270.521 293.537 270.087 293.816 269.675C294.094 269.263 294.523 268.924 295.102 268.656C295.681 268.389 296.421 268.256 297.323 268.256C299.049 268.256 300.307 268.734 301.097 269.692L299.744 271.228C299.477 270.894 299.132 270.633 298.709 270.444C298.286 270.254 297.863 270.16 297.44 270.16C296.627 270.16 296.221 270.366 296.221 270.778C296.221 270.922 296.287 271.05 296.421 271.162C296.566 271.273 296.827 271.362 297.206 271.429L298.726 271.729C299.583 271.896 300.201 272.186 300.58 272.598C300.958 272.999 301.147 273.489 301.147 274.068C301.147 274.88 300.819 275.565 300.162 276.122C299.516 276.667 298.536 276.94 297.223 276.94Z" fill="#F8F9FA"/>
<g filter="url(#filter5_d)">
<g filter="url(#filter6_d)">
<rect x="103.665" y="300.474" width="66.1031" height="36.7423" rx="10.0206" fill="#6B7278"/>
<path d="M130.045 315.945C130.148 315.849 130.231 315.733 130.29 315.605C130.348 315.476 130.381 315.338 130.386 315.197C130.391 315.056 130.368 314.915 130.319 314.783C130.269 314.65 130.194 314.529 130.098 314.426C130.002 314.323 129.886 314.24 129.758 314.181C129.63 314.122 129.491 314.09 129.35 314.085C129.209 314.08 129.069 314.103 128.937 314.152C128.805 314.202 128.683 314.277 128.58 314.373L125.438 317.305L122.509 314.159C122.313 313.958 122.046 313.842 121.766 313.835C121.485 313.829 121.213 313.932 121.008 314.124C120.803 314.316 120.681 314.58 120.668 314.86C120.655 315.141 120.752 315.415 120.939 315.625L123.868 318.769L120.725 321.701C120.618 321.796 120.532 321.912 120.47 322.041C120.409 322.171 120.374 322.311 120.367 322.454C120.361 322.597 120.383 322.74 120.432 322.874C120.481 323.009 120.557 323.132 120.655 323.237C120.752 323.341 120.87 323.425 121 323.484C121.131 323.543 121.272 323.574 121.415 323.578C121.558 323.581 121.7 323.556 121.833 323.503C121.966 323.451 122.088 323.372 122.19 323.272L125.332 320.342L128.261 323.486C128.356 323.595 128.472 323.684 128.601 323.747C128.731 323.81 128.872 323.847 129.016 323.854C129.159 323.862 129.303 323.84 129.439 323.791C129.574 323.742 129.699 323.665 129.804 323.567C129.909 323.469 129.994 323.35 130.053 323.218C130.111 323.087 130.143 322.944 130.145 322.8C130.148 322.656 130.121 322.513 130.067 322.379C130.014 322.245 129.933 322.123 129.831 322.021L126.903 318.877L130.045 315.945Z" fill="#F8F9FA"/>
<path d="M151.321 314.527V323.345H149.664V318.749L149.744 316.171H149.717L147.272 323.345H145.763L143.331 316.171H143.304L143.398 318.749V323.345H141.728V314.527H144.4L145.99 319.337L146.551 321.328H146.578L147.152 319.35L148.729 314.527H151.321ZM154.349 315.703C153.592 315.703 153.213 315.378 153.213 314.728C153.213 314.068 153.592 313.739 154.349 313.739C155.106 313.739 155.485 314.068 155.485 314.728C155.485 315.378 155.106 315.703 154.349 315.703ZM155.257 316.665V323.345H153.427V316.665H155.257Z" fill="#F8F9FA"/>
<rect x="104.5" y="301.309" width="64.433" height="35.0722" rx="9.18557" stroke="#F8F9FA" stroke-width="1.6701"/>
</g>
</g>
<g filter="url(#filter7_d)">
<rect x="183.129" y="300.474" width="93.1031" height="36.7423" rx="10.0206" fill="#C74647"/>
<path d="M208.854 314.974L203.161 320.505L200.885 318.293C200.788 318.183 200.67 318.095 200.537 318.032C200.403 317.969 200.258 317.934 200.11 317.929C199.962 317.923 199.815 317.947 199.677 318C199.539 318.052 199.414 318.132 199.309 318.234C199.205 318.335 199.123 318.457 199.069 318.591C199.015 318.725 198.99 318.868 198.996 319.012C199.001 319.156 199.038 319.297 199.102 319.426C199.166 319.556 199.258 319.671 199.37 319.764L202.41 322.718C202.61 322.911 202.88 323.02 203.161 323.021C203.303 323.021 203.443 322.995 203.574 322.943C203.705 322.891 203.824 322.815 203.924 322.718L210.368 316.456C210.469 316.359 210.548 316.243 210.603 316.116C210.657 315.989 210.686 315.852 210.686 315.715C210.686 315.577 210.657 315.441 210.603 315.313C210.548 315.186 210.469 315.071 210.368 314.974C210.167 314.779 209.894 314.67 209.611 314.67C209.327 314.67 209.055 314.779 208.854 314.974Z" fill="#F8F9FA"/>
<path d="M230.774 314.527V323.345H229.117V318.749L229.197 316.171H229.17L226.725 323.345H225.216L222.784 316.171H222.757L222.851 318.749V323.345H221.181V314.527H223.853L225.443 319.337L226.004 321.328H226.031L226.605 319.35L228.182 314.527H230.774ZM236.636 319.083C236.636 318.7 236.524 318.402 236.302 318.188C236.088 317.974 235.803 317.867 235.447 317.867C235.117 317.867 234.828 317.952 234.578 318.121C234.329 318.29 234.146 318.571 234.03 318.963L232.467 318.482C232.619 317.894 232.948 317.422 233.456 317.066C233.972 316.709 234.663 316.531 235.527 316.531C236.4 316.531 237.103 316.741 237.638 317.159C238.181 317.569 238.453 318.184 238.453 319.003V321.715C238.453 322.054 238.613 322.223 238.934 322.223C239.085 322.223 239.228 322.201 239.361 322.156L239.254 323.292C239.023 323.408 238.733 323.466 238.386 323.466C238.003 323.466 237.669 323.385 237.384 323.225C237.108 323.065 236.921 322.824 236.823 322.504C236.609 322.824 236.302 323.069 235.901 323.238C235.509 323.399 235.104 323.479 234.685 323.479C234.008 323.479 233.469 323.328 233.068 323.025C232.676 322.713 232.48 322.263 232.48 321.675C232.48 321.176 232.641 320.771 232.961 320.459C233.282 320.139 233.741 319.921 234.338 319.805L236.636 319.337V319.083ZM234.311 321.502C234.311 321.724 234.391 321.893 234.551 322.009C234.721 322.125 234.921 322.183 235.153 322.183C235.411 322.183 235.651 322.143 235.874 322.063C236.097 321.983 236.279 321.849 236.422 321.662C236.564 321.466 236.636 321.208 236.636 320.887V320.473L235.233 320.753C234.93 320.816 234.698 320.9 234.538 321.007C234.387 321.105 234.311 321.27 234.311 321.502ZM240.5 323.345V316.665H242.09L242.21 317.974C242.379 317.52 242.633 317.168 242.972 316.919C243.319 316.66 243.755 316.531 244.281 316.531C244.593 316.531 244.833 316.58 245.003 316.678L244.789 318.215C244.7 318.188 244.588 318.166 244.455 318.148C244.33 318.121 244.165 318.108 243.96 318.108C243.684 318.108 243.421 318.175 243.172 318.308C242.932 318.433 242.731 318.629 242.571 318.896C242.411 319.154 242.33 319.484 242.33 319.885V323.345H240.5ZM250.391 316.665V318.028H248.253V321.168C248.253 321.488 248.334 321.724 248.494 321.876C248.663 322.018 248.89 322.089 249.175 322.089C249.407 322.089 249.603 322.058 249.763 321.996C249.932 321.925 250.084 321.831 250.218 321.715L250.511 322.931C250.289 323.1 250.017 323.234 249.696 323.332C249.385 323.43 249.051 323.479 248.694 323.479C248.026 323.479 247.479 323.328 247.051 323.025C246.632 322.713 246.423 322.192 246.423 321.461V318.028H245.194V316.665H246.423V315.128L248.253 314.621V316.665H250.391ZM253.46 316.665V323.345H251.63V316.665H253.46ZM252.592 313.432H254.355L253.019 315.703H251.67L252.592 313.432ZM255.4 323.345V316.665H257.044L257.111 317.921C257.315 317.458 257.614 317.11 258.006 316.879C258.407 316.647 258.865 316.531 259.382 316.531C260.077 316.531 260.651 316.736 261.105 317.146C261.56 317.547 261.787 318.152 261.787 318.963V323.345H259.956V319.484C259.956 318.914 259.841 318.522 259.609 318.308C259.386 318.086 259.101 317.974 258.754 317.974C258.505 317.974 258.26 318.037 258.019 318.161C257.787 318.277 257.596 318.469 257.445 318.736C257.302 319.003 257.231 319.359 257.231 319.805V323.345H255.4Z" fill="#F8F9FA"/>
<rect x="183.964" y="301.309" width="91.433" height="35.0722" rx="9.18557" stroke="#F8F9FA" stroke-width="1.6701"/>
</g>
</g>
<defs>
<filter id="filter0_d" x="52.1649" y="58" width="275.567" height="94.3649" filterUnits="userSpaceOnUse" color-interpolation-filters="sRGB">
<feFlood flood-opacity="0" result="BackgroundImageFix"/>
<feColorMatrix in="SourceAlpha" type="matrix" values="0 0 0 0 0 0 0 0 0 0 0 0 0 0 0 0 0 0 127 0" result="hardAlpha"/>
<feOffset dy="3.34021"/>
<feGaussianBlur stdDeviation="0.417526"/>
<feComposite in2="hardAlpha" operator="out"/>
<feColorMatrix type="matrix" values="0 0 0 0 0.0784314 0 0 0 0 0.0784314 0 0 0 0 0.0784314 0 0 0 0.5 0"/>
<feBlend mode="normal" in2="BackgroundImageFix" result="effect1_dropShadow"/>
<feBlend mode="normal" in="SourceGraphic" in2="effect1_dropShadow" result="shape"/>
</filter>
<filter id="filter1_d" x="52" y="348.598" width="275.897" height="38.4021" filterUnits="userSpaceOnUse" color-interpolation-filters="sRGB">
<feFlood flood-opacity="0" result="BackgroundImageFix"/>
<feColorMatrix in="SourceAlpha" type="matrix" values="0 0 0 0 0 0 0 0 0 0 0 0 0 0 0 0 0 0 127 0" result="hardAlpha"/>
<feOffset dy="4"/>
<feGaussianBlur stdDeviation="0.5"/>
<feComposite in2="hardAlpha" operator="out"/>
<feColorMatrix type="matrix" values="0 0 0 0 0.0784314 0 0 0 0 0.0784314 0 0 0 0 0.0784314 0 0 0 0.5 0"/>
<feBlend mode="normal" in2="BackgroundImageFix" result="effect1_dropShadow"/>
<feBlend mode="normal" in="SourceGraphic" in2="effect1_dropShadow" result="shape"/>
</filter>
<filter id="filter2_d" x="52" y="164.896" width="275.897" height="93.4227" filterUnits="userSpaceOnUse" color-interpolation-filters="sRGB">
<feFlood flood-opacity="0" result="BackgroundImageFix"/>
<feColorMatrix in="SourceAlpha" type="matrix" values="0 0 0 0 0 0 0 0 0 0 0 0 0 0 0 0 0 0 127 0" result="hardAlpha"/>
<feOffset dy="4"/>
<feGaussianBlur stdDeviation="0.5"/>
<feComposite in2="hardAlpha" operator="out"/>
<feColorMatrix type="matrix" values="0 0 0 0 0.0784314 0 0 0 0 0.0784314 0 0 0 0 0.0784314 0 0 0 0.5 0"/>
<feBlend mode="normal" in2="BackgroundImageFix" result="effect1_dropShadow"/>
<feBlend mode="normal" in="SourceGraphic" in2="effect1_dropShadow" result="shape"/>
</filter>
<filter id="filter3_d" x="156.588" y="205.597" width="66.7216" height="35.3608" filterUnits="userSpaceOnUse" color-interpolation-filters="sRGB">
<feFlood flood-opacity="0" result="BackgroundImageFix"/>
<feColorMatrix in="SourceAlpha" type="matrix" values="0 0 0 0 0 0 0 0 0 0 0 0 0 0 0 0 0 0 127 0" result="hardAlpha"/>
<feOffset dy="1"/>
<feComposite in2="hardAlpha" operator="out"/>
<feColorMatrix type="matrix" values="0 0 0 0 0.678431 0 0 0 0 0.709804 0 0 0 0 0.741176 0 0 0 1 0"/>
<feBlend mode="normal" in2="BackgroundImageFix" result="effect1_dropShadow"/>
<feBlend mode="normal" in="SourceGraphic" in2="effect1_dropShadow" result="shape"/>
</filter>
<filter id="filter4_d" x="156.588" y="205.597" width="66.7216" height="35.3608" filterUnits="userSpaceOnUse" color-interpolation-filters="sRGB">
<feFlood flood-opacity="0" result="BackgroundImageFix"/>
<feColorMatrix in="SourceAlpha" type="matrix" values="0 0 0 0 0 0 0 0 0 0 0 0 0 0 0 0 0 0 127 0" result="hardAlpha"/>
<feOffset dy="1"/>
<feComposite in2="hardAlpha" operator="out"/>
<feColorMatrix type="matrix" values="0 0 0 0 0.678431 0 0 0 0 0.709804 0 0 0 0 0.741176 0 0 0 1 0"/>
<feBlend mode="normal" in2="BackgroundImageFix" result="effect1_dropShadow"/>
<feBlend mode="normal" in="SourceGraphic" in2="effect1_dropShadow" result="shape"/>
</filter>
<filter id="filter5_d" x="103.665" y="300.474" width="66.1031" height="39.7423" filterUnits="userSpaceOnUse" color-interpolation-filters="sRGB">
<feFlood flood-opacity="0" result="BackgroundImageFix"/>
<feColorMatrix in="SourceAlpha" type="matrix" values="0 0 0 0 0 0 0 0 0 0 0 0 0 0 0 0 0 0 127 0" result="hardAlpha"/>
<feOffset dy="3"/>
<feComposite in2="hardAlpha" operator="out"/>
<feColorMatrix type="matrix" values="0 0 0 0 0.678431 0 0 0 0 0.709804 0 0 0 0 0.741176 0 0 0 1 0"/>
<feBlend mode="normal" in2="BackgroundImageFix" result="effect1_dropShadow"/>
<feBlend mode="normal" in="SourceGraphic" in2="effect1_dropShadow" result="shape"/>
</filter>
<filter id="filter6_d" x="103.665" y="300.474" width="66.1031" height="39.7423" filterUnits="userSpaceOnUse" color-interpolation-filters="sRGB">
<feFlood flood-opacity="0" result="BackgroundImageFix"/>
<feColorMatrix in="SourceAlpha" type="matrix" values="0 0 0 0 0 0 0 0 0 0 0 0 0 0 0 0 0 0 127 0" result="hardAlpha"/>
<feOffset dy="3"/>
<feComposite in2="hardAlpha" operator="out"/>
<feColorMatrix type="matrix" values="0 0 0 0 0.678431 0 0 0 0 0.709804 0 0 0 0 0.741176 0 0 0 1 0"/>
<feBlend mode="normal" in2="BackgroundImageFix" result="effect1_dropShadow"/>
<feBlend mode="normal" in="SourceGraphic" in2="effect1_dropShadow" result="shape"/>
</filter>
<filter id="filter7_d" x="183.129" y="300.474" width="93.1031" height="39.7423" filterUnits="userSpaceOnUse" color-interpolation-filters="sRGB">
<feFlood flood-opacity="0" result="BackgroundImageFix"/>
<feColorMatrix in="SourceAlpha" type="matrix" values="0 0 0 0 0 0 0 0 0 0 0 0 0 0 0 0 0 0 127 0" result="hardAlpha"/>
<feOffset dy="3"/>
<feComposite in2="hardAlpha" operator="out"/>
<feColorMatrix type="matrix" values="0 0 0 0 0.678431 0 0 0 0 0.709804 0 0 0 0 0.741176 0 0 0 1 0"/>
<feBlend mode="normal" in2="BackgroundImageFix" result="effect1_dropShadow"/>
<feBlend mode="normal" in="SourceGraphic" in2="effect1_dropShadow" result="shape"/>
</filter>
<clipPath id="clip0">
<rect width="380" height="440" rx="4" fill="white"/>
</clipPath>
</defs>
</svg>
