<svg width="389" height="471" viewBox="0 0 389 471" fill="none" xmlns="http://www.w3.org/2000/svg">
<g filter="url(#filter0_d)">
<rect x="28" y="156" width="328" height="54" rx="16" fill="#C74647"/>
<path d="M130.457 185.598C130.109 186.846 129.467 187.758 128.531 188.334C127.607 188.898 126.515 189.18 125.255 189.18C124.043 189.18 122.999 188.94 122.123 188.46C121.259 187.968 120.593 187.266 120.125 186.354C119.657 185.442 119.423 184.344 119.423 183.06C119.423 181.776 119.657 180.678 120.125 179.766C120.593 178.854 121.259 178.158 122.123 177.678C122.999 177.186 124.037 176.94 125.237 176.94C126.473 176.94 127.553 177.204 128.477 177.732C129.401 178.26 130.013 179.088 130.313 180.216L127.595 181.314C127.427 180.582 127.151 180.078 126.767 179.802C126.395 179.514 125.921 179.37 125.345 179.37C124.481 179.37 123.803 179.682 123.311 180.306C122.831 180.93 122.591 181.848 122.591 183.06C122.591 184.272 122.819 185.19 123.275 185.814C123.743 186.438 124.439 186.75 125.363 186.75C125.939 186.75 126.425 186.594 126.821 186.282C127.229 185.958 127.505 185.466 127.649 184.806L130.457 185.598ZM138.149 177.12C139.565 177.12 140.663 177.45 141.443 178.11C142.235 178.77 142.631 179.658 142.631 180.774C142.631 181.662 142.421 182.394 142.001 182.97C141.593 183.534 141.005 183.948 140.237 184.212L143.333 189H139.913L137.375 184.662H135.521V189H132.479V177.12H138.149ZM137.717 182.466C138.317 182.466 138.767 182.346 139.067 182.106C139.367 181.866 139.517 181.482 139.517 180.954C139.517 179.958 138.917 179.46 137.717 179.46H135.521V182.466H137.717ZM145.189 189V177.12H154.441V179.514H148.285V181.926H153.181V184.176H148.285V186.606H154.675V189H145.189ZM155.603 189L159.779 177.12H163.487L167.645 189H164.459L163.649 186.318H159.545L158.717 189H155.603ZM161.093 181.35L160.193 184.212H163.001L162.137 181.368L161.615 179.496H161.579L161.093 181.35ZM174.996 177.12C176.412 177.12 177.51 177.45 178.29 178.11C179.082 178.77 179.478 179.658 179.478 180.774C179.478 181.662 179.268 182.394 178.848 182.97C178.44 183.534 177.852 183.948 177.084 184.212L180.18 189H176.76L174.222 184.662H172.368V189H169.326V177.12H174.996ZM174.564 182.466C175.164 182.466 175.614 182.346 175.914 182.106C176.214 181.866 176.364 181.482 176.364 180.954C176.364 179.958 175.764 179.46 174.564 179.46H172.368V182.466H174.564ZM192.941 177.12C194.381 177.12 195.503 177.468 196.307 178.164C197.123 178.848 197.531 179.82 197.531 181.08C197.531 182.34 197.123 183.318 196.307 184.014C195.503 184.698 194.381 185.04 192.941 185.04H190.583V189H187.487V177.12H192.941ZM192.455 182.718C193.763 182.718 194.417 182.172 194.417 181.08C194.417 179.988 193.763 179.442 192.455 179.442H190.583V182.718H192.455ZM197.355 189L201.531 177.12H205.239L209.397 189H206.211L205.401 186.318H201.297L200.469 189H197.355ZM202.845 181.35L201.945 184.212H204.753L203.889 181.368L203.367 179.496H203.331L202.845 181.35ZM216.749 177.12C218.165 177.12 219.263 177.45 220.043 178.11C220.835 178.77 221.231 179.658 221.231 180.774C221.231 181.662 221.021 182.394 220.601 182.97C220.193 183.534 219.605 183.948 218.837 184.212L221.933 189H218.513L215.975 184.662H214.121V189H211.079V177.12H216.749ZM216.317 182.466C216.917 182.466 217.367 182.346 217.667 182.106C217.967 181.866 218.117 181.482 218.117 180.954C218.117 179.958 217.517 179.46 216.317 179.46H214.121V182.466H216.317ZM233.639 177.12V179.514H229.769V189H226.673V179.514H222.785V177.12H233.639ZM238.804 177.12V189H235.708V177.12H238.804ZM246.779 177.12C248.639 177.12 250.061 177.636 251.045 178.668C252.041 179.7 252.539 181.164 252.539 183.06C252.539 184.956 252.041 186.42 251.045 187.452C250.061 188.484 248.639 189 246.779 189H241.739V177.12H246.779ZM246.473 186.66C247.481 186.66 248.213 186.36 248.669 185.76C249.137 185.148 249.371 184.248 249.371 183.06C249.371 181.872 249.137 180.978 248.669 180.378C248.213 179.766 247.481 179.46 246.473 179.46H244.835V186.66H246.473ZM253.277 189L257.453 177.12H261.161L265.319 189H262.133L261.323 186.318H257.219L256.391 189H253.277ZM258.767 181.35L257.867 184.212H260.675L259.811 181.368L259.289 179.496H259.253L258.767 181.35Z" fill="#F8F9FA"/>
<rect x="29" y="157" width="326" height="52" rx="15" stroke="#672829" stroke-width="2"/>
</g>
<g filter="url(#filter1_d)">
<rect x="28" y="230" width="328" height="54" rx="16" fill="#F8F9FA"/>
<path d="M123.188 263V251.12H128.966C130.43 251.12 131.51 251.396 132.206 251.948C132.902 252.5 133.25 253.292 133.25 254.324C133.25 254.996 133.052 255.578 132.656 256.07C132.26 256.562 131.654 256.868 130.838 256.988V257.006C131.75 257.126 132.428 257.444 132.872 257.96C133.328 258.464 133.556 259.076 133.556 259.796C133.556 260.816 133.19 261.608 132.458 262.172C131.738 262.724 130.664 263 129.236 263H123.188ZM126.176 255.98H128.426C129.53 255.98 130.082 255.548 130.082 254.684C130.082 253.82 129.53 253.388 128.426 253.388H126.176V255.98ZM126.176 260.822H128.714C129.83 260.822 130.388 260.378 130.388 259.49C130.388 258.626 129.83 258.194 128.714 258.194H126.176V260.822ZM146.179 251.12V258.158C146.179 261.506 144.409 263.18 140.869 263.18C139.129 263.18 137.809 262.766 136.909 261.938C136.009 261.098 135.559 259.838 135.559 258.158V251.12H138.673V258.212C138.673 259.904 139.405 260.75 140.869 260.75C142.345 260.75 143.083 259.904 143.083 258.212V251.12H146.179ZM153.516 250.94C154.62 250.94 155.592 251.114 156.432 251.462C157.284 251.798 158.022 252.296 158.646 252.956L157.152 254.954C156.636 254.414 156.078 254.012 155.478 253.748C154.89 253.472 154.218 253.334 153.462 253.334C152.802 253.334 152.328 253.442 152.04 253.658C151.752 253.874 151.608 254.138 151.608 254.45C151.608 254.702 151.722 254.918 151.95 255.098C152.19 255.266 152.574 255.41 153.102 255.53L155.1 255.98C156.288 256.256 157.158 256.658 157.71 257.186C158.262 257.714 158.538 258.416 158.538 259.292C158.538 260.132 158.322 260.846 157.89 261.434C157.458 262.01 156.864 262.448 156.108 262.748C155.352 263.036 154.488 263.18 153.516 263.18C152.316 263.18 151.218 262.988 150.222 262.604C149.226 262.208 148.434 261.692 147.846 261.056L149.34 258.986C149.784 259.502 150.384 259.934 151.14 260.282C151.896 260.618 152.676 260.786 153.48 260.786C154.728 260.786 155.352 260.42 155.352 259.688C155.352 259.436 155.256 259.226 155.064 259.058C154.884 258.878 154.548 258.728 154.056 258.608L151.86 258.122C151.188 257.978 150.588 257.774 150.06 257.51C149.544 257.246 149.136 256.898 148.836 256.466C148.536 256.022 148.386 255.47 148.386 254.81C148.386 254.066 148.59 253.406 148.998 252.83C149.406 252.242 149.994 251.78 150.762 251.444C151.53 251.108 152.448 250.94 153.516 250.94ZM171.304 259.598C170.956 260.846 170.314 261.758 169.378 262.334C168.454 262.898 167.362 263.18 166.102 263.18C164.89 263.18 163.846 262.94 162.97 262.46C162.106 261.968 161.44 261.266 160.972 260.354C160.504 259.442 160.27 258.344 160.27 257.06C160.27 255.776 160.504 254.678 160.972 253.766C161.44 252.854 162.106 252.158 162.97 251.678C163.846 251.186 164.884 250.94 166.084 250.94C167.32 250.94 168.4 251.204 169.324 251.732C170.248 252.26 170.86 253.088 171.16 254.216L168.442 255.314C168.274 254.582 167.998 254.078 167.614 253.802C167.242 253.514 166.768 253.37 166.192 253.37C165.328 253.37 164.65 253.682 164.158 254.306C163.678 254.93 163.438 255.848 163.438 257.06C163.438 258.272 163.666 259.19 164.122 259.814C164.59 260.438 165.286 260.75 166.21 260.75C166.786 260.75 167.272 260.594 167.668 260.282C168.076 259.958 168.352 259.466 168.496 258.806L171.304 259.598ZM172.084 263L176.26 251.12H179.968L184.126 263H180.94L180.13 260.318H176.026L175.198 263H172.084ZM177.574 255.35L176.674 258.212H179.482L178.618 255.368L178.096 253.496H178.06L177.574 255.35ZM191.478 251.12C192.894 251.12 193.992 251.45 194.772 252.11C195.564 252.77 195.96 253.658 195.96 254.774C195.96 255.662 195.75 256.394 195.33 256.97C194.922 257.534 194.334 257.948 193.566 258.212L196.662 263H193.242L190.704 258.662H188.85V263H185.808V251.12H191.478ZM191.046 256.466C191.646 256.466 192.096 256.346 192.396 256.106C192.696 255.866 192.846 255.482 192.846 254.954C192.846 253.958 192.246 253.46 191.046 253.46H188.85V256.466H191.046ZM208.612 250.94C209.716 250.94 210.688 251.114 211.528 251.462C212.38 251.798 213.118 252.296 213.742 252.956L212.248 254.954C211.732 254.414 211.174 254.012 210.574 253.748C209.986 253.472 209.314 253.334 208.558 253.334C207.898 253.334 207.424 253.442 207.136 253.658C206.848 253.874 206.704 254.138 206.704 254.45C206.704 254.702 206.818 254.918 207.046 255.098C207.286 255.266 207.67 255.41 208.198 255.53L210.196 255.98C211.384 256.256 212.254 256.658 212.806 257.186C213.358 257.714 213.634 258.416 213.634 259.292C213.634 260.132 213.418 260.846 212.986 261.434C212.554 262.01 211.96 262.448 211.204 262.748C210.448 263.036 209.584 263.18 208.612 263.18C207.412 263.18 206.314 262.988 205.318 262.604C204.322 262.208 203.53 261.692 202.942 261.056L204.436 258.986C204.88 259.502 205.48 259.934 206.236 260.282C206.992 260.618 207.772 260.786 208.576 260.786C209.824 260.786 210.448 260.42 210.448 259.688C210.448 259.436 210.352 259.226 210.16 259.058C209.98 258.878 209.644 258.728 209.152 258.608L206.956 258.122C206.284 257.978 205.684 257.774 205.156 257.51C204.64 257.246 204.232 256.898 203.932 256.466C203.632 256.022 203.482 255.47 203.482 254.81C203.482 254.066 203.686 253.406 204.094 252.83C204.502 252.242 205.09 251.78 205.858 251.444C206.626 251.108 207.544 250.94 208.612 250.94ZM214.557 263L218.733 251.12H222.441L226.599 263H223.413L222.603 260.318H218.499L217.671 263H214.557ZM220.047 255.35L219.147 258.212H221.955L221.091 255.368L220.569 253.496H220.533L220.047 255.35ZM231.377 260.606H237.335V263H228.281V251.12H231.377V260.606ZM238.167 263L242.343 251.12H246.051L250.209 263H247.023L246.213 260.318H242.109L241.281 263H238.167ZM243.657 255.35L242.757 258.212H245.565L244.701 255.368L244.179 253.496H244.143L243.657 255.35ZM256.482 250.94C257.586 250.94 258.558 251.114 259.398 251.462C260.25 251.798 260.988 252.296 261.612 252.956L260.118 254.954C259.602 254.414 259.044 254.012 258.444 253.748C257.856 253.472 257.184 253.334 256.428 253.334C255.768 253.334 255.294 253.442 255.006 253.658C254.718 253.874 254.574 254.138 254.574 254.45C254.574 254.702 254.688 254.918 254.916 255.098C255.156 255.266 255.54 255.41 256.068 255.53L258.066 255.98C259.254 256.256 260.124 256.658 260.676 257.186C261.228 257.714 261.504 258.416 261.504 259.292C261.504 260.132 261.288 260.846 260.856 261.434C260.424 262.01 259.83 262.448 259.074 262.748C258.318 263.036 257.454 263.18 256.482 263.18C255.282 263.18 254.184 262.988 253.188 262.604C252.192 262.208 251.4 261.692 250.812 261.056L252.306 258.986C252.75 259.502 253.35 259.934 254.106 260.282C254.862 260.618 255.642 260.786 256.446 260.786C257.694 260.786 258.318 260.42 258.318 259.688C258.318 259.436 258.222 259.226 258.03 259.058C257.85 258.878 257.514 258.728 257.022 258.608L254.826 258.122C254.154 257.978 253.554 257.774 253.026 257.51C252.51 257.246 252.102 256.898 251.802 256.466C251.502 256.022 251.352 255.47 251.352 254.81C251.352 254.066 251.556 253.406 251.964 252.83C252.372 252.242 252.96 251.78 253.728 251.444C254.496 251.108 255.414 250.94 256.482 250.94Z" fill="#272727"/>
<rect x="29" y="231" width="326" height="52" rx="15" stroke="#ADB5BD" stroke-width="2"/>
</g>
<g clip-path="url(#clip0)">
<path d="M68.2846 80.6149C68.344 80.7604 68.4026 80.8989 68.461 81.0288L68.4661 81.0402L68.466 81.0403C74.0588 94.0648 83.5975 106.515 95.4491 114.274C96.2422 114.781 96.481 115.817 95.9622 116.621C95.4255 117.453 94.3527 117.597 93.591 117.113L93.5859 117.11L93.586 117.11C81.1205 109.051 71.1425 95.9986 65.3062 82.4158C65.0094 81.7346 64.708 80.9336 64.4175 80.1324C63.2704 79.7231 62.0535 79.0399 60.7629 78.1733L60.7549 78.1679L60.7549 78.1678C57.853 76.1644 55.185 72.9844 52.7925 69.1083C50.3953 65.2247 48.249 60.6001 46.4071 55.6603L46.4064 55.6586C40.9671 40.9596 38.0708 23.2601 39.0042 13.5144L68.2846 80.6149ZM68.2846 80.6149C69.1566 80.5006 69.9326 80.2188 70.6093 79.8339L70.6183 79.8288L70.6272 79.8234C72.054 78.9589 73.066 77.5357 73.7034 75.8879L73.7043 75.8855C74.5845 73.5865 74.7828 70.8351 74.4584 68.3079L74.4584 68.3079L74.4574 68.3005C74.1896 66.3688 73.5747 64.4952 72.6466 63.2329C71.892 62.1602 70.9053 61.4646 69.7636 61.2502L69.7604 61.2496C68.517 61.0215 67.1703 61.4197 65.8342 62.6123C63.5311 64.5934 62.6628 67.4735 62.6049 70.5495L62.6049 70.5505C62.5755 72.2316 62.7982 73.9699 63.1513 75.648C63.0059 75.5564 62.8579 75.4606 62.7072 75.3606C60.1709 73.5745 57.7739 70.7027 55.5667 67.0738C53.3616 63.4486 51.371 59.1095 49.6333 54.4401C44.348 40.1975 41.546 23.0573 42.4273 13.8514L42.4273 13.8513C42.5106 12.9797 41.8405 12.0813 40.8822 11.9849C39.9216 11.8882 39.0879 12.6393 39.0042 13.5142L68.2846 80.6149ZM68.8548 76.9109C68.3821 77.1668 67.8054 77.3014 67.0905 77.2453C66.4626 75.1584 66.0092 72.745 66.0443 70.6113C66.0818 68.4048 66.6362 66.4743 68.0838 65.1593C68.6209 64.7387 68.9578 64.6202 69.169 64.6192C69.4021 64.6994 69.6541 64.8986 69.9318 65.3019C70.464 66.1106 70.8523 67.3819 71.0447 68.7885C71.3041 70.8074 71.149 72.9793 70.4922 74.6817C70.0973 75.6793 69.5499 76.4797 68.8548 76.9109Z" fill="white" stroke="white" stroke-width="1.5"/>
<path d="M78.2694 110.809L78.2619 110.809L78.2543 110.809C77.3622 110.853 76.5677 111.585 76.5996 112.525C76.6202 113.457 77.3682 114.276 78.3625 114.235C83.5459 114.127 89.1533 115.014 93.7381 117.339L93.7584 117.349L93.7793 117.358C94.5878 117.708 95.6074 117.424 96.0441 116.587L96.053 116.57L96.061 116.552C96.4485 115.706 96.1801 114.647 95.2673 114.237C90.1284 111.67 83.9373 110.647 78.2694 110.809Z" fill="white" stroke="white" stroke-width="1.5"/>
<path d="M89.2272 99.076C89.7639 99.0499 90.2075 99.4948 90.2262 99.9771C90.353 105.194 91.452 111.15 95.2211 114.972L95.7551 114.445C95.7525 114.442 95.7499 114.44 95.7473 114.437M89.2272 99.076L95.7386 116.873C96.417 116.223 96.433 115.097 95.7473 114.437M89.2272 99.076C88.6914 99.1021 88.2686 99.5403 88.2793 100.102L89.2272 99.076ZM95.7473 114.437C92.1942 110.827 91.1016 105.127 90.976 99.9589L90.9761 99.9589L90.9756 99.948C90.9412 99.0619 90.1569 98.2799 89.1908 98.3268L89.1907 98.3269C88.2512 98.3727 87.5109 99.1477 87.5295 100.116L87.5295 100.116L87.5296 100.121C87.6767 105.799 88.9975 112.497 93.3113 116.88L93.3212 116.89L93.3314 116.9C94.0179 117.547 95.0882 117.497 95.7383 116.874L95.7473 114.437Z" fill="white" stroke="white" stroke-width="1.5"/>
</g>
<g clip-path="url(#clip1)">
<path d="M300.716 352.431C300.7 352.275 300.682 352.125 300.662 351.984L300.66 351.972L300.66 351.972C298.905 337.907 293.199 323.297 283.969 312.552C283.348 311.845 283.406 310.782 284.128 310.154C284.874 309.505 285.945 309.664 286.542 310.34L286.546 310.345L286.546 310.345C296.283 321.549 302.243 336.859 304.078 351.528C304.174 352.265 304.241 353.118 304.297 353.969C305.285 354.68 306.265 355.675 307.264 356.866L307.27 356.873L307.27 356.873C309.501 359.604 311.181 363.4 312.403 367.788C313.627 372.184 314.405 377.223 314.802 382.48L314.802 382.482C315.945 398.113 313.812 415.921 310.208 425.024L300.716 352.431ZM300.716 352.431C299.847 352.299 299.023 352.354 298.266 352.536L298.256 352.538L298.246 352.541C296.635 352.975 295.268 354.061 294.198 355.467L294.196 355.469C292.712 357.433 291.757 360.021 291.367 362.539L291.367 362.539L291.366 362.547C291.087 364.477 291.157 366.447 291.698 367.918C292.125 369.158 292.88 370.1 293.917 370.623L293.92 370.625C295.051 371.189 296.456 371.181 298.07 370.406C300.833 369.142 302.467 366.617 303.377 363.678L303.377 363.677C303.872 362.07 304.141 360.338 304.268 358.628C304.382 358.757 304.498 358.89 304.615 359.028C306.555 361.448 308.06 364.873 309.173 368.972C310.284 373.067 310.992 377.788 311.364 382.756C312.486 397.906 310.417 415.15 307.014 423.749L307.013 423.75C306.691 424.564 307.086 425.613 307.979 425.972C308.875 426.331 309.885 425.841 310.208 425.024L300.716 352.431ZM299.14 355.831C299.665 355.716 300.256 355.747 300.927 356C300.951 358.179 300.716 360.623 300.09 362.663C299.441 364.773 298.372 366.473 296.617 367.334C295.984 367.589 295.627 367.61 295.424 367.552C295.222 367.41 295.036 367.149 294.881 366.684C294.594 365.759 294.574 364.43 294.78 363.026C295.092 361.014 295.844 358.971 296.948 357.518C297.604 356.669 298.352 356.052 299.14 355.831Z" fill="white" stroke="white" stroke-width="1.5"/>
<path d="M299.51 320.652L299.518 320.654L299.525 320.656C300.394 320.862 301.361 320.379 301.591 319.467C301.83 318.566 301.339 317.571 300.372 317.335C295.363 315.999 290.223 313.589 286.464 310.083L286.447 310.067L286.43 310.053C285.75 309.492 284.692 309.481 284.04 310.164L284.026 310.178L284.014 310.193C283.406 310.898 283.37 311.99 284.133 312.637C288.357 316.531 294.02 319.233 299.51 320.652Z" fill="white" stroke="white" stroke-width="1.5"/>
<path d="M285.725 328.88C285.202 328.756 284.9 328.205 285.015 327.737C286.343 322.69 286.941 316.663 284.382 311.945L283.722 312.302C283.724 312.306 283.726 312.309 283.728 312.312M285.725 328.88L284.413 309.974C283.58 310.41 283.252 311.488 283.728 312.312M285.725 328.88C286.247 329.003 286.775 328.7 286.92 328.158L285.725 328.88ZM283.728 312.312C286.138 316.767 285.605 322.546 284.29 327.546L284.29 327.546L284.287 327.556C284.074 328.417 284.611 329.386 285.552 329.61L285.552 329.61C286.467 329.826 287.394 329.288 287.645 328.352L287.645 328.352L287.646 328.347C289.082 322.852 289.673 316.051 286.746 310.642L286.74 310.63L286.732 310.618C286.253 309.805 285.211 309.556 284.413 309.974L283.728 312.312Z" fill="white" stroke="white" stroke-width="1.5"/>
</g>
<g clip-path="url(#clip2)">
<path d="M311.812 67.9007C313.298 67.4874 315.093 67.1874 316.993 67.045C316.942 67.116 316.89 67.1876 316.837 67.2596C315.366 69.2791 313.602 71.7002 312.813 74.2699L312.811 74.2757C311.746 77.8487 312.299 80.6845 313.898 82.8314L313.898 82.8319C316.128 85.821 320.489 87.1911 324.665 86.8917C328.814 86.6106 333.03 84.7592 335.174 81.4024C336.679 79.0906 337.149 76.0893 335.973 72.5223C334.639 68.403 331.435 65.9209 327.607 64.5836C326.586 64.2088 325.556 63.9584 324.511 63.7681C325.202 63.0399 325.9 62.3073 326.605 61.5695C330.074 58.1688 334.057 55.0451 338.136 52.3974L338.136 52.3975L338.145 52.392C343.472 48.8327 349.193 46.2925 355.418 44.7961L355.448 44.7888L355.478 44.7791C356.375 44.4828 356.974 43.5271 356.75 42.5595L356.75 42.5585C356.517 41.556 355.518 41.0135 354.568 41.1872L354.547 41.191L354.526 41.1959C347.884 42.8014 341.75 45.4856 336.071 49.2923L336.069 49.2942C331.867 52.1371 327.625 55.3411 324.003 58.988L323.997 58.9941C322.615 60.4188 321.248 61.8344 319.942 63.3014C316.648 63.239 313.402 63.6738 310.833 64.3457L310.833 64.3456L310.821 64.349C302.041 66.8026 294.289 73.0712 287.816 80.5966C281.338 88.1284 276.089 96.9801 272.325 104.711C271.868 105.613 272.23 106.686 273.14 107.136L273.141 107.136C274.08 107.598 275.146 107.162 275.587 106.3L275.59 106.294L275.593 106.287C279.205 98.8801 284.191 90.3997 290.325 83.2063C296.467 76.0045 303.707 70.1553 311.812 67.9007ZM311.812 67.9007L311.611 67.1781M311.812 67.9007L311.611 67.1781M311.611 67.1781C294.992 71.8008 282.176 91.0725 274.919 105.959L317.05 66.9674L317.052 66.9642C317.195 66.7415 317.351 66.4983 317.526 66.2582C315.368 66.3822 313.306 66.707 311.611 67.1781ZM320.059 69.0593L320.064 69.0523L320.069 69.0453C320.532 68.3376 321.035 67.6838 321.577 67.0811C323.233 67.1955 324.868 67.4988 326.39 68.0537L326.399 68.0569L326.408 68.0598C329.257 69.0203 331.556 70.7892 332.513 73.6994C333.292 76.1002 332.978 77.9699 332.066 79.4035L332.065 79.4034L332.059 79.4134C330.642 81.7186 327.59 82.9995 324.399 83.2013L324.399 83.2011L324.386 83.2022C321.277 83.4555 318.285 82.5763 316.801 80.5853C315.915 79.3956 315.585 77.6864 316.301 75.3094C316.643 74.2501 317.224 73.2014 317.907 72.1506C318.337 71.491 318.782 70.8658 319.228 70.2408C319.506 69.8497 319.785 69.4587 320.059 69.0593Z" fill="white" stroke="white" stroke-width="1.5"/>
<path d="M274.349 104.923C274.381 104.733 274.417 104.533 274.456 104.322L274.458 104.315L274.459 104.308C274.52 103.94 274.584 103.599 274.649 103.259C274.696 103.01 274.744 102.761 274.789 102.502C274.89 101.931 274.974 101.351 274.968 100.839C274.966 95.574 274.904 89.1101 273.19 83.9131C272.892 82.9622 271.834 82.4404 270.883 82.7635C269.966 83.0745 269.365 84.0526 269.73 85.0952C271.206 89.6298 271.261 95.3406 271.31 100.407C271.311 100.561 271.313 100.714 271.314 100.866C271.303 101.246 271.22 101.779 271.101 102.414C271.054 102.66 271.001 102.926 270.947 103.198C270.868 103.596 270.787 104.005 270.72 104.379L270.718 104.39L270.717 104.401C270.552 105.522 270.488 106.693 270.836 107.66C271.111 108.54 272.138 109.2 273.528 109.003L273.537 109.002L273.547 109C274.443 108.851 275.813 108.285 276.927 107.785C277.501 107.528 278.035 107.274 278.446 107.076C278.598 107.004 278.728 106.941 278.836 106.889C279.035 106.792 279.159 106.732 279.204 106.713L279.206 106.713C282.873 105.145 285.905 103.983 289.579 105.181L289.594 105.186L289.61 105.19C290.557 105.455 291.506 104.895 291.873 104.107L291.893 104.063L291.908 104.017C292.206 103.073 291.684 101.99 290.71 101.709C285.928 100.173 281.891 101.517 277.723 103.336L277.647 103.369L277.581 103.418C277.585 103.415 277.584 103.415 277.578 103.419C277.567 103.426 277.538 103.444 277.483 103.475C277.409 103.517 277.308 103.572 277.185 103.637C276.939 103.767 276.611 103.933 276.238 104.11C275.657 104.387 274.983 104.685 274.349 104.923Z" fill="white" stroke="white" stroke-width="1.5"/>
</g>
<g clip-path="url(#clip3)">
<path d="M118.952 409.556C104.617 406.383 87.2589 397.424 74.4401 384.846C66.1884 376.751 59.7734 367.134 57.2276 356.57C54.6765 345.984 56.0257 334.503 63.2101 322.749M118.952 409.556L129.946 407.036C122.705 407.151 113.412 404.785 103.942 400.441C94.4815 396.101 84.9029 389.814 77.0894 382.148L76.5642 382.683L77.0894 382.148C69.3423 374.547 63.3646 365.606 60.9785 355.874C58.5981 346.164 59.7775 335.613 66.4358 324.72L66.4365 324.719C66.9786 323.828 66.698 322.665 65.8105 322.12L65.8079 322.119C64.9178 321.577 63.7539 321.857 63.2101 322.749M118.952 409.556C118.291 409.69 117.495 409.834 116.595 409.997L116.524 410.01C115.239 410.242 113.763 410.509 112.216 410.832C109.077 411.486 105.595 412.38 102.782 413.711C100.638 414.726 98.8133 416.024 97.6894 417.682C96.5432 419.373 96.1637 421.384 96.8319 423.687L97.5522 423.479L96.8319 423.687C98.0629 427.931 102.432 430.207 107.875 431.091L107.875 431.091C113.773 432.049 121.281 431.514 127.926 430.426C134.56 429.341 140.467 427.683 143.152 426.325L143.153 426.324C144.084 425.853 144.459 424.717 143.986 423.783C143.516 422.853 142.38 422.48 141.447 422.952C139.078 424.149 133.59 425.706 127.258 426.735C120.939 427.762 113.913 428.242 108.481 427.36C106.352 427.013 104.518 426.486 103.126 425.705C101.748 424.931 100.84 423.933 100.463 422.633L100.463 422.633C100.094 421.359 100.363 420.367 101.038 419.508C101.746 418.605 102.924 417.827 104.398 417.13L104.399 417.129C106.97 415.912 110.216 415.08 113.249 414.459C114.714 414.158 116.117 413.909 117.358 413.689L117.474 413.669C118.733 413.445 119.84 413.247 120.646 413.055L120.646 413.055C121.285 412.903 122.525 412.631 123.928 412.323C124.652 412.164 125.419 411.996 126.17 411.829C127.268 411.586 128.329 411.347 129.154 411.15C129.566 411.052 129.925 410.963 130.202 410.889C130.448 410.823 130.706 410.75 130.857 410.678M118.952 409.556L130.857 410.678M63.2101 322.749L63.85 323.14L63.2094 322.75C63.2096 322.749 63.2099 322.749 63.2101 322.749ZM130.857 410.678C130.857 410.679 130.857 410.679 130.857 410.679L130.536 410.001L130.857 410.678ZM130.857 410.678C131.429 410.408 131.746 409.989 131.886 409.558M130.857 410.678L131.886 409.558M131.886 409.558C132.016 409.157 131.975 408.801 131.95 408.642M131.886 409.558L131.95 408.642M131.95 408.642C131.926 408.498 131.843 408.105 131.548 407.736C131.225 407.332 130.699 407.024 129.946 407.036L131.95 408.642Z" fill="white" stroke="white" stroke-width="1.5"/>
<path d="M76.3223 352.615C75.8412 353.019 75.1221 352.959 74.7141 352.477C70.0654 346.958 67.001 339.975 65.4846 332.946M76.3223 352.615L63.3589 321.973C62.5248 323.11 61.2087 325.43 60.2755 327.075C59.794 327.924 59.4145 328.593 59.2557 328.827C54.5429 335.78 49.0907 341.608 43.4392 347.65C42.6786 348.463 41.9143 349.28 41.1477 350.104C40.7204 350.567 40.7457 351.29 41.2059 351.718C41.6661 352.147 42.3877 352.119 42.8164 351.659C43.5564 350.864 44.2942 350.075 45.0286 349.289C50.789 343.129 56.3422 337.19 61.1412 330.108C61.4096 329.715 62.5917 327.77 63.6566 326.006C63.6934 326.289 63.7298 326.571 63.7663 326.855C63.7811 326.97 63.7959 327.086 63.8108 327.201M76.3223 352.615C76.8045 352.207 76.8644 351.488 76.4604 351.007C72.0453 345.771 69.1537 339.134 67.7156 332.466C67.2805 330.445 67.0196 328.408 66.7584 326.367C66.6291 325.357 66.4997 324.346 66.3491 323.337M76.3223 352.615L66.3491 323.337M65.4846 332.946C65.0433 330.902 64.7783 328.842 64.5127 326.779C64.4866 326.576 64.4605 326.373 64.4342 326.17C64.2305 326.507 64.0201 326.855 63.8108 327.201M65.4846 332.946L64.7515 333.104M65.4846 332.946L64.7515 333.105C64.7515 333.104 64.7515 333.104 64.7515 333.104M63.8108 327.201C62.8964 328.712 62.0012 330.178 61.7613 330.53C56.9273 337.663 51.3326 343.646 45.5764 349.801C44.8417 350.587 44.1043 351.376 43.3656 352.17L43.3652 352.17C42.656 352.931 41.46 352.98 40.6947 352.267C39.9305 351.555 39.891 350.359 40.5968 349.595L40.5986 349.593C41.3668 348.767 42.1319 347.949 42.8925 347.136C48.5475 341.091 53.9573 335.307 58.6348 328.407L58.6349 328.406C58.7764 328.198 59.1255 327.582 59.5887 326.766C59.8203 326.357 60.0805 325.899 60.3574 325.415C61.1616 324.012 62.0916 322.432 62.7535 321.53C63.1748 320.952 63.6157 320.526 63.9749 320.329L63.9784 320.328C64.3866 320.107 64.7781 320.056 65.1066 320.082M63.8108 327.201C64.0631 329.158 64.3278 331.142 64.7515 333.104M64.7515 333.104C66.2887 340.23 69.3989 347.331 74.1405 352.96L74.1416 352.962C74.8164 353.759 76.0072 353.859 76.8046 353.19L76.8067 353.188C77.6044 352.513 77.7043 351.322 77.0347 350.525L77.0337 350.524C72.7127 345.399 69.8664 338.881 68.4488 332.308M68.4488 332.308C68.0201 330.317 67.7666 328.335 67.5081 326.314C67.378 325.297 67.2465 324.269 67.0909 323.226L67.0909 323.226L67.0894 323.217C67.0895 323.217 67.0892 323.215 67.0885 323.21L67.0858 323.191L67.0774 323.13L67.0521 322.938C67.032 322.787 67.0061 322.594 66.9773 322.396C66.9487 322.199 66.9163 321.992 66.8831 321.812C66.855 321.661 66.8132 321.452 66.7525 321.301M68.4488 332.308L67.7181 332.465L68.4488 332.308C68.4488 332.308 68.4488 332.308 68.4488 332.308ZM66.7525 321.301C66.3472 320.289 65.4884 320.109 65.1066 320.082M66.7525 321.301C66.7528 321.302 66.7531 321.303 66.7534 321.303L66.0568 321.582M66.7525 321.301C66.7522 321.301 66.752 321.3 66.7517 321.299L66.0568 321.582M65.1066 320.082C65.1082 320.082 65.1097 320.082 65.1113 320.082L65.0513 320.83M65.1066 320.082C65.105 320.082 65.1035 320.081 65.102 320.081L65.0513 320.83M65.0513 320.83C65.2933 320.846 65.8035 320.947 66.0568 321.582M65.0513 320.83C64.8492 320.813 64.6033 320.842 64.3349 320.987L66.0568 321.582M66.0568 321.582C66.1454 321.8 66.264 322.699 66.3202 323.125C66.3341 323.23 66.3442 323.307 66.3491 323.337M66.0568 321.582L66.3491 323.337" fill="white" stroke="white" stroke-width="1.5"/>
</g>
<defs>
<filter id="filter0_d" x="28" y="156" width="328" height="58" filterUnits="userSpaceOnUse" color-interpolation-filters="sRGB">
<feFlood flood-opacity="0" result="BackgroundImageFix"/>
<feColorMatrix in="SourceAlpha" type="matrix" values="0 0 0 0 0 0 0 0 0 0 0 0 0 0 0 0 0 0 127 0" result="hardAlpha"/>
<feOffset dy="4"/>
<feComposite in2="hardAlpha" operator="out"/>
<feColorMatrix type="matrix" values="0 0 0 0 0.404167 0 0 0 0 0.158299 0 0 0 0 0.16019 0 0 0 1 0"/>
<feBlend mode="normal" in2="BackgroundImageFix" result="effect1_dropShadow"/>
<feBlend mode="normal" in="SourceGraphic" in2="effect1_dropShadow" result="shape"/>
</filter>
<filter id="filter1_d" x="28" y="230" width="328" height="58" filterUnits="userSpaceOnUse" color-interpolation-filters="sRGB">
<feFlood flood-opacity="0" result="BackgroundImageFix"/>
<feColorMatrix in="SourceAlpha" type="matrix" values="0 0 0 0 0 0 0 0 0 0 0 0 0 0 0 0 0 0 127 0" result="hardAlpha"/>
<feOffset dy="4"/>
<feComposite in2="hardAlpha" operator="out"/>
<feColorMatrix type="matrix" values="0 0 0 0 0.678431 0 0 0 0 0.709804 0 0 0 0 0.741176 0 0 0 1 0"/>
<feBlend mode="normal" in2="BackgroundImageFix" result="effect1_dropShadow"/>
<feBlend mode="normal" in="SourceGraphic" in2="effect1_dropShadow" result="shape"/>
</filter>
<clipPath id="clip0">
<rect width="98.1555" height="98.1555" fill="white" transform="translate(14 108.662) rotate(-84.2547)"/>
</clipPath>
<clipPath id="clip1">
<rect width="98.1555" height="98.1555" fill="white" transform="translate(360.655 340.564) rotate(111.87)"/>
</clipPath>
<clipPath id="clip2">
<rect width="106.734" height="106.734" fill="white" transform="translate(301.895 149.13) rotate(-126.105)"/>
</clipPath>
<clipPath id="clip3">
<rect width="130" height="130" fill="white" transform="translate(65 470.583) rotate(-120)"/>
</clipPath>
</defs>
</svg>
