<svg width="380" height="440" viewBox="0 0 380 440" fill="none" xmlns="http://www.w3.org/2000/svg">
<g filter="url(#filter0_d)">
<path d="M261.478 37.4452C263.79 32.4298 269.731 30.2389 274.746 32.5516L288.582 38.9315C293.597 41.2442 295.788 47.1847 293.475 52.2L287.684 64.7586C285.371 69.7739 279.431 71.9648 274.416 69.6521L260.58 63.2723C255.565 60.9596 253.374 55.0191 255.687 50.0038L261.478 37.4452Z" fill="#32527B"/>
<path d="M276.596 46.4937C278.183 47.2255 279.194 48.2253 279.627 49.4931C280.071 50.7655 279.92 52.2106 279.174 53.8284C278.428 55.4462 277.427 56.4995 276.171 56.9881C274.925 57.4815 273.509 57.3623 271.922 56.6305L267.621 54.6474L272.296 44.5107L276.596 46.4937ZM272.582 54.5134C273.442 54.9101 274.184 54.9421 274.809 54.6096C275.45 54.2715 276.003 53.5956 276.471 52.5819C276.938 51.5683 277.09 50.7134 276.927 50.0173C276.779 49.3157 276.275 48.7665 275.414 48.3699L274.017 47.7254L271.184 53.869L272.582 54.5134Z" fill="#F8F9FA"/>
<path d="M273.49 35.2759L287.325 41.6558L289.838 36.2072L276.003 29.8273L273.49 35.2759ZM290.751 50.9437L284.96 63.5023L290.408 66.0148L296.2 53.4562L290.751 50.9437ZM275.672 66.9278L261.836 60.548L259.324 65.9966L273.159 72.3764L275.672 66.9278ZM258.411 51.26L264.202 38.7014L258.753 36.1889L252.962 48.7475L258.411 51.26ZM261.836 60.548C258.326 58.9291 256.792 54.7707 258.411 51.26L252.962 48.7475C249.956 55.2674 252.804 62.9901 259.324 65.9966L261.836 60.548ZM284.96 63.5023C283.341 67.0131 279.183 68.5467 275.672 66.9278L273.159 72.3764C279.679 75.3829 287.402 72.5347 290.408 66.0148L284.96 63.5023ZM287.325 41.6558C290.836 43.2747 292.37 47.433 290.751 50.9437L296.2 53.4562C299.206 46.9363 296.358 39.2136 289.838 36.2072L287.325 41.6558ZM276.003 29.8273C269.483 26.8208 261.76 29.669 258.753 36.1889L264.202 38.7014C265.821 35.1907 269.979 33.657 273.49 35.2759L276.003 29.8273Z" fill="#DAECF7"/>
</g>
<g filter="url(#filter1_d)">
<path d="M288.562 108.36C293.938 109.624 297.271 115.007 296.008 120.383L292.521 135.214C291.257 140.59 285.874 143.924 280.498 142.66L267.035 139.495C261.659 138.231 258.325 132.848 259.589 127.472L263.076 112.641C264.34 107.264 269.723 103.931 275.099 105.195L288.562 108.36Z" fill="#32527B"/>
<path d="M283.181 123.002L278.884 121.992L277.909 126.141L282.206 127.151L281.54 129.983L270.674 127.428L271.34 124.596L275.719 125.626L276.695 121.477L272.315 120.447L272.981 117.615L283.847 120.17L283.181 123.002Z" fill="#F8F9FA"/>
<path d="M293.087 119.696L289.6 134.527L295.441 135.901L298.928 121.069L293.087 119.696ZM281.184 139.74L267.722 136.575L266.348 142.415L279.811 145.58L281.184 139.74ZM262.509 128.158L265.996 113.327L260.155 111.954L256.669 126.785L262.509 128.158ZM274.412 108.115L287.875 111.28L289.248 105.439L275.786 102.274L274.412 108.115ZM265.996 113.327C266.881 109.564 270.649 107.23 274.412 108.115L275.786 102.274C268.796 100.631 261.799 104.965 260.155 111.954L265.996 113.327ZM267.722 136.575C263.958 135.69 261.625 131.922 262.509 128.158L256.669 126.785C255.026 133.774 259.359 140.772 266.348 142.415L267.722 136.575ZM289.6 134.527C288.716 138.291 284.947 140.624 281.184 139.74L279.811 145.58C286.8 147.223 293.798 142.89 295.441 135.901L289.6 134.527ZM298.928 121.069C300.571 114.08 296.237 107.082 289.248 105.439L287.875 111.28C291.638 112.165 293.972 115.933 293.087 119.696L298.928 121.069Z" fill="#DAECF7"/>
</g>
<g filter="url(#filter2_d)">
<path d="M264.92 210.901C262.796 205.803 265.208 199.948 270.306 197.825L284.37 191.967C289.469 189.843 295.323 192.255 297.446 197.353L302.764 210.119C304.887 215.218 302.476 221.072 297.378 223.196L283.313 229.054C278.215 231.177 272.361 228.766 270.237 223.667L264.92 210.901Z" fill="#32527B"/>
<path d="M284.464 214.459L289.632 212.306L290.497 214.383L282.644 217.654L278.352 207.349L281.037 206.231L284.464 214.459Z" fill="#F8F9FA"/>
<path d="M271.459 200.594L285.524 194.736L283.217 189.197L269.152 195.055L271.459 200.594ZM294.677 198.506L299.995 211.273L305.533 208.966L300.216 196.199L294.677 198.506ZM296.224 220.426L282.16 226.284L284.467 231.823L298.531 225.965L296.224 220.426ZM273.006 222.514L267.689 209.747L262.15 212.054L267.468 224.821L273.006 222.514ZM282.16 226.284C278.591 227.771 274.493 226.083 273.006 222.514L267.468 224.821C270.228 231.449 277.839 234.584 284.467 231.823L282.16 226.284ZM299.995 211.273C301.481 214.842 299.793 218.94 296.224 220.426L298.531 225.965C305.159 223.204 308.294 215.594 305.533 208.966L299.995 211.273ZM285.524 194.736C289.093 193.25 293.191 194.938 294.677 198.506L300.216 196.199C297.455 189.572 289.844 186.437 283.217 189.197L285.524 194.736ZM269.152 195.055C262.525 197.816 259.39 205.427 262.15 212.054L267.689 209.747C266.203 206.179 267.891 202.081 271.459 200.594L269.152 195.055Z" fill="#DAECF7"/>
</g>
<g filter="url(#filter3_d)">
<path d="M268.425 252.747C268.425 247.224 272.902 242.747 278.425 242.747H293.661C299.184 242.747 303.661 247.224 303.661 252.747V266.576C303.661 272.099 299.184 276.576 293.661 276.576H278.425C272.902 276.576 268.425 272.099 268.425 266.576V252.747Z" fill="#32527B"/>
<path d="M288.873 269.229C287.746 269.229 286.838 268.953 286.15 268.4C285.463 267.859 285.119 267.064 285.119 266.016C285.119 265.982 285.119 265.948 285.119 265.914C283.698 265.734 282.582 265.147 281.77 264.155C280.969 263.163 280.569 261.849 280.569 260.214C280.569 259.008 280.789 257.976 281.229 257.119C281.668 256.262 282.294 255.608 283.106 255.157C283.929 254.695 284.91 254.464 286.049 254.464C287.176 254.464 288.146 254.695 288.958 255.157C289.781 255.608 290.412 256.262 290.852 257.119C291.292 257.976 291.512 259.008 291.512 260.214C291.512 261.861 291.106 263.18 290.294 264.172C289.482 265.164 288.355 265.745 286.911 265.914C287.002 266.376 287.227 266.686 287.588 266.844C287.96 267.013 288.394 267.098 288.89 267.098C289.375 267.098 289.781 267.047 290.108 266.946C290.446 266.844 290.723 266.703 290.937 266.523L291.377 268.536C291.083 268.761 290.706 268.93 290.243 269.043C289.781 269.167 289.324 269.229 288.873 269.229ZM286.049 256.747C285.237 256.747 284.617 257.04 284.188 257.627C283.76 258.202 283.546 259.064 283.546 260.214C283.546 261.364 283.76 262.233 284.188 262.819C284.617 263.394 285.237 263.682 286.049 263.682C286.849 263.682 287.464 263.394 287.892 262.819C288.321 262.233 288.535 261.364 288.535 260.214C288.535 259.064 288.321 258.202 287.892 257.627C287.464 257.04 286.849 256.747 286.049 256.747Z" fill="#F8F9FA"/>
<path d="M278.425 245.747H293.661V239.747H278.425V245.747ZM300.661 252.747V266.576H306.661V252.747H300.661ZM293.661 273.576H278.425V279.576H293.661V273.576ZM271.425 266.576V252.747H265.425V266.576H271.425ZM278.425 273.576C274.559 273.576 271.425 270.442 271.425 266.576H265.425C265.425 273.756 271.246 279.576 278.425 279.576V273.576ZM300.661 266.576C300.661 270.442 297.527 273.576 293.661 273.576V279.576C300.841 279.576 306.661 273.756 306.661 266.576H300.661ZM293.661 245.747C297.527 245.747 300.661 248.881 300.661 252.747H306.661C306.661 245.567 300.841 239.747 293.661 239.747V245.747ZM278.425 239.747C271.246 239.747 265.425 245.567 265.425 252.747H271.425C271.425 248.881 274.559 245.747 278.425 245.747V239.747Z" fill="#DAECF7"/>
</g>
<g filter="url(#filter4_d)">
<path d="M255.951 322.024C254.055 316.837 256.722 311.094 261.909 309.198L276.218 303.966C281.405 302.069 287.147 304.737 289.044 309.924L293.793 322.912C295.69 328.099 293.022 333.841 287.835 335.738L273.526 340.97C268.339 342.867 262.597 340.199 260.7 335.012L255.951 322.024Z" fill="#32527B"/>
<path d="M272.237 329.963L265.385 320.583L268.292 319.52L273.097 327.145L271.945 318.184L274.423 317.278L279.366 324.835L278.093 315.936L280.904 314.908L281.704 326.501L278.733 327.587L275.636 322.957L274.224 320.574L274.192 320.586L274.667 323.312L275.302 328.842L272.237 329.963Z" fill="#F8F9FA"/>
<path d="M262.939 312.015L277.248 306.783L275.188 301.148L260.879 306.38L262.939 312.015ZM286.226 310.954L290.976 323.942L296.611 321.882L291.862 308.893L286.226 310.954ZM286.805 332.92L272.496 338.152L274.557 343.788L288.866 338.556L286.805 332.92ZM263.518 333.982L258.769 320.993L253.134 323.054L257.883 336.042L263.518 333.982ZM272.496 338.152C268.865 339.48 264.846 337.613 263.518 333.982L257.883 336.042C260.348 342.786 267.813 346.253 274.557 343.788L272.496 338.152ZM290.976 323.942C292.303 327.573 290.436 331.593 286.805 332.92L288.866 338.556C295.609 336.09 299.076 328.625 296.611 321.882L290.976 323.942ZM277.248 306.783C280.879 305.456 284.899 307.323 286.226 310.954L291.862 308.893C289.396 302.15 281.931 298.683 275.188 301.148L277.248 306.783ZM260.879 306.38C254.136 308.846 250.668 316.311 253.134 323.054L258.769 320.993C257.441 317.363 259.308 313.343 262.939 312.015L260.879 306.38Z" fill="#DAECF7"/>
</g>
<g filter="url(#filter5_d)">
<path d="M271.116 367.342C275.002 363.418 281.334 363.386 285.258 367.272L296.085 377.991C300.01 381.877 300.041 388.208 296.156 392.133L286.426 401.961C282.54 405.885 276.208 405.917 272.284 402.031L261.457 391.312C257.532 387.426 257.501 381.095 261.386 377.17L271.116 367.342Z" fill="#32527B"/>
<path d="M279.441 390.853L277.894 392.415L271.091 385.68L272.567 384.19L281.833 383.701L277.482 379.393L279.029 377.831L285.603 384.34L284.128 385.83L274.886 386.343L279.441 390.853Z" fill="#F8F9FA"/>
<path d="M283.148 369.404L293.974 380.123L298.196 375.859L287.369 365.14L283.148 369.404ZM294.024 390.022L284.294 399.85L288.558 404.071L298.288 394.244L294.024 390.022ZM274.394 399.899L263.568 389.18L259.346 393.444L270.173 404.163L274.394 399.899ZM263.518 379.281L273.248 369.453L268.984 365.232L259.254 375.059L263.518 379.281ZM263.568 389.18C260.82 386.46 260.798 382.028 263.518 379.281L259.254 375.059C254.203 380.162 254.244 388.393 259.346 393.444L263.568 389.18ZM284.294 399.85C281.574 402.597 277.142 402.619 274.394 399.899L270.173 404.163C275.275 409.215 283.506 409.174 288.558 404.071L284.294 399.85ZM293.974 380.123C296.722 382.843 296.744 387.275 294.024 390.022L298.288 394.244C303.339 389.142 303.298 380.911 298.196 375.859L293.974 380.123ZM287.369 365.14C282.267 360.089 274.036 360.13 268.984 365.232L273.248 369.453C275.968 366.706 280.4 366.684 283.148 369.404L287.369 365.14Z" fill="#DAECF7"/>
</g>
<g filter="url(#filter6_d)">
<path d="M192.455 68.9713C189.705 64.1813 191.36 58.0696 196.15 55.3204L209.363 47.7362C214.153 44.9869 220.265 46.6412 223.014 51.4311L229.898 63.4254C232.648 68.2153 230.993 74.327 226.203 77.0763L212.99 84.6605C208.2 87.4097 202.088 85.7554 199.339 80.9655L192.455 68.9713Z" fill="#32527B"/>
<path d="M217.298 66.0714C217.599 67.2512 217.502 68.2947 217.009 69.2019C216.52 70.0937 215.762 70.8343 214.735 71.4237C213.747 71.9906 212.784 72.2833 211.846 72.3019C210.911 72.3051 210.04 72.0445 209.232 71.5202C208.424 70.9959 207.72 70.2106 207.12 69.1642C206.519 68.1178 206.196 67.1136 206.151 66.1515C206.106 65.1894 206.323 64.3107 206.802 63.5154C207.286 62.7047 208.017 62.0187 208.995 61.4575C210.002 60.8793 211.006 60.5893 212.006 60.5874C213.006 60.5855 213.892 60.974 214.664 61.7529L212.962 63.919C212.483 63.4011 212.022 63.1194 211.58 63.0741C211.143 63.0134 210.689 63.1178 210.22 63.3872C209.515 63.7913 209.109 64.3627 209 65.1013C208.901 65.8344 209.134 66.6947 209.701 67.6824C210.268 68.6701 210.883 69.3115 211.547 69.6068C212.22 69.8964 212.933 69.8251 213.686 69.3929C214.156 69.1235 214.479 68.769 214.655 68.3295C214.836 67.8747 214.831 67.3446 214.64 66.7394L217.298 66.0714Z" fill="#F8F9FA"/>
<path d="M197.643 57.9222L210.857 50.338L207.87 45.1343L194.656 52.7185L197.643 57.9222ZM220.412 52.9245L227.297 64.9187L232.5 61.932L225.616 49.9377L220.412 52.9245ZM224.71 74.4744L211.496 82.0586L214.483 87.2623L227.697 79.6781L224.71 74.4744ZM201.941 79.4721L195.056 67.4779L189.853 70.4647L196.737 82.4589L201.941 79.4721ZM211.496 82.0586C208.143 83.9831 203.865 82.8251 201.941 79.4721L196.737 82.4589C200.311 88.6858 208.256 90.8364 214.483 87.2623L211.496 82.0586ZM227.297 64.9187C229.221 68.2717 228.063 72.5499 224.71 74.4744L227.697 79.6781C233.924 76.1041 236.074 68.1589 232.5 61.932L227.297 64.9187ZM210.857 50.338C214.21 48.4136 218.488 49.5716 220.412 52.9245L225.616 49.9377C222.042 43.7108 214.097 41.5602 207.87 45.1343L210.857 50.338ZM194.656 52.7185C188.429 56.2925 186.279 64.2378 189.853 70.4647L195.056 67.4779C193.132 64.1249 194.29 59.8467 197.643 57.9222L194.656 52.7185Z" fill="#DAECF7"/>
</g>
<g filter="url(#filter7_d)">
<path d="M218.509 108.382C223.128 105.354 229.327 106.643 232.355 111.262L240.71 124.002C243.738 128.621 242.449 134.82 237.83 137.848L226.265 145.432C221.647 148.46 215.448 147.171 212.419 142.552L204.065 129.812C201.037 125.193 202.326 118.994 206.944 115.966L218.509 108.382Z" fill="#32527B"/>
<path d="M216.974 130.147C216.43 129.317 216.129 128.456 216.07 127.564C216.017 126.682 216.232 125.827 216.713 124.999C217.195 124.17 217.95 123.419 218.977 122.745C219.977 122.09 220.959 121.716 221.922 121.623C222.896 121.524 223.805 121.697 224.649 122.141C225.499 122.595 226.236 123.298 226.861 124.25C227.559 125.316 227.926 126.296 227.959 127.191C228.009 128.088 227.736 128.989 227.141 129.891L224.776 128.226C225.176 127.789 225.383 127.343 225.396 126.89C225.409 126.436 225.264 125.978 224.961 125.516C224.503 124.819 223.898 124.44 223.145 124.381C222.407 124.326 221.567 124.607 220.624 125.225C219.624 125.881 219.006 126.562 218.769 127.271C218.542 127.972 218.682 128.71 219.189 129.483C219.541 130.021 219.962 130.385 220.452 130.576C220.941 130.768 221.45 130.69 221.978 130.344L222.119 130.251L220.719 128.116L222.345 127.049L225.1 131.25L220.065 134.551L218.98 132.897L220.06 132.046C219.472 132.054 218.914 131.902 218.385 131.588C217.871 131.278 217.401 130.797 216.974 130.147Z" fill="#F8F9FA"/>
<path d="M229.847 112.907L238.201 125.647L243.218 122.357L234.864 109.617L229.847 112.907ZM236.185 135.34L224.62 142.923L227.91 147.94L239.475 140.357L236.185 135.34ZM214.928 140.907L206.574 128.167L201.556 131.457L209.911 144.197L214.928 140.907ZM208.589 118.474L220.154 110.891L216.864 105.874L205.299 113.457L208.589 118.474ZM206.574 128.167C204.454 124.934 205.356 120.594 208.589 118.474L205.299 113.457C199.295 117.394 197.62 125.453 201.556 131.457L206.574 128.167ZM224.62 142.923C221.387 145.043 217.048 144.14 214.928 140.907L209.911 144.197C213.848 150.202 221.906 151.877 227.91 147.94L224.62 142.923ZM238.201 125.647C240.321 128.88 239.418 133.22 236.185 135.34L239.475 140.357C245.479 136.42 247.155 128.361 243.218 122.357L238.201 125.647ZM234.864 109.617C230.927 103.613 222.868 101.937 216.864 105.874L220.154 110.891C223.387 108.771 227.727 109.674 229.847 112.907L234.864 109.617Z" fill="#DAECF7"/>
</g>
<g filter="url(#filter8_d)">
<path d="M223.749 170.231C221.762 165.078 224.327 159.29 229.48 157.302L243.695 151.819C248.847 149.831 254.636 152.397 256.624 157.549L261.601 170.452C263.589 175.605 261.023 181.393 255.87 183.381L241.656 188.865C236.503 190.852 230.714 188.287 228.727 183.134L223.749 170.231Z" fill="#32527B"/>
<path d="M239.261 166.269L241.044 170.892L242.985 164.832L245.999 163.67L244.096 169.262L250.206 174.011L247.129 175.198L242.818 171.731L242.146 173.749L243.278 176.684L240.564 177.731L236.547 167.316L239.261 166.269Z" fill="#F8F9FA"/>
<path d="M230.56 160.101L244.774 154.618L242.615 149.02L228.4 154.503L230.56 160.101ZM253.825 158.629L258.802 171.532L264.4 169.372L259.423 156.47L253.825 158.629ZM254.791 180.582L240.576 186.066L242.735 191.664L256.95 186.18L254.791 180.582ZM231.526 182.054L226.548 169.151L220.95 171.311L225.928 184.213L231.526 182.054ZM240.576 186.066C236.969 187.457 232.917 185.661 231.526 182.054L225.928 184.213C228.512 190.912 236.037 194.248 242.735 191.664L240.576 186.066ZM258.802 171.532C260.194 175.139 258.397 179.191 254.791 180.582L256.95 186.18C263.649 183.596 266.984 176.071 264.4 169.372L258.802 171.532ZM244.774 154.618C248.381 153.226 252.433 155.022 253.825 158.629L259.423 156.47C256.839 149.771 249.314 146.436 242.615 149.02L244.774 154.618ZM228.4 154.503C221.702 157.087 218.366 164.612 220.95 171.311L226.548 169.151C225.157 165.544 226.953 161.492 230.56 160.101L228.4 154.503Z" fill="#DAECF7"/>
</g>
<g filter="url(#filter9_d)">
<path d="M217.259 264.024C217.259 258.501 221.736 254.024 227.259 254.024H242.494C248.017 254.024 252.494 258.501 252.494 264.024V277.853C252.494 283.376 248.017 287.853 242.494 287.853H227.259C221.736 287.853 217.259 283.376 217.259 277.853V264.024Z" fill="#32527B"/>
<path d="M234.882 265.741C236.01 265.741 236.98 265.972 237.791 266.434C238.614 266.885 239.246 267.539 239.686 268.396C240.125 269.253 240.345 270.285 240.345 271.491C240.345 272.698 240.125 273.729 239.686 274.586C239.246 275.443 238.614 276.103 237.791 276.565C236.98 277.016 236.01 277.242 234.882 277.242C233.743 277.242 232.763 277.016 231.939 276.565C231.128 276.103 230.502 275.443 230.062 274.586C229.622 273.729 229.402 272.698 229.402 271.491C229.402 270.285 229.622 269.253 230.062 268.396C230.502 267.539 231.128 266.885 231.939 266.434C232.763 265.972 233.743 265.741 234.882 265.741ZM234.882 268.024C234.07 268.024 233.45 268.317 233.022 268.904C232.593 269.479 232.379 270.341 232.379 271.491C232.379 272.641 232.593 273.51 233.022 274.096C233.45 274.671 234.07 274.959 234.882 274.959C235.683 274.959 236.297 274.671 236.726 274.096C237.154 273.51 237.369 272.641 237.369 271.491C237.369 270.341 237.154 269.479 236.726 268.904C236.297 268.317 235.683 268.024 234.882 268.024Z" fill="#F8F9FA"/>
<path d="M227.259 257.024H242.494V251.024H227.259V257.024ZM249.494 264.024V277.853H255.494V264.024H249.494ZM242.494 284.853H227.259V290.853H242.494V284.853ZM220.259 277.853V264.024H214.259V277.853H220.259ZM227.259 284.853C223.393 284.853 220.259 281.719 220.259 277.853H214.259C214.259 285.033 220.079 290.853 227.259 290.853V284.853ZM249.494 277.853C249.494 281.719 246.36 284.853 242.494 284.853V290.853C249.674 290.853 255.494 285.033 255.494 277.853H249.494ZM242.494 257.024C246.36 257.024 249.494 260.158 249.494 264.024H255.494C255.494 256.844 249.674 251.024 242.494 251.024V257.024ZM227.259 251.024C220.079 251.024 214.259 256.844 214.259 264.024H220.259C220.259 260.158 223.393 257.024 227.259 257.024V251.024Z" fill="#DAECF7"/>
</g>
<g filter="url(#filter10_d)">
<path d="M203.957 330.143C201.31 325.296 203.093 319.221 207.94 316.574L221.311 309.271C226.158 306.624 232.233 308.407 234.881 313.254L241.51 325.391C244.157 330.238 242.374 336.313 237.527 338.961L224.156 346.264C219.309 348.911 213.233 347.128 210.586 342.281L203.957 330.143Z" fill="#32527B"/>
<path d="M225.306 320.633L227.183 332.326L224.185 333.964L215.346 326.072L218.033 324.605L223.063 329.547L224.652 331.184L224.133 329.001L222.708 322.051L225.306 320.633Z" fill="#F8F9FA"/>
<path d="M209.378 319.207L222.749 311.904L219.873 306.638L206.502 313.941L209.378 319.207ZM232.248 314.692L238.877 326.829L244.143 323.953L237.514 311.816L232.248 314.692ZM236.089 336.328L222.718 343.631L225.594 348.897L238.965 341.594L236.089 336.328ZM213.219 340.843L206.59 328.705L201.324 331.582L207.953 343.719L213.219 340.843ZM222.718 343.631C219.325 345.484 215.072 344.236 213.219 340.843L207.953 343.719C211.395 350.02 219.293 352.338 225.594 348.897L222.718 343.631ZM238.877 326.829C240.73 330.222 239.482 334.475 236.089 336.328L238.965 341.594C245.266 338.152 247.584 330.254 244.143 323.953L238.877 326.829ZM222.749 311.904C226.142 310.051 230.395 311.299 232.248 314.692L237.514 311.816C234.072 305.515 226.174 303.196 219.873 306.638L222.749 311.904ZM206.502 313.941C200.201 317.382 197.883 325.28 201.324 331.582L206.59 328.705C204.737 325.313 205.985 321.06 209.378 319.207L206.502 313.941Z" fill="#DAECF7"/>
</g>
<g filter="url(#filter11_d)">
<path d="M194.081 226.286C191.422 221.446 193.191 215.366 198.032 212.707L211.385 205.372C216.226 202.713 222.306 204.482 224.965 209.323L231.623 221.444C234.281 226.285 232.513 232.364 227.672 235.023L214.318 242.358C209.478 245.017 203.398 243.248 200.739 238.408L194.081 226.286Z" fill="#32527B"/>
<path d="M210.479 219.238C211.388 218.739 212.267 218.443 213.117 218.349C213.97 218.241 214.803 218.317 215.616 218.578L215.289 220.899C214.62 220.688 213.979 220.609 213.365 220.663C212.756 220.702 212.14 220.892 211.518 221.234C210.974 221.533 210.632 221.836 210.493 222.145C210.353 222.453 210.354 222.735 210.495 222.992C210.609 223.2 210.801 223.326 211.07 223.371C211.344 223.401 211.725 223.346 212.214 223.206L214.063 222.673C215.167 222.363 216.065 222.3 216.758 222.485C217.452 222.67 217.997 223.124 218.393 223.845C218.773 224.537 218.918 225.223 218.828 225.902C218.733 226.572 218.442 227.201 217.955 227.79C217.463 228.37 216.816 228.879 216.016 229.319C215.028 229.862 214.037 230.2 213.043 230.334C212.043 230.459 211.157 230.392 210.386 230.134L210.68 227.754C211.279 227.978 211.968 228.062 212.748 228.007C213.523 227.942 214.241 227.727 214.903 227.363C215.931 226.799 216.279 226.215 215.948 225.612C215.834 225.405 215.66 225.275 215.426 225.224C215.196 225.157 214.852 225.185 214.392 225.309L212.364 225.902C211.745 226.088 211.159 226.191 210.605 226.213C210.06 226.229 209.567 226.126 209.125 225.906C208.677 225.676 208.303 225.29 208.005 224.746C207.668 224.133 207.538 223.498 207.613 222.839C207.683 222.17 207.958 221.523 208.439 220.899C208.919 220.275 209.599 219.722 210.479 219.238Z" fill="#F8F9FA"/>
<path d="M199.476 215.337L212.83 208.002L209.941 202.743L196.587 210.078L199.476 215.337ZM222.335 210.767L228.993 222.888L234.252 220L227.594 207.879L222.335 210.767ZM226.228 232.394L212.874 239.729L215.763 244.988L229.116 237.653L226.228 232.394ZM203.369 236.963L196.711 224.842L191.452 227.73L198.11 239.852L203.369 236.963ZM212.874 239.729C209.486 241.59 205.23 240.352 203.369 236.963L198.11 239.852C201.566 246.145 209.47 248.444 215.763 244.988L212.874 239.729ZM228.993 222.888C230.854 226.277 229.616 230.533 226.228 232.394L229.116 237.653C235.409 234.196 237.709 226.293 234.252 220L228.993 222.888ZM212.83 208.002C216.218 206.14 220.474 207.379 222.335 210.767L227.594 207.879C224.138 201.586 216.234 199.286 209.941 202.743L212.83 208.002ZM196.587 210.078C190.295 213.534 187.995 221.438 191.452 227.73L196.711 224.842C194.849 221.453 196.088 217.198 199.476 215.337L196.587 210.078Z" fill="#DAECF7"/>
</g>
<g filter="url(#filter12_d)">
<path d="M135.51 39.9137C137.838 34.9054 143.785 32.7326 148.793 35.0606L162.609 41.4825C167.617 43.8105 169.79 49.7576 167.462 54.7659L161.633 67.3068C159.305 72.315 153.358 74.4879 148.35 72.1599L134.534 65.738C129.525 63.41 127.353 57.4629 129.681 52.4546L135.51 39.9137Z" fill="#32527B"/>
<path d="M141.863 57.2565L146.568 47.134L151.492 49.4224C152.739 50.0022 153.55 50.6652 153.924 51.4112C154.299 52.1571 154.282 52.9698 153.873 53.8491C153.607 54.4217 153.208 54.8392 152.675 55.1016C152.143 55.364 151.505 55.3847 150.763 55.1637L150.756 55.1791C151.485 55.6425 151.937 56.182 152.111 56.7975C152.3 57.4076 152.252 58.0193 151.966 58.6328C151.562 59.5019 150.937 60.0318 150.09 60.2225C149.258 60.4076 148.233 60.2174 147.017 59.6519L141.863 57.2565ZM147.19 52.4584L149.107 53.3496C150.047 53.7868 150.689 53.6374 151.031 52.9012C151.373 52.165 151.074 51.5783 150.133 51.141L148.216 50.2499L147.19 52.4584ZM145.272 56.5841L147.434 57.5893C148.385 58.0313 149.037 57.874 149.388 57.1174C149.73 56.3812 149.426 55.7921 148.475 55.3501L146.313 54.3449L145.272 56.5841Z" fill="#F8F9FA"/>
<path d="M147.529 37.781L161.345 44.203L163.874 38.7621L150.058 32.3401L147.529 37.781ZM164.742 53.5013L158.913 66.0423L164.353 68.5713L170.183 56.0304L164.742 53.5013ZM149.614 69.4394L135.798 63.0175L133.269 68.4584L147.085 74.8804L149.614 69.4394ZM132.401 53.7191L138.23 41.1782L132.789 38.6492L126.96 51.1901L132.401 53.7191ZM135.798 63.0175C132.292 61.3879 130.772 57.2249 132.401 53.7191L126.96 51.1901C123.934 57.7008 126.758 65.4321 133.269 68.4584L135.798 63.0175ZM158.913 66.0423C157.283 69.548 153.12 71.069 149.614 69.4394L147.085 74.8804C153.596 77.9067 161.327 75.082 164.353 68.5713L158.913 66.0423ZM161.345 44.203C164.85 45.8326 166.371 49.9956 164.742 53.5013L170.183 56.0304C173.209 49.5197 170.384 41.7884 163.874 38.7621L161.345 44.203ZM150.058 32.3401C143.547 29.3138 135.816 32.1384 132.789 38.6492L138.23 41.1782C139.86 37.6725 144.023 36.1515 147.529 37.781L150.058 32.3401Z" fill="#DAECF7"/>
</g>
<g filter="url(#filter13_d)">
<path d="M159.623 95.4753C164.437 92.7674 170.534 94.4743 173.242 99.2878L180.712 112.566C183.42 117.38 181.713 123.477 176.9 126.185L164.847 132.966C160.033 135.673 153.936 133.967 151.228 129.153L143.758 115.875C141.05 111.061 142.757 104.964 147.57 102.256L159.623 95.4753Z" fill="#32527B"/>
<path d="M166.978 116.983L164.15 111.956L162.086 113.117L164.342 117.127L162.381 118.23L160.126 114.22L156.382 116.327L154.955 113.791L164.684 108.318L168.938 115.88L166.978 116.983Z" fill="#F8F9FA"/>
<path d="M170.627 100.759L178.097 114.037L183.327 111.095L175.857 97.8168L170.627 100.759ZM175.429 123.57L163.376 130.351L166.318 135.58L178.371 128.799L175.429 123.57ZM153.843 127.682L146.373 114.404L141.143 117.346L148.613 130.624L153.843 127.682ZM149.041 104.871L161.094 98.09L158.153 92.8607L146.099 99.6414L149.041 104.871ZM146.373 114.404C144.477 111.034 145.672 106.766 149.041 104.871L146.099 99.6414C139.842 103.162 137.623 111.088 141.143 117.346L146.373 114.404ZM163.376 130.351C160.006 132.246 155.738 131.052 153.843 127.682L148.613 130.624C152.134 136.881 160.06 139.1 166.318 135.58L163.376 130.351ZM178.097 114.037C179.993 117.407 178.798 121.675 175.429 123.57L178.371 128.799C184.628 125.279 186.847 117.353 183.327 111.095L178.097 114.037ZM175.857 97.8168C172.336 91.5594 164.41 89.3404 158.153 92.8607L161.094 98.09C164.464 96.1945 168.732 97.3893 170.627 100.759L175.857 97.8168Z" fill="#DAECF7"/>
</g>
<g filter="url(#filter14_d)">
<path d="M167.297 153.822C167.297 148.299 171.774 143.822 177.297 143.822H192.533C198.055 143.822 202.533 148.299 202.533 153.822V167.651C202.533 173.174 198.055 177.651 192.533 177.651H177.297C171.774 177.651 167.297 173.174 167.297 167.651V153.822Z" fill="#32527B"/>
<path d="M189.108 155.708V162.575C189.108 163.984 188.702 165.083 187.89 165.873C187.078 166.651 185.928 167.04 184.44 167.04C183.346 167.04 182.467 166.848 181.801 166.465C181.147 166.07 180.691 165.529 180.431 164.841C180.183 164.142 180.133 163.347 180.279 162.456L183.121 161.949C182.985 162.975 183.03 163.702 183.256 164.131C183.493 164.548 183.921 164.756 184.541 164.756C185.15 164.756 185.579 164.554 185.827 164.148C186.075 163.742 186.199 163.116 186.199 162.27V155.708H189.108Z" fill="#F8F9FA"/>
<path d="M177.297 146.822H192.533V140.822H177.297V146.822ZM199.533 153.822V167.651H205.533V153.822H199.533ZM192.533 174.651H177.297V180.651H192.533V174.651ZM170.297 167.651V153.822H164.297V167.651H170.297ZM177.297 174.651C173.431 174.651 170.297 171.517 170.297 167.651H164.297C164.297 174.831 170.117 180.651 177.297 180.651V174.651ZM199.533 167.651C199.533 171.517 196.399 174.651 192.533 174.651V180.651C199.712 180.651 205.533 174.831 205.533 167.651H199.533ZM192.533 146.822C196.399 146.822 199.533 149.956 199.533 153.822H205.533C205.533 146.642 199.712 140.822 192.533 140.822V146.822ZM177.297 140.822C170.117 140.822 164.297 146.642 164.297 153.822H170.297C170.297 149.956 173.431 146.822 177.297 146.822V140.822Z" fill="#DAECF7"/>
</g>
<g filter="url(#filter15_d)">
<path d="M135.075 209.985C131.21 206.04 131.274 199.709 135.219 195.844L146.102 185.181C150.047 181.316 156.378 181.381 160.243 185.325L169.922 195.204C173.787 199.149 173.722 205.48 169.777 209.345L158.895 220.008C154.95 223.873 148.619 223.808 144.753 219.863L135.075 209.985Z" fill="#32527B"/>
<path d="M152.572 195.482L160.384 203.456L158.076 205.716L151.374 203.83L149.61 203.238L149.598 203.25L151.091 204.676L155.032 208.699L153.196 210.498L145.384 202.525L147.691 200.264L154.393 202.151L156.157 202.743L156.169 202.731L154.677 201.304L150.735 197.281L152.572 195.482Z" fill="#F8F9FA"/>
<path d="M137.319 197.987L148.201 187.324L144.002 183.038L133.12 193.701L137.319 197.987ZM158.1 187.425L167.779 197.303L172.065 193.104L162.386 183.226L158.1 187.425ZM167.678 207.202L156.795 217.865L160.994 222.151L171.877 211.488L167.678 207.202ZM146.896 217.764L137.218 207.885L132.932 212.085L142.61 221.963L146.896 217.764ZM156.795 217.865C154.034 220.57 149.602 220.525 146.896 217.764L142.61 221.963C147.635 227.091 155.866 227.175 160.994 222.151L156.795 217.865ZM167.779 197.303C170.484 200.065 170.439 204.497 167.678 207.202L171.877 211.488C177.005 206.463 177.089 198.233 172.065 193.104L167.779 197.303ZM148.201 187.324C150.963 184.618 155.395 184.664 158.1 187.425L162.386 183.226C157.361 178.097 149.13 178.013 144.002 183.038L148.201 187.324ZM133.12 193.701C127.991 198.726 127.907 206.956 132.932 212.085L137.218 207.885C134.512 205.124 134.557 200.692 137.319 197.987L133.12 193.701Z" fill="#DAECF7"/>
</g>
<g filter="url(#filter16_d)">
<path d="M153.203 264.024C153.203 258.501 157.68 254.024 163.203 254.024H178.438C183.961 254.024 188.438 258.501 188.438 264.024V277.853C188.438 283.376 183.961 287.853 178.438 287.853H163.203C157.68 287.853 153.203 283.376 153.203 277.853V264.024Z" fill="#32527B"/>
<path d="M170.968 265.741C172.006 265.741 172.919 265.904 173.708 266.231C174.509 266.547 175.202 267.015 175.789 267.635L174.385 269.513C173.9 269.005 173.376 268.627 172.812 268.379C172.259 268.12 171.628 267.99 170.918 267.99C170.297 267.99 169.852 268.092 169.581 268.295C169.311 268.498 169.176 268.746 169.176 269.039C169.176 269.276 169.283 269.479 169.497 269.648C169.722 269.806 170.083 269.941 170.579 270.054L172.457 270.477C173.573 270.736 174.39 271.114 174.909 271.61C175.428 272.106 175.687 272.765 175.687 273.589C175.687 274.378 175.484 275.049 175.078 275.601C174.672 276.142 174.114 276.554 173.404 276.836C172.693 277.106 171.882 277.242 170.968 277.242C169.841 277.242 168.809 277.061 167.873 276.701C166.937 276.328 166.193 275.844 165.641 275.246L167.045 273.301C167.462 273.786 168.025 274.192 168.736 274.519C169.446 274.834 170.179 274.992 170.935 274.992C172.107 274.992 172.693 274.648 172.693 273.961C172.693 273.724 172.603 273.527 172.423 273.369C172.254 273.2 171.938 273.059 171.476 272.946L169.412 272.489C168.781 272.354 168.217 272.162 167.721 271.914C167.236 271.666 166.853 271.339 166.571 270.933C166.289 270.516 166.148 269.997 166.148 269.377C166.148 268.678 166.34 268.058 166.723 267.517C167.107 266.964 167.659 266.53 168.381 266.214C169.102 265.899 169.965 265.741 170.968 265.741Z" fill="#F8F9FA"/>
<path d="M163.203 257.024H178.438V251.024H163.203V257.024ZM185.438 264.024V277.853H191.438V264.024H185.438ZM178.438 284.853H163.203V290.853H178.438V284.853ZM156.203 277.853V264.024H150.203V277.853H156.203ZM163.203 284.853C159.337 284.853 156.203 281.719 156.203 277.853H150.203C150.203 285.033 156.023 290.853 163.203 290.853V284.853ZM185.438 277.853C185.438 281.719 182.304 284.853 178.438 284.853V290.853C185.618 290.853 191.438 285.033 191.438 277.853H185.438ZM178.438 257.024C182.304 257.024 185.438 260.158 185.438 264.024H191.438C191.438 256.844 185.618 251.024 178.438 251.024V257.024ZM163.203 251.024C156.023 251.024 150.203 256.844 150.203 264.024H156.203C156.203 260.158 159.337 257.024 163.203 257.024V251.024Z" fill="#DAECF7"/>
</g>
<g filter="url(#filter17_d)">
<path d="M137.178 326.202C134.486 321.38 136.212 315.289 141.035 312.596L154.337 305.17C159.16 302.478 165.251 304.204 167.943 309.027L174.685 321.102C177.377 325.924 175.65 332.016 170.828 334.708L157.525 342.134C152.703 344.827 146.611 343.1 143.919 338.278L137.178 326.202Z" fill="#32527B"/>
<path d="M157.837 316.829L161.06 322.603C162.594 325.35 161.908 327.534 159.004 329.156C157.577 329.953 156.304 330.217 155.186 329.95C154.063 329.673 153.117 328.846 152.347 327.468L149.124 321.693L151.679 320.267L154.927 326.086C155.702 327.474 156.69 327.832 157.891 327.162C159.102 326.486 159.32 325.454 158.545 324.066L155.297 318.247L157.837 316.829Z" fill="#F8F9FA"/>
<path d="M142.497 315.216L155.8 307.789L152.875 302.55L139.572 309.977L142.497 315.216ZM165.324 310.489L172.065 322.564L177.304 319.639L170.563 307.564L165.324 310.489ZM169.366 332.088L156.063 339.515L158.987 344.754L172.29 337.327L169.366 332.088ZM146.539 336.815L139.797 324.74L134.558 327.665L141.3 339.74L146.539 336.815ZM156.063 339.515C152.687 341.4 148.423 340.191 146.539 336.815L141.3 339.74C144.799 346.009 152.719 348.254 158.987 344.754L156.063 339.515ZM172.065 322.564C173.95 325.94 172.741 330.204 169.366 332.088L172.29 337.327C178.559 333.827 180.804 325.908 177.304 319.639L172.065 322.564ZM155.8 307.789C159.175 305.905 163.44 307.113 165.324 310.489L170.563 307.564C167.063 301.295 159.144 299.05 152.875 302.55L155.8 307.789ZM139.572 309.977C133.303 313.477 131.059 321.396 134.558 327.665L139.797 324.74C137.913 321.364 139.121 317.1 142.497 315.216L139.572 309.977Z" fill="#DAECF7"/>
</g>
<g filter="url(#filter18_d)">
<path d="M178.174 299.39C175.468 294.575 177.178 288.478 181.993 285.773L195.275 278.309C200.09 275.604 206.186 277.313 208.892 282.128L215.667 294.184C218.372 298.999 216.662 305.096 211.848 307.801L198.566 315.265C193.751 317.97 187.655 316.261 184.949 311.446L178.174 299.39Z" fill="#32527B"/>
<path d="M199.151 289.765L199.188 297.874L201.184 301.427L198.648 302.852L196.651 299.299L189.744 295.051L192.369 293.576L195.24 295.475L196.874 296.691L196.699 294.654L196.571 291.215L199.151 289.765Z" fill="#F8F9FA"/>
<path d="M183.463 288.388L196.745 280.924L193.805 275.694L180.523 283.158L183.463 288.388ZM206.276 283.598L213.051 295.654L218.282 292.715L211.507 280.658L206.276 283.598ZM210.378 305.186L197.096 312.65L200.035 317.88L213.317 310.417L210.378 305.186ZM187.564 309.976L180.789 297.92L175.559 300.859L182.334 312.916L187.564 309.976ZM197.096 312.65C193.726 314.543 189.458 313.347 187.564 309.976L182.334 312.916C185.851 319.175 193.776 321.398 200.035 317.88L197.096 312.65ZM213.051 295.654C214.945 299.024 213.748 303.292 210.378 305.186L213.317 310.417C219.577 306.899 221.799 298.974 218.282 292.715L213.051 295.654ZM196.745 280.924C200.115 279.031 204.382 280.227 206.276 283.598L211.507 280.658C207.99 274.399 200.064 272.177 193.805 275.694L196.745 280.924ZM180.523 283.158C174.264 286.675 172.041 294.6 175.559 300.859L180.789 297.92C178.895 294.55 180.092 290.282 183.463 288.388L180.523 283.158Z" fill="#DAECF7"/>
</g>
<g filter="url(#filter19_d)">
<path d="M70.7519 41.0579C70.7519 35.535 75.229 31.0579 80.7519 31.0579H95.9874C101.51 31.0579 105.987 35.535 105.987 41.0579V54.8874C105.987 60.4102 101.51 64.8874 95.9874 64.8874H80.7519C75.229 64.8874 70.7519 60.4102 70.7519 54.8874V41.0579Z" fill="#32527B"/>
<path d="M82.7143 54.1067L86.6381 42.9441H90.1222L94.0291 54.1067H91.0355L90.2744 51.5866H86.4183L85.6403 54.1067H82.7143ZM87.8728 46.9186L87.0271 49.6078H89.6656L88.8537 46.9356L88.3633 45.1766H88.3294L87.8728 46.9186Z" fill="#F8F9FA"/>
<path d="M80.7519 34.0579H95.9874V28.0579H80.7519V34.0579ZM102.987 41.0579V54.8874H108.987V41.0579H102.987ZM95.9874 61.8874H80.7519V67.8874H95.9874V61.8874ZM73.7519 54.8874V41.0579H67.7519V54.8874H73.7519ZM80.7519 61.8874C76.8859 61.8874 73.7519 58.7534 73.7519 54.8874H67.7519C67.7519 62.0671 73.5722 67.8874 80.7519 67.8874V61.8874ZM102.987 54.8874C102.987 58.7534 99.8534 61.8874 95.9874 61.8874V67.8874C103.167 67.8874 108.987 62.0671 108.987 54.8874H102.987ZM95.9874 34.0579C99.8534 34.0579 102.987 37.1919 102.987 41.0579H108.987C108.987 33.8782 103.167 28.0579 95.9874 28.0579V34.0579ZM80.7519 28.0579C73.5722 28.0579 67.7519 33.8782 67.7519 41.0579H73.7519C73.7519 37.1919 76.8859 34.0579 80.7519 34.0579V28.0579Z" fill="#DAECF7"/>
</g>
<g filter="url(#filter20_d)">
<path d="M99.091 83.4456C102.997 79.5406 109.328 79.541 113.233 83.4466L124.006 94.2204C127.911 98.1259 127.91 104.458 124.005 108.363L114.225 118.141C110.319 122.046 103.988 122.045 100.083 118.14L89.3105 107.366C85.4055 103.46 85.4059 97.1288 89.3114 93.2239L99.091 83.4456Z" fill="#32527B"/>
<path d="M99.4212 102.231L107.315 94.3383L113.462 100.486L111.871 102.076L107.781 97.9859L106.178 99.5883L109.431 102.841L107.936 104.336L104.683 101.083L103.069 102.698L107.314 106.943L105.723 108.534L99.4212 102.231Z" fill="#F8F9FA"/>
<path d="M111.112 85.5677L121.884 96.3416L126.127 92.0993L115.355 81.3254L111.112 85.5677ZM121.883 106.241L112.104 116.019L116.346 120.262L126.126 110.484L121.883 106.241ZM102.204 116.019L91.4319 105.245L87.189 109.487L97.9614 120.261L102.204 116.019ZM91.4326 95.3453L101.212 85.567L96.9699 81.3241L87.1903 91.1024L91.4326 95.3453ZM91.4319 105.245C88.6984 102.511 88.6987 98.0788 91.4326 95.3453L87.1903 91.1024C82.1131 96.1789 82.1125 104.41 87.189 109.487L91.4319 105.245ZM112.104 116.019C109.37 118.753 104.938 118.753 102.204 116.019L97.9614 120.261C103.038 125.338 111.269 125.339 116.346 120.262L112.104 116.019ZM121.884 96.3416C124.618 99.0755 124.617 103.508 121.883 106.241L126.126 110.484C131.203 105.408 131.204 97.1764 126.127 92.0993L121.884 96.3416ZM115.355 81.3254C110.278 76.2482 102.047 76.2477 96.9699 81.3241L101.212 85.567C103.946 82.8336 108.378 82.8339 111.112 85.5677L115.355 81.3254Z" fill="#DAECF7"/>
</g>
<g filter="url(#filter21_d)">
<path d="M89.5322 159.459C89.5322 153.937 94.0093 149.459 99.5322 149.459H114.768C120.291 149.459 124.768 153.937 124.768 159.459V173.289C124.768 178.812 120.291 183.289 114.768 183.289H99.5322C94.0093 183.289 89.5322 178.812 89.5322 173.289V159.459Z" fill="#32527B"/>
<path d="M108.601 161.346V172.508H105.692V161.346H108.601Z" fill="#F8F9FA"/>
<path d="M99.5322 152.459H114.768V146.459H99.5322V152.459ZM121.768 159.459V173.289H127.768V159.459H121.768ZM114.768 180.289H99.5322V186.289H114.768V180.289ZM92.5322 173.289V159.459H86.5322V173.289H92.5322ZM99.5322 180.289C95.6662 180.289 92.5322 177.155 92.5322 173.289H86.5322C86.5322 180.469 92.3525 186.289 99.5322 186.289V180.289ZM121.768 173.289C121.768 177.155 118.634 180.289 114.768 180.289V186.289C121.947 186.289 127.768 180.469 127.768 173.289H121.768ZM114.768 152.459C118.634 152.459 121.768 155.593 121.768 159.459H127.768C127.768 152.28 121.947 146.459 114.768 146.459V152.459ZM99.5322 146.459C92.3525 146.459 86.5322 152.28 86.5322 159.459H92.5322C92.5322 155.593 95.6662 152.459 99.5322 152.459V146.459Z" fill="#DAECF7"/>
</g>
<g filter="url(#filter22_d)">
<path d="M76.4989 222.529C72.0795 219.216 71.1819 212.949 74.4941 208.529L83.6312 196.338C86.9434 191.918 93.2111 191.021 97.6305 194.333L108.697 202.627C113.116 205.939 114.014 212.207 110.702 216.626L101.565 228.818C98.2525 233.237 91.9848 234.135 87.5653 230.823L76.4989 222.529Z" fill="#32527B"/>
<path d="M92.448 204.393L101.38 211.088L99.8386 213.145L95.7378 210.071L93.0411 207.945L93.0209 207.972L98.2157 215.31L96.8058 217.191L88.3043 214.265L88.284 214.292L91.0821 216.283L95.1829 219.357L93.631 221.427L84.6986 214.733L87.1837 211.417L92.7859 213.418L95.056 214.337L95.0763 214.31L93.5805 212.386L90.0643 207.574L92.448 204.393Z" fill="#F8F9FA"/>
<path d="M76.8947 210.328L86.0318 198.137L81.2306 194.539L72.0935 206.73L76.8947 210.328ZM95.8313 196.734L106.898 205.028L110.496 200.226L99.4297 191.932L95.8313 196.734ZM108.301 214.827L99.164 227.019L103.965 230.617L113.102 218.425L108.301 214.827ZM89.3645 228.422L78.2981 220.128L74.6997 224.929L85.7662 233.223L89.3645 228.422ZM99.164 227.019C96.8455 230.112 92.4581 230.74 89.3645 228.422L85.7662 233.223C91.5114 237.529 99.6594 236.362 103.965 230.617L99.164 227.019ZM106.898 205.028C109.991 207.346 110.62 211.733 108.301 214.827L113.102 218.425C117.408 212.68 116.241 204.532 110.496 200.226L106.898 205.028ZM86.0318 198.137C88.3504 195.043 92.7378 194.415 95.8313 196.734L99.4297 191.932C93.6845 187.627 85.5364 188.793 81.2306 194.539L86.0318 198.137ZM72.0935 206.73C67.7876 212.475 68.9545 220.623 74.6997 224.929L78.2981 220.128C75.2045 217.809 74.5762 213.422 76.8947 210.328L72.0935 206.73Z" fill="#DAECF7"/>
</g>
<g filter="url(#filter23_d)">
<path d="M108.137 254.98C105.111 250.36 106.403 244.161 111.023 241.135L123.767 232.786C128.387 229.76 134.585 231.052 137.612 235.671L145.19 247.24C148.216 251.859 146.925 258.058 142.305 261.084L129.56 269.433C124.94 272.459 118.742 271.168 115.716 266.548L108.137 254.98Z" fill="#32527B"/>
<path d="M124.503 246.514C125.634 245.772 126.695 245.468 127.686 245.601C128.679 245.719 129.5 246.273 130.149 247.263C130.798 248.253 130.981 249.232 130.698 250.199C130.418 251.151 129.712 251.997 128.58 252.739L126.727 253.953L128.766 257.065L126.333 258.659L120.216 249.322L124.503 246.514ZM127.003 251.164C128.031 250.491 128.264 249.725 127.702 248.866C127.139 248.008 126.344 247.916 125.316 248.589L123.845 249.553L125.532 252.128L127.003 251.164Z" fill="#F8F9FA"/>
<path d="M112.666 243.644L125.411 235.296L122.123 230.277L109.379 238.625L112.666 243.644ZM135.102 237.315L142.68 248.884L147.699 245.596L140.121 234.027L135.102 237.315ZM140.661 258.575L127.916 266.924L131.204 271.943L143.949 263.594L140.661 258.575ZM118.225 264.904L110.647 253.336L105.628 256.623L113.206 268.192L118.225 264.904ZM127.916 266.924C124.682 269.042 120.344 268.138 118.225 264.904L113.206 268.192C117.14 274.198 125.198 275.877 131.204 271.943L127.916 266.924ZM142.68 248.884C144.799 252.117 143.895 256.456 140.661 258.575L143.949 263.594C149.954 259.66 151.634 251.601 147.699 245.596L142.68 248.884ZM125.411 235.296C128.645 233.177 132.984 234.081 135.102 237.315L140.121 234.027C136.187 228.022 128.129 226.342 122.123 230.277L125.411 235.296ZM109.379 238.625C103.373 242.56 101.694 250.618 105.628 256.623L110.647 253.336C108.528 250.102 109.433 245.763 112.666 243.644L109.379 238.625Z" fill="#DAECF7"/>
</g>
<g filter="url(#filter24_d)">
<path d="M85.703 279.266C90.2672 276.157 96.4881 277.336 99.5979 281.9L108.177 294.491C111.286 299.055 110.107 305.276 105.543 308.385L94.1145 316.172C89.5504 319.282 83.3295 318.103 80.2197 313.539L71.6409 300.948C68.5312 296.384 69.7101 290.163 74.2743 287.054L85.703 279.266Z" fill="#32527B"/>
<path d="M94.4765 295.493C95.2257 296.592 95.5504 297.62 95.4505 298.574C95.3571 299.539 94.8771 300.316 94.0105 300.906C93.3209 301.376 92.6414 301.6 91.972 301.579C91.3182 301.561 90.6856 301.323 90.0743 300.866L87.9944 305.804L86.185 303.148L88.2106 298.882L87.2297 297.442L83.8613 299.738L82.2518 297.375L91.4767 291.09L94.4765 295.493ZM90.0968 297.986C90.4142 298.452 90.7455 298.738 91.0906 298.844C91.4356 298.95 91.8132 298.863 92.2232 298.584C92.9966 298.057 93.0658 297.327 92.4309 296.395L91.2691 294.69L88.9349 296.281L90.0968 297.986Z" fill="#F8F9FA"/>
<path d="M97.1186 283.589L105.697 296.18L110.656 292.801L102.077 280.211L97.1186 283.589ZM103.854 305.906L92.4253 313.693L95.8037 318.652L107.233 310.865L103.854 305.906ZM82.6989 311.85L74.1202 299.259L69.1617 302.638L77.7405 315.228L82.6989 311.85ZM75.9635 289.533L87.3923 281.746L84.0138 276.787L72.585 284.574L75.9635 289.533ZM74.1202 299.259C71.9433 296.064 72.7686 291.71 75.9635 289.533L72.585 284.574C66.6517 288.617 65.119 296.704 69.1617 302.638L74.1202 299.259ZM92.4253 313.693C89.2304 315.87 84.8757 315.045 82.6989 311.85L77.7405 315.228C81.7832 321.162 89.8704 322.694 95.8037 318.652L92.4253 313.693ZM105.697 296.18C107.874 299.375 107.049 303.729 103.854 305.906L107.233 310.865C113.166 306.822 114.699 298.735 110.656 292.801L105.697 296.18ZM102.077 280.211C98.0344 274.277 89.9472 272.745 84.0138 276.787L87.3923 281.746C90.5871 279.569 94.9418 280.394 97.1186 283.589L102.077 280.211Z" fill="#DAECF7"/>
</g>
<g filter="url(#filter25_d)">
<path d="M80.2145 352.739C77.7965 347.773 79.8617 341.788 84.8271 339.37L98.5249 332.7C103.49 330.282 109.476 332.347 111.894 337.312L117.948 349.746C120.366 354.712 118.301 360.697 113.336 363.115L99.6378 369.785C94.6724 372.203 88.687 370.138 86.2691 365.172L80.2145 352.739Z" fill="#32527B"/>
<path d="M101.462 344.49L102.447 346.512L99.1776 348.104L103.08 356.118L100.464 357.392L96.5621 349.378L93.2776 350.977L92.2928 348.955L101.462 344.49Z" fill="#F8F9FA"/>
<path d="M86.1405 342.067L99.8383 335.397L97.2115 330.003L83.5137 336.673L86.1405 342.067ZM109.196 338.626L115.251 351.06L120.645 348.433L114.591 335.999L109.196 338.626ZM112.022 360.418L98.3244 367.088L100.951 372.482L114.649 365.812L112.022 360.418ZM88.9663 363.859L82.9117 351.425L77.5172 354.052L83.5719 366.486L88.9663 363.859ZM98.3244 367.088C94.8486 368.78 90.6588 367.335 88.9663 363.859L83.5719 366.486C86.7152 372.941 94.4962 375.626 100.951 372.482L98.3244 367.088ZM115.251 351.06C116.944 354.535 115.498 358.725 112.022 360.418L114.649 365.812C121.104 362.669 123.789 354.888 120.645 348.433L115.251 351.06ZM99.8383 335.397C103.314 333.704 107.504 335.15 109.196 338.626L114.591 335.999C111.448 329.544 103.667 326.859 97.2115 330.003L99.8383 335.397ZM83.5137 336.673C77.0587 339.816 74.374 347.597 77.5172 354.052L82.9117 351.425C81.2191 347.949 82.6647 343.76 86.1405 342.067L83.5137 336.673Z" fill="#DAECF7"/>
</g>
<g filter="url(#filter26_d)">
<path d="M113.683 393.848C110.095 389.649 110.589 383.337 114.788 379.749L126.369 369.85C130.568 366.262 136.88 366.756 140.468 370.955L149.454 381.467C153.042 385.666 152.547 391.978 148.349 395.566L136.767 405.465C132.569 409.053 126.257 408.559 122.668 404.36L113.683 393.848Z" fill="#32527B"/>
<path d="M139.712 388.766L137.077 391.019L133.164 389.669L133.94 393.7L131.433 395.843L130.664 389.113L124.347 387.214L126.957 384.984L130.63 386.339L129.876 382.489L132.28 380.434L133.116 386.906L139.712 388.766Z" fill="#F8F9FA"/>
<path d="M116.737 382.029L128.319 372.13L124.42 367.569L112.839 377.468L116.737 382.029ZM138.188 372.904L147.173 383.417L151.734 379.518L142.749 369.005L138.188 372.904ZM146.4 393.286L134.818 403.185L138.716 407.746L150.298 397.847L146.4 393.286ZM124.949 402.411L115.964 391.898L111.403 395.797L120.388 406.31L124.949 402.411ZM134.818 403.185C131.879 405.696 127.461 405.35 124.949 402.411L120.388 406.31C125.053 411.767 133.259 412.41 138.716 407.746L134.818 403.185ZM147.173 383.417C149.685 386.355 149.339 390.774 146.4 393.286L150.298 397.847C155.756 393.182 156.399 384.976 151.734 379.518L147.173 383.417ZM128.319 372.13C131.257 369.619 135.676 369.965 138.188 372.904L142.749 369.005C138.084 363.548 129.878 362.905 124.42 367.569L128.319 372.13ZM112.839 377.468C107.381 382.133 106.738 390.339 111.403 395.797L115.964 391.898C113.452 388.96 113.798 384.541 116.737 382.029L112.839 377.468Z" fill="#DAECF7"/>
</g>
<defs>
<filter id="filter0_d" x="250.499" y="28.3641" width="48.1635" height="48.4755" filterUnits="userSpaceOnUse" color-interpolation-filters="sRGB">
<feFlood flood-opacity="0" result="BackgroundImageFix"/>
<feColorMatrix in="SourceAlpha" type="matrix" values="0 0 0 0 0 0 0 0 0 0 0 0 0 0 0 0 0 0 127 0" result="hardAlpha"/>
<feOffset dy="2"/>
<feGaussianBlur stdDeviation="0.5"/>
<feComposite in2="hardAlpha" operator="out"/>
<feColorMatrix type="matrix" values="0 0 0 0 0.0784314 0 0 0 0 0.0784314 0 0 0 0 0.0784314 0 0 0 0.8 0"/>
<feBlend mode="normal" in2="BackgroundImageFix" result="effect1_dropShadow"/>
<feBlend mode="normal" in="SourceGraphic" in2="effect1_dropShadow" result="shape"/>
</filter>
<filter id="filter1_d" x="256.3" y="102.906" width="42.9957" height="45.0426" filterUnits="userSpaceOnUse" color-interpolation-filters="sRGB">
<feFlood flood-opacity="0" result="BackgroundImageFix"/>
<feColorMatrix in="SourceAlpha" type="matrix" values="0 0 0 0 0 0 0 0 0 0 0 0 0 0 0 0 0 0 127 0" result="hardAlpha"/>
<feOffset dy="2"/>
<feGaussianBlur stdDeviation="0.5"/>
<feComposite in2="hardAlpha" operator="out"/>
<feColorMatrix type="matrix" values="0 0 0 0 0.0784314 0 0 0 0 0.0784314 0 0 0 0 0.0784314 0 0 0 0.8 0"/>
<feBlend mode="normal" in2="BackgroundImageFix" result="effect1_dropShadow"/>
<feBlend mode="normal" in="SourceGraphic" in2="effect1_dropShadow" result="shape"/>
</filter>
<filter id="filter2_d" x="260.075" y="188.122" width="47.5342" height="47.7769" filterUnits="userSpaceOnUse" color-interpolation-filters="sRGB">
<feFlood flood-opacity="0" result="BackgroundImageFix"/>
<feColorMatrix in="SourceAlpha" type="matrix" values="0 0 0 0 0 0 0 0 0 0 0 0 0 0 0 0 0 0 127 0" result="hardAlpha"/>
<feOffset dy="2"/>
<feGaussianBlur stdDeviation="0.5"/>
<feComposite in2="hardAlpha" operator="out"/>
<feColorMatrix type="matrix" values="0 0 0 0 0.0784314 0 0 0 0 0.0784314 0 0 0 0 0.0784314 0 0 0 0.8 0"/>
<feBlend mode="normal" in2="BackgroundImageFix" result="effect1_dropShadow"/>
<feBlend mode="normal" in="SourceGraphic" in2="effect1_dropShadow" result="shape"/>
</filter>
<filter id="filter3_d" x="267.425" y="242.747" width="37.2355" height="36.8295" filterUnits="userSpaceOnUse" color-interpolation-filters="sRGB">
<feFlood flood-opacity="0" result="BackgroundImageFix"/>
<feColorMatrix in="SourceAlpha" type="matrix" values="0 0 0 0 0 0 0 0 0 0 0 0 0 0 0 0 0 0 127 0" result="hardAlpha"/>
<feOffset dy="2"/>
<feGaussianBlur stdDeviation="0.5"/>
<feComposite in2="hardAlpha" operator="out"/>
<feColorMatrix type="matrix" values="0 0 0 0 0.0784314 0 0 0 0 0.0784314 0 0 0 0 0.0784314 0 0 0 0.8 0"/>
<feBlend mode="normal" in2="BackgroundImageFix" result="effect1_dropShadow"/>
<feBlend mode="normal" in="SourceGraphic" in2="effect1_dropShadow" result="shape"/>
</filter>
<filter id="filter4_d" x="251.517" y="300.532" width="46.71" height="46.8723" filterUnits="userSpaceOnUse" color-interpolation-filters="sRGB">
<feFlood flood-opacity="0" result="BackgroundImageFix"/>
<feColorMatrix in="SourceAlpha" type="matrix" values="0 0 0 0 0 0 0 0 0 0 0 0 0 0 0 0 0 0 127 0" result="hardAlpha"/>
<feOffset dy="2"/>
<feGaussianBlur stdDeviation="0.5"/>
<feComposite in2="hardAlpha" operator="out"/>
<feColorMatrix type="matrix" values="0 0 0 0 0.0784314 0 0 0 0 0.0784314 0 0 0 0 0.0784314 0 0 0 0.8 0"/>
<feBlend mode="normal" in2="BackgroundImageFix" result="effect1_dropShadow"/>
<feBlend mode="normal" in="SourceGraphic" in2="effect1_dropShadow" result="shape"/>
</filter>
<filter id="filter5_d" x="253.351" y="360.236" width="50.8407" height="51.8308" filterUnits="userSpaceOnUse" color-interpolation-filters="sRGB">
<feFlood flood-opacity="0" result="BackgroundImageFix"/>
<feColorMatrix in="SourceAlpha" type="matrix" values="0 0 0 0 0 0 0 0 0 0 0 0 0 0 0 0 0 0 127 0" result="hardAlpha"/>
<feOffset dy="2"/>
<feGaussianBlur stdDeviation="0.5"/>
<feComposite in2="hardAlpha" operator="out"/>
<feColorMatrix type="matrix" values="0 0 0 0 0.0784314 0 0 0 0 0.0784314 0 0 0 0 0.0784314 0 0 0 0.8 0"/>
<feBlend mode="normal" in2="BackgroundImageFix" result="effect1_dropShadow"/>
<feBlend mode="normal" in="SourceGraphic" in2="effect1_dropShadow" result="shape"/>
</filter>
<filter id="filter6_d" x="186.477" y="42.7582" width="49.3998" height="49.8803" filterUnits="userSpaceOnUse" color-interpolation-filters="sRGB">
<feFlood flood-opacity="0" result="BackgroundImageFix"/>
<feColorMatrix in="SourceAlpha" type="matrix" values="0 0 0 0 0 0 0 0 0 0 0 0 0 0 0 0 0 0 127 0" result="hardAlpha"/>
<feOffset dy="2"/>
<feGaussianBlur stdDeviation="0.5"/>
<feComposite in2="hardAlpha" operator="out"/>
<feColorMatrix type="matrix" values="0 0 0 0 0.0784314 0 0 0 0 0.0784314 0 0 0 0 0.0784314 0 0 0 0.8 0"/>
<feBlend mode="normal" in2="BackgroundImageFix" result="effect1_dropShadow"/>
<feBlend mode="normal" in="SourceGraphic" in2="effect1_dropShadow" result="shape"/>
</filter>
<filter id="filter7_d" x="197.582" y="102.899" width="49.6112" height="51.016" filterUnits="userSpaceOnUse" color-interpolation-filters="sRGB">
<feFlood flood-opacity="0" result="BackgroundImageFix"/>
<feColorMatrix in="SourceAlpha" type="matrix" values="0 0 0 0 0 0 0 0 0 0 0 0 0 0 0 0 0 0 127 0" result="hardAlpha"/>
<feOffset dy="2"/>
<feGaussianBlur stdDeviation="0.5"/>
<feComposite in2="hardAlpha" operator="out"/>
<feColorMatrix type="matrix" values="0 0 0 0 0.0784314 0 0 0 0 0.0784314 0 0 0 0 0.0784314 0 0 0 0.8 0"/>
<feBlend mode="normal" in2="BackgroundImageFix" result="effect1_dropShadow"/>
<feBlend mode="normal" in="SourceGraphic" in2="effect1_dropShadow" result="shape"/>
</filter>
<filter id="filter8_d" x="219.15" y="148.22" width="47.0498" height="47.2441" filterUnits="userSpaceOnUse" color-interpolation-filters="sRGB">
<feFlood flood-opacity="0" result="BackgroundImageFix"/>
<feColorMatrix in="SourceAlpha" type="matrix" values="0 0 0 0 0 0 0 0 0 0 0 0 0 0 0 0 0 0 127 0" result="hardAlpha"/>
<feOffset dy="2"/>
<feGaussianBlur stdDeviation="0.5"/>
<feComposite in2="hardAlpha" operator="out"/>
<feColorMatrix type="matrix" values="0 0 0 0 0.0784314 0 0 0 0 0.0784314 0 0 0 0 0.0784314 0 0 0 0.8 0"/>
<feBlend mode="normal" in2="BackgroundImageFix" result="effect1_dropShadow"/>
<feBlend mode="normal" in="SourceGraphic" in2="effect1_dropShadow" result="shape"/>
</filter>
<filter id="filter9_d" x="216.259" y="254.024" width="37.2355" height="36.8295" filterUnits="userSpaceOnUse" color-interpolation-filters="sRGB">
<feFlood flood-opacity="0" result="BackgroundImageFix"/>
<feColorMatrix in="SourceAlpha" type="matrix" values="0 0 0 0 0 0 0 0 0 0 0 0 0 0 0 0 0 0 127 0" result="hardAlpha"/>
<feOffset dy="2"/>
<feGaussianBlur stdDeviation="0.5"/>
<feComposite in2="hardAlpha" operator="out"/>
<feColorMatrix type="matrix" values="0 0 0 0 0.0784314 0 0 0 0 0.0784314 0 0 0 0 0.0784314 0 0 0 0.8 0"/>
<feBlend mode="normal" in2="BackgroundImageFix" result="effect1_dropShadow"/>
<feBlend mode="normal" in="SourceGraphic" in2="effect1_dropShadow" result="shape"/>
</filter>
<filter id="filter10_d" x="198.164" y="304.478" width="49.1395" height="49.5795" filterUnits="userSpaceOnUse" color-interpolation-filters="sRGB">
<feFlood flood-opacity="0" result="BackgroundImageFix"/>
<feColorMatrix in="SourceAlpha" type="matrix" values="0 0 0 0 0 0 0 0 0 0 0 0 0 0 0 0 0 0 127 0" result="hardAlpha"/>
<feOffset dy="2"/>
<feGaussianBlur stdDeviation="0.5"/>
<feComposite in2="hardAlpha" operator="out"/>
<feColorMatrix type="matrix" values="0 0 0 0 0.0784314 0 0 0 0 0.0784314 0 0 0 0 0.0784314 0 0 0 0.8 0"/>
<feBlend mode="normal" in2="BackgroundImageFix" result="effect1_dropShadow"/>
<feBlend mode="normal" in="SourceGraphic" in2="effect1_dropShadow" result="shape"/>
</filter>
<filter id="filter11_d" x="188.267" y="200.558" width="49.1699" height="49.6145" filterUnits="userSpaceOnUse" color-interpolation-filters="sRGB">
<feFlood flood-opacity="0" result="BackgroundImageFix"/>
<feColorMatrix in="SourceAlpha" type="matrix" values="0 0 0 0 0 0 0 0 0 0 0 0 0 0 0 0 0 0 127 0" result="hardAlpha"/>
<feOffset dy="2"/>
<feGaussianBlur stdDeviation="0.5"/>
<feComposite in2="hardAlpha" operator="out"/>
<feColorMatrix type="matrix" values="0 0 0 0 0.0784314 0 0 0 0 0.0784314 0 0 0 0 0.0784314 0 0 0 0.8 0"/>
<feBlend mode="normal" in2="BackgroundImageFix" result="effect1_dropShadow"/>
<feBlend mode="normal" in="SourceGraphic" in2="effect1_dropShadow" result="shape"/>
</filter>
<filter id="filter12_d" x="124.466" y="30.8455" width="48.2119" height="48.5296" filterUnits="userSpaceOnUse" color-interpolation-filters="sRGB">
<feFlood flood-opacity="0" result="BackgroundImageFix"/>
<feColorMatrix in="SourceAlpha" type="matrix" values="0 0 0 0 0 0 0 0 0 0 0 0 0 0 0 0 0 0 127 0" result="hardAlpha"/>
<feOffset dy="2"/>
<feGaussianBlur stdDeviation="0.5"/>
<feComposite in2="hardAlpha" operator="out"/>
<feColorMatrix type="matrix" values="0 0 0 0 0.0784314 0 0 0 0 0.0784314 0 0 0 0 0.0784314 0 0 0 0.8 0"/>
<feBlend mode="normal" in2="BackgroundImageFix" result="effect1_dropShadow"/>
<feBlend mode="normal" in="SourceGraphic" in2="effect1_dropShadow" result="shape"/>
</filter>
<filter id="filter13_d" x="137.855" y="90.5723" width="48.7603" height="50.2963" filterUnits="userSpaceOnUse" color-interpolation-filters="sRGB">
<feFlood flood-opacity="0" result="BackgroundImageFix"/>
<feColorMatrix in="SourceAlpha" type="matrix" values="0 0 0 0 0 0 0 0 0 0 0 0 0 0 0 0 0 0 127 0" result="hardAlpha"/>
<feOffset dy="2"/>
<feGaussianBlur stdDeviation="0.5"/>
<feComposite in2="hardAlpha" operator="out"/>
<feColorMatrix type="matrix" values="0 0 0 0 0.0784314 0 0 0 0 0.0784314 0 0 0 0 0.0784314 0 0 0 0.8 0"/>
<feBlend mode="normal" in2="BackgroundImageFix" result="effect1_dropShadow"/>
<feBlend mode="normal" in="SourceGraphic" in2="effect1_dropShadow" result="shape"/>
</filter>
<filter id="filter14_d" x="166.297" y="143.822" width="37.2355" height="36.8295" filterUnits="userSpaceOnUse" color-interpolation-filters="sRGB">
<feFlood flood-opacity="0" result="BackgroundImageFix"/>
<feColorMatrix in="SourceAlpha" type="matrix" values="0 0 0 0 0 0 0 0 0 0 0 0 0 0 0 0 0 0 127 0" result="hardAlpha"/>
<feOffset dy="2"/>
<feGaussianBlur stdDeviation="0.5"/>
<feComposite in2="hardAlpha" operator="out"/>
<feColorMatrix type="matrix" values="0 0 0 0 0.0784314 0 0 0 0 0.0784314 0 0 0 0 0.0784314 0 0 0 0.8 0"/>
<feBlend mode="normal" in2="BackgroundImageFix" result="effect1_dropShadow"/>
<feBlend mode="normal" in="SourceGraphic" in2="effect1_dropShadow" result="shape"/>
</filter>
<filter id="filter15_d" x="127.076" y="178.182" width="50.844" height="51.8237" filterUnits="userSpaceOnUse" color-interpolation-filters="sRGB">
<feFlood flood-opacity="0" result="BackgroundImageFix"/>
<feColorMatrix in="SourceAlpha" type="matrix" values="0 0 0 0 0 0 0 0 0 0 0 0 0 0 0 0 0 0 127 0" result="hardAlpha"/>
<feOffset dy="2"/>
<feGaussianBlur stdDeviation="0.5"/>
<feComposite in2="hardAlpha" operator="out"/>
<feColorMatrix type="matrix" values="0 0 0 0 0.0784314 0 0 0 0 0.0784314 0 0 0 0 0.0784314 0 0 0 0.8 0"/>
<feBlend mode="normal" in2="BackgroundImageFix" result="effect1_dropShadow"/>
<feBlend mode="normal" in="SourceGraphic" in2="effect1_dropShadow" result="shape"/>
</filter>
<filter id="filter16_d" x="152.203" y="254.024" width="37.2355" height="36.8295" filterUnits="userSpaceOnUse" color-interpolation-filters="sRGB">
<feFlood flood-opacity="0" result="BackgroundImageFix"/>
<feColorMatrix in="SourceAlpha" type="matrix" values="0 0 0 0 0 0 0 0 0 0 0 0 0 0 0 0 0 0 127 0" result="hardAlpha"/>
<feOffset dy="2"/>
<feGaussianBlur stdDeviation="0.5"/>
<feComposite in2="hardAlpha" operator="out"/>
<feColorMatrix type="matrix" values="0 0 0 0 0.0784314 0 0 0 0 0.0784314 0 0 0 0 0.0784314 0 0 0 0.8 0"/>
<feBlend mode="normal" in2="BackgroundImageFix" result="effect1_dropShadow"/>
<feBlend mode="normal" in="SourceGraphic" in2="effect1_dropShadow" result="shape"/>
</filter>
<filter id="filter17_d" x="131.303" y="300.295" width="49.2562" height="49.714" filterUnits="userSpaceOnUse" color-interpolation-filters="sRGB">
<feFlood flood-opacity="0" result="BackgroundImageFix"/>
<feColorMatrix in="SourceAlpha" type="matrix" values="0 0 0 0 0 0 0 0 0 0 0 0 0 0 0 0 0 0 127 0" result="hardAlpha"/>
<feOffset dy="2"/>
<feGaussianBlur stdDeviation="0.5"/>
<feComposite in2="hardAlpha" operator="out"/>
<feColorMatrix type="matrix" values="0 0 0 0 0.0784314 0 0 0 0 0.0784314 0 0 0 0 0.0784314 0 0 0 0.8 0"/>
<feBlend mode="normal" in2="BackgroundImageFix" result="effect1_dropShadow"/>
<feBlend mode="normal" in="SourceGraphic" in2="effect1_dropShadow" result="shape"/>
</filter>
<filter id="filter18_d" x="172.275" y="273.41" width="49.2905" height="49.7536" filterUnits="userSpaceOnUse" color-interpolation-filters="sRGB">
<feFlood flood-opacity="0" result="BackgroundImageFix"/>
<feColorMatrix in="SourceAlpha" type="matrix" values="0 0 0 0 0 0 0 0 0 0 0 0 0 0 0 0 0 0 127 0" result="hardAlpha"/>
<feOffset dy="2"/>
<feGaussianBlur stdDeviation="0.5"/>
<feComposite in2="hardAlpha" operator="out"/>
<feColorMatrix type="matrix" values="0 0 0 0 0.0784314 0 0 0 0 0.0784314 0 0 0 0 0.0784314 0 0 0 0.8 0"/>
<feBlend mode="normal" in2="BackgroundImageFix" result="effect1_dropShadow"/>
<feBlend mode="normal" in="SourceGraphic" in2="effect1_dropShadow" result="shape"/>
</filter>
<filter id="filter19_d" x="69.7519" y="31.0579" width="37.2355" height="36.8295" filterUnits="userSpaceOnUse" color-interpolation-filters="sRGB">
<feFlood flood-opacity="0" result="BackgroundImageFix"/>
<feColorMatrix in="SourceAlpha" type="matrix" values="0 0 0 0 0 0 0 0 0 0 0 0 0 0 0 0 0 0 127 0" result="hardAlpha"/>
<feOffset dy="2"/>
<feGaussianBlur stdDeviation="0.5"/>
<feComposite in2="hardAlpha" operator="out"/>
<feColorMatrix type="matrix" values="0 0 0 0 0.0784314 0 0 0 0 0.0784314 0 0 0 0 0.0784314 0 0 0 0.8 0"/>
<feBlend mode="normal" in2="BackgroundImageFix" result="effect1_dropShadow"/>
<feBlend mode="normal" in="SourceGraphic" in2="effect1_dropShadow" result="shape"/>
</filter>
<filter id="filter20_d" x="81.2399" y="76.375" width="50.8363" height="51.8364" filterUnits="userSpaceOnUse" color-interpolation-filters="sRGB">
<feFlood flood-opacity="0" result="BackgroundImageFix"/>
<feColorMatrix in="SourceAlpha" type="matrix" values="0 0 0 0 0 0 0 0 0 0 0 0 0 0 0 0 0 0 127 0" result="hardAlpha"/>
<feOffset dy="2"/>
<feGaussianBlur stdDeviation="0.5"/>
<feComposite in2="hardAlpha" operator="out"/>
<feColorMatrix type="matrix" values="0 0 0 0 0.0784314 0 0 0 0 0.0784314 0 0 0 0 0.0784314 0 0 0 0.8 0"/>
<feBlend mode="normal" in2="BackgroundImageFix" result="effect1_dropShadow"/>
<feBlend mode="normal" in="SourceGraphic" in2="effect1_dropShadow" result="shape"/>
</filter>
<filter id="filter21_d" x="88.5322" y="149.459" width="37.2355" height="36.8295" filterUnits="userSpaceOnUse" color-interpolation-filters="sRGB">
<feFlood flood-opacity="0" result="BackgroundImageFix"/>
<feColorMatrix in="SourceAlpha" type="matrix" values="0 0 0 0 0 0 0 0 0 0 0 0 0 0 0 0 0 0 127 0" result="hardAlpha"/>
<feOffset dy="2"/>
<feGaussianBlur stdDeviation="0.5"/>
<feComposite in2="hardAlpha" operator="out"/>
<feColorMatrix type="matrix" values="0 0 0 0 0.0784314 0 0 0 0 0.0784314 0 0 0 0 0.0784314 0 0 0 0.8 0"/>
<feBlend mode="normal" in2="BackgroundImageFix" result="effect1_dropShadow"/>
<feBlend mode="normal" in="SourceGraphic" in2="effect1_dropShadow" result="shape"/>
</filter>
<filter id="filter22_d" x="67.4968" y="188.336" width="50.2022" height="51.4841" filterUnits="userSpaceOnUse" color-interpolation-filters="sRGB">
<feFlood flood-opacity="0" result="BackgroundImageFix"/>
<feColorMatrix in="SourceAlpha" type="matrix" values="0 0 0 0 0 0 0 0 0 0 0 0 0 0 0 0 0 0 127 0" result="hardAlpha"/>
<feOffset dy="2"/>
<feGaussianBlur stdDeviation="0.5"/>
<feComposite in2="hardAlpha" operator="out"/>
<feColorMatrix type="matrix" values="0 0 0 0 0.0784314 0 0 0 0 0.0784314 0 0 0 0 0.0784314 0 0 0 0.8 0"/>
<feBlend mode="normal" in2="BackgroundImageFix" result="effect1_dropShadow"/>
<feBlend mode="normal" in="SourceGraphic" in2="effect1_dropShadow" result="shape"/>
</filter>
<filter id="filter23_d" x="101.658" y="227.306" width="50.0121" height="50.6064" filterUnits="userSpaceOnUse" color-interpolation-filters="sRGB">
<feFlood flood-opacity="0" result="BackgroundImageFix"/>
<feColorMatrix in="SourceAlpha" type="matrix" values="0 0 0 0 0 0 0 0 0 0 0 0 0 0 0 0 0 0 127 0" result="hardAlpha"/>
<feOffset dy="2"/>
<feGaussianBlur stdDeviation="0.5"/>
<feComposite in2="hardAlpha" operator="out"/>
<feColorMatrix type="matrix" values="0 0 0 0 0.0784314 0 0 0 0 0.0784314 0 0 0 0 0.0784314 0 0 0 0.8 0"/>
<feBlend mode="normal" in2="BackgroundImageFix" result="effect1_dropShadow"/>
<feBlend mode="normal" in="SourceGraphic" in2="effect1_dropShadow" result="shape"/>
</filter>
<filter id="filter24_d" x="65.0102" y="273.636" width="49.7971" height="51.1674" filterUnits="userSpaceOnUse" color-interpolation-filters="sRGB">
<feFlood flood-opacity="0" result="BackgroundImageFix"/>
<feColorMatrix in="SourceAlpha" type="matrix" values="0 0 0 0 0 0 0 0 0 0 0 0 0 0 0 0 0 0 127 0" result="hardAlpha"/>
<feOffset dy="2"/>
<feGaussianBlur stdDeviation="0.5"/>
<feComposite in2="hardAlpha" operator="out"/>
<feColorMatrix type="matrix" values="0 0 0 0 0.0784314 0 0 0 0 0.0784314 0 0 0 0 0.0784314 0 0 0 0.8 0"/>
<feBlend mode="normal" in2="BackgroundImageFix" result="effect1_dropShadow"/>
<feBlend mode="normal" in="SourceGraphic" in2="effect1_dropShadow" result="shape"/>
</filter>
<filter id="filter25_d" x="74.8364" y="328.322" width="48.4899" height="48.8414" filterUnits="userSpaceOnUse" color-interpolation-filters="sRGB">
<feFlood flood-opacity="0" result="BackgroundImageFix"/>
<feColorMatrix in="SourceAlpha" type="matrix" values="0 0 0 0 0 0 0 0 0 0 0 0 0 0 0 0 0 0 127 0" result="hardAlpha"/>
<feOffset dy="2"/>
<feGaussianBlur stdDeviation="0.5"/>
<feComposite in2="hardAlpha" operator="out"/>
<feColorMatrix type="matrix" values="0 0 0 0 0.0784314 0 0 0 0 0.0784314 0 0 0 0 0.0784314 0 0 0 0.8 0"/>
<feBlend mode="normal" in2="BackgroundImageFix" result="effect1_dropShadow"/>
<feBlend mode="normal" in="SourceGraphic" in2="effect1_dropShadow" result="shape"/>
</filter>
<filter id="filter26_d" x="106.186" y="363.353" width="50.7648" height="51.6095" filterUnits="userSpaceOnUse" color-interpolation-filters="sRGB">
<feFlood flood-opacity="0" result="BackgroundImageFix"/>
<feColorMatrix in="SourceAlpha" type="matrix" values="0 0 0 0 0 0 0 0 0 0 0 0 0 0 0 0 0 0 127 0" result="hardAlpha"/>
<feOffset dy="2"/>
<feGaussianBlur stdDeviation="0.5"/>
<feComposite in2="hardAlpha" operator="out"/>
<feColorMatrix type="matrix" values="0 0 0 0 0.0784314 0 0 0 0 0.0784314 0 0 0 0 0.0784314 0 0 0 0.8 0"/>
<feBlend mode="normal" in2="BackgroundImageFix" result="effect1_dropShadow"/>
<feBlend mode="normal" in="SourceGraphic" in2="effect1_dropShadow" result="shape"/>
</filter>
</defs>
</svg>
