<svg width="40" height="44" viewBox="0 0 40 44" fill="none" xmlns="http://www.w3.org/2000/svg">
<g filter="url(#filter0_d)">
<rect x="2" y="2" width="36" height="36" rx="12" fill="#F8F9FA"/>
<path fill-rule="evenodd" clip-rule="evenodd" d="M19.0649 13.5917C18.8302 13.7783 18.5474 14.1367 18.1647 14.8917C18.069 15.0919 17.9343 15.2709 17.7686 15.4182C17.6029 15.5656 17.4095 15.6783 17.1997 15.7498C16.9899 15.8212 16.768 15.85 16.5469 15.8344C16.3259 15.8188 16.1102 15.7591 15.9125 15.6589C15.7148 15.5587 15.5391 15.4199 15.3956 15.2507C15.2522 15.0815 15.144 14.8853 15.0772 14.6737C15.0105 14.462 14.9867 14.2392 15.0071 14.0181C15.0276 13.7971 15.0919 13.5824 15.1963 13.3867C15.6455 12.495 16.1946 11.6167 16.9999 10.9783C17.8635 10.2933 18.8702 10 20.0083 10C23.1148 10 25 12.5133 25 14.9633C25 16.1483 24.6739 17.155 23.8802 18.0983C23.3311 18.7517 22.574 19.3483 21.6722 19.9717V21.6667C21.6722 22.1087 21.4969 22.5326 21.1849 22.8452C20.8728 23.1577 20.4496 23.3333 20.0083 23.3333C19.567 23.3333 19.1438 23.1577 18.8317 22.8452C18.5197 22.5326 18.3444 22.1087 18.3444 21.6667V18.1867L19.0931 17.6933C20.3544 16.8583 20.9917 16.36 21.3361 15.95C21.5824 15.6567 21.6722 15.4267 21.6722 14.9633C21.6722 14.1167 21.0482 13.3333 20.0083 13.3333C19.4808 13.3333 19.2412 13.4517 19.0649 13.5917ZM21.1849 26.3215C21.4969 26.6341 21.6722 27.058 21.6722 27.5V28.3333C21.6722 28.7754 21.4969 29.1993 21.1849 29.5118C20.8728 29.8244 20.4496 30 20.0083 30C19.567 30 19.1438 29.8244 18.8317 29.5118C18.5197 29.1993 18.3444 28.7754 18.3444 28.3333V27.5C18.3444 27.058 18.5197 26.6341 18.8317 26.3215C19.1438 26.0089 19.567 25.8333 20.0083 25.8333C20.4496 25.8333 20.8728 26.0089 21.1849 26.3215Z" fill="#272727"/>
<rect x="1" y="1" width="38" height="38" rx="13" stroke="#F8F9FA" stroke-width="2"/>
</g>
<defs>
<filter id="filter0_d" x="0" y="0" width="40" height="44" filterUnits="userSpaceOnUse" color-interpolation-filters="sRGB">
<feFlood flood-opacity="0" result="BackgroundImageFix"/>
<feColorMatrix in="SourceAlpha" type="matrix" values="0 0 0 0 0 0 0 0 0 0 0 0 0 0 0 0 0 0 127 0" result="hardAlpha"/>
<feOffset dy="4"/>
<feComposite in2="hardAlpha" operator="out"/>
<feColorMatrix type="matrix" values="0 0 0 0 0.678431 0 0 0 0 0.709804 0 0 0 0 0.741176 0 0 0 1 0"/>
<feBlend mode="normal" in2="BackgroundImageFix" result="effect1_dropShadow"/>
<feBlend mode="normal" in="SourceGraphic" in2="effect1_dropShadow" result="shape"/>
</filter>
</defs>
</svg>
