<svg width="10" height="20" viewBox="0 0 10 20" fill="none" xmlns="http://www.w3.org/2000/svg">
<path fill-rule="evenodd" clip-rule="evenodd" d="M4.06486 3.59167C3.83024 3.77833 3.54738 4.13667 3.16468 4.89167C3.06898 5.09186 2.93433 5.27088 2.76862 5.41824C2.60291 5.5656 2.40949 5.67831 2.1997 5.74978C1.98991 5.82125 1.76799 5.85002 1.54695 5.83442C1.32591 5.81881 1.11021 5.75914 0.912505 5.6589C0.714801 5.55866 0.539076 5.41988 0.395643 5.2507C0.25221 5.08152 0.143959 4.88534 0.0772422 4.67369C0.010525 4.46203 -0.0133148 4.23916 0.00712332 4.01815C0.0275615 3.79714 0.0918654 3.58245 0.196261 3.38667C0.645517 2.495 1.19461 1.61667 1.99994 0.978335C2.86351 0.293335 3.87018 1.90735e-06 5.00829 1.90735e-06C8.11482 1.90735e-06 10 2.51333 10 4.96333C10 6.14833 9.6739 7.155 8.88022 8.09834C8.33113 8.75167 7.57405 9.34833 6.67221 9.97167V11.6667C6.67221 12.1087 6.4969 12.5326 6.18486 12.8452C5.87281 13.1577 5.44959 13.3333 5.00829 13.3333C4.567 13.3333 4.14378 13.1577 3.83173 12.8452C3.51969 12.5326 3.34438 12.1087 3.34438 11.6667V8.18667L4.09314 7.69334C5.35439 6.85834 5.99167 6.36 6.3361 5.95C6.58236 5.65667 6.67221 5.42667 6.67221 4.96333C6.67221 4.11667 6.04824 3.33334 5.00829 3.33334C4.48083 3.33334 4.24123 3.45167 4.06486 3.59167ZM6.18486 16.3215C6.4969 16.6341 6.67221 17.058 6.67221 17.5V18.3333C6.67221 18.7754 6.4969 19.1993 6.18486 19.5118C5.87281 19.8244 5.44959 20 5.00829 20C4.567 20 4.14378 19.8244 3.83173 19.5118C3.51969 19.1993 3.34438 18.7754 3.34438 18.3333V17.5C3.34438 17.058 3.51969 16.6341 3.83173 16.3215C4.14378 16.0089 4.567 15.8333 5.00829 15.8333C5.44959 15.8333 5.87281 16.0089 6.18486 16.3215Z" fill="#F8F9FA"/>
</svg>
