<svg width="20" height="20" viewBox="0 0 20 20" fill="none" xmlns="http://www.w3.org/2000/svg">
<path d="M20 1.66667V7.5C20 7.72569 19.9175 7.92101 19.7526 8.08594C19.5877 8.25087 19.3924 8.33333 19.1667 8.33333H13.3333C12.9688 8.33333 12.7127 8.15972 12.5651 7.8125C12.4175 7.47396 12.4783 7.17448 12.7474 6.91406L14.5443 5.11719C13.2595 3.92795 11.7448 3.33333 10 3.33333C9.09722 3.33333 8.23568 3.50911 7.41536 3.86068C6.59505 4.21224 5.88542 4.6875 5.28646 5.28646C4.6875 5.88542 4.21224 6.59505 3.86068 7.41536C3.50911 8.23568 3.33333 9.09722 3.33333 10C3.33333 10.9028 3.50911 11.7643 3.86068 12.5846C4.21224 13.4049 4.6875 14.1146 5.28646 14.7135C5.88542 15.3125 6.59505 15.7878 7.41536 16.1393C8.23568 16.4909 9.09722 16.6667 10 16.6667C11.033 16.6667 12.0095 16.441 12.9297 15.9896C13.8498 15.5382 14.6267 14.9002 15.2604 14.0755C15.3212 13.9887 15.421 13.9366 15.5599 13.9193C15.6901 13.9193 15.7986 13.9583 15.8854 14.0365L17.6693 15.8333C17.7474 15.9028 17.7886 15.9918 17.793 16.1003C17.7973 16.2088 17.7648 16.3064 17.6953 16.3932C16.7491 17.5391 15.6033 18.4266 14.2578 19.056C12.9123 19.6853 11.4931 20 10 20C8.64583 20 7.35243 19.7352 6.11979 19.2057C4.88715 18.6762 3.82378 17.9644 2.92969 17.0703C2.03559 16.1762 1.32378 15.1128 0.794271 13.8802C0.264757 12.6476 0 11.3542 0 10C0 8.64583 0.264757 7.35243 0.794271 6.11979C1.32378 4.88715 2.03559 3.82378 2.92969 2.92969C3.82378 2.03559 4.88715 1.32378 6.11979 0.794271C7.35243 0.264757 8.64583 0 10 0C11.276 0 12.5109 0.240885 13.7044 0.722656C14.898 1.20443 15.9592 1.88368 16.888 2.76042L18.5807 1.08073C18.8325 0.811632 19.1363 0.750868 19.4922 0.898437C19.8307 1.04601 20 1.30208 20 1.66667Z" fill="#272727"/>
</svg>
