<svg width="18" height="18" viewBox="0 0 18 18" fill="none" xmlns="http://www.w3.org/2000/svg">
<path d="M10.4574 7.54583L10.4426 2.54853L10.4426 2.54853L10.4426 2.54505C10.4327 2.16985 10.2765 1.81348 10.0071 1.55221C9.73779 1.29095 9.37684 1.14558 9.00152 1.14718C8.62621 1.14879 8.26635 1.29723 7.99891 1.56071C7.73148 1.82419 7.57769 2.18182 7.57048 2.55708L7.57044 2.55708L7.57045 2.56044L7.58609 7.55703L2.59046 7.57582C2.3997 7.57254 2.21017 7.60729 2.03293 7.67805L2.08855 7.81736L2.03293 7.67805C1.85516 7.74902 1.69334 7.8548 1.55698 7.98915C1.42061 8.1235 1.31244 8.28373 1.23882 8.46043C1.1652 8.63713 1.12762 8.82674 1.12828 9.01812C1.12895 9.20951 1.16785 9.39881 1.24271 9.5749L1.38075 9.51622L1.24271 9.5749C1.31756 9.751 1.42687 9.91034 1.5642 10.0436C1.70153 10.1768 1.86412 10.2812 2.0424 10.3507C2.22014 10.4199 2.40989 10.453 2.6006 10.4481L7.59414 10.4294L7.60977 15.4233C7.60409 15.6151 7.6369 15.8062 7.70628 15.9851C7.77598 16.1648 7.88117 16.3287 8.01558 16.4668C8.14999 16.605 8.31086 16.7147 8.48861 16.7893C8.66635 16.864 8.85732 16.9021 9.05014 16.9013C9.24296 16.9006 9.43367 16.861 9.61091 16.785C9.78815 16.709 9.9483 16.598 10.0818 16.4589C10.2153 16.3197 10.3195 16.155 10.3881 15.9748C10.4563 15.7954 10.4879 15.6041 10.4811 15.4123L10.4663 10.4191L15.4627 10.3994C15.6513 10.3987 15.838 10.3608 16.0121 10.2879C16.1861 10.215 16.3441 10.1086 16.4771 9.9747C16.61 9.84079 16.7154 9.68203 16.787 9.50746C16.8586 9.33289 16.8952 9.14594 16.8946 8.95728C16.894 8.76862 16.8563 8.58195 16.7835 8.40792C16.7108 8.23389 16.6045 8.07591 16.4706 7.94302C16.3368 7.81012 16.1781 7.70491 16.0036 7.63339C15.829 7.56187 15.6421 7.52545 15.4534 7.52619L10.4574 7.54583Z" fill="#F8F9FA" stroke="#F8F9FA" stroke-width="0.3"/>
</svg>
