<svg width="15" height="10" viewBox="0 0 15 10" fill="none" xmlns="http://www.w3.org/2000/svg">
<path d="M12.3061 0.363454L5.48961 6.98778L2.76301 4.33805C2.64771 4.20721 2.50583 4.10095 2.34626 4.02593C2.1867 3.9509 2.0129 3.90875 1.83577 3.9021C1.65865 3.89545 1.48202 3.92445 1.31698 3.98729C1.15194 4.05013 1.00204 4.14544 0.8767 4.26725C0.75136 4.38905 0.653282 4.53472 0.588623 4.69511C0.523963 4.8555 0.494117 5.02715 0.500958 5.19928C0.5078 5.37141 0.551181 5.54031 0.628379 5.69538C0.705577 5.85044 0.814925 5.98833 0.94956 6.10037L4.58932 9.63752C4.82887 9.86842 5.15221 9.9986 5.48961 9.99998C5.65887 10.0009 5.82667 9.9694 5.98337 9.9072C6.14006 9.845 6.28259 9.75336 6.40277 9.63752L14.1196 2.13827C14.2401 2.02208 14.3358 1.88385 14.4011 1.73154C14.4664 1.57923 14.5 1.41586 14.5 1.25086C14.5 1.08587 14.4664 0.9225 14.4011 0.770192C14.3358 0.617883 14.2401 0.479646 14.1196 0.363454C13.8786 0.130664 13.5526 0 13.2128 0C12.8731 0 12.5471 0.130664 12.3061 0.363454Z" fill="#F8F9FA"/>
</svg>
