<svg width="16" height="16" viewBox="0 0 16 16" fill="none" xmlns="http://www.w3.org/2000/svg">
<path d="M15.4546 3.36911C15.6193 3.21542 15.7521 3.03078 15.8455 2.82571C15.9389 2.62064 15.9911 2.39917 15.999 2.17394C16.0068 1.94871 15.9703 1.72413 15.8915 1.51303C15.8126 1.30193 15.693 1.10843 15.5394 0.943593C15.3859 0.778755 15.2014 0.6458 14.9965 0.552322C14.7916 0.458843 14.5703 0.40667 14.3452 0.398782C14.1202 0.390895 13.8958 0.427448 13.6849 0.506352C13.4739 0.585257 13.2806 0.704969 13.1159 0.858653L8.09901 5.5398L3.42161 0.517176C3.10865 0.196368 2.68265 0.0108934 2.23477 0.000440251C1.78689 -0.0100129 1.35272 0.155386 1.02515 0.461245C0.697578 0.767104 0.502632 1.18913 0.482026 1.63701C0.46142 2.08489 0.616791 2.52306 0.914892 2.85775L5.59228 7.87866L0.573689 12.5598C0.403164 12.7119 0.264735 12.8966 0.166529 13.103C0.0683232 13.3095 0.0123219 13.5334 0.00181474 13.7618C-0.00869238 13.9902 0.0265059 14.2184 0.105343 14.4329C0.18418 14.6475 0.305066 14.8442 0.4609 15.0113C0.616735 15.1785 0.804376 15.3128 1.0128 15.4064C1.22123 15.5 1.44624 15.5509 1.67461 15.5562C1.90299 15.5616 2.13012 15.5212 2.34268 15.4374C2.55524 15.3537 2.74893 15.2283 2.91238 15.0685L7.92926 10.3891L12.6067 15.41C12.7577 15.5838 12.9421 15.7254 13.149 15.8264C13.3559 15.9273 13.5809 15.9856 13.8108 15.9976C14.0406 16.0097 14.2705 15.9753 14.4868 15.8965C14.7031 15.8177 14.9013 15.6962 15.0696 15.5391C15.238 15.3821 15.373 15.1927 15.4667 14.9823C15.5603 14.7719 15.6107 14.5447 15.6148 14.3144C15.6189 14.0841 15.5766 13.8554 15.4904 13.6418C15.4043 13.4282 15.2761 13.2341 15.1134 13.0712L10.4377 8.05025L15.4546 3.36911Z" fill="#F8F9FA"/>
</svg>
