<svg width="28" height="28" viewBox="0 0 28 28" fill="none" xmlns="http://www.w3.org/2000/svg">
<path d="M15.8002 10.3993H6.79841C5.80551 10.3993 4.99805 11.2068 4.99805 12.1997V21.2015C4.99805 22.1944 5.80551 23.0018 6.79841 23.0018H15.8002C16.7931 23.0018 17.6006 22.1944 17.6006 21.2015V12.1997C17.6006 11.2068 16.7931 10.3993 15.8002 10.3993Z" fill="#272727"/>
<path d="M21.2016 4.99817H12.1998C11.7223 4.99817 11.2644 5.18785 10.9267 5.52548C10.5891 5.86312 10.3994 6.32105 10.3994 6.79853V8.5989H17.6009C18.0784 8.5989 18.5363 8.78858 18.8739 9.12621C19.2116 9.46385 19.4012 9.92178 19.4012 10.3993V17.6007H21.2016C21.6791 17.6007 22.137 17.411 22.4747 17.0734C22.8123 16.7358 23.002 16.2778 23.002 15.8004V6.79853C23.002 6.32105 22.8123 5.86312 22.4747 5.52548C22.137 5.18785 21.6791 4.99817 21.2016 4.99817Z" fill="#272727"/>
</svg>
