<svg width="28" height="28" viewBox="0 0 28 28" fill="none" xmlns="http://www.w3.org/2000/svg">
<path d="M15.8004 10.3993H6.79853C5.80563 10.3993 4.99817 11.2068 4.99817 12.1997V21.2015C4.99817 22.1944 5.80563 23.0018 6.79853 23.0018H15.8004C16.7933 23.0018 17.6007 22.1944 17.6007 21.2015V12.1997C17.6007 11.2068 16.7933 10.3993 15.8004 10.3993Z" fill="#F8F9FA"/>
<path d="M21.2015 4.99817H12.1997C11.7222 4.99817 11.2642 5.18785 10.9266 5.52548C10.589 5.86312 10.3993 6.32105 10.3993 6.79853V8.5989H17.6008C18.0782 8.5989 18.5362 8.78858 18.8738 9.12621C19.2114 9.46385 19.4011 9.92178 19.4011 10.3993V17.6007H21.2015C21.679 17.6007 22.1369 17.411 22.4745 17.0734C22.8122 16.7358 23.0018 16.2778 23.0018 15.8004V6.79853C23.0018 6.32105 22.8122 5.86312 22.4745 5.52548C22.1369 5.18785 21.679 4.99817 21.2015 4.99817Z" fill="#F8F9FA"/>
</svg>
