<svg width="181" height="181" viewBox="0 0 181 181" fill="none" xmlns="http://www.w3.org/2000/svg">
<path d="M90.8587 178.777C139.758 178.777 179.399 139.137 179.399 90.2372C179.399 41.3379 139.758 1.69712 90.8587 1.69712C41.9594 1.69712 2.31858 41.3379 2.31858 90.2372C2.31858 139.137 41.9594 178.777 90.8587 178.777Z" fill="#6B7278" stroke="#495057" stroke-width="3.20122"/>
<path d="M28.0577 89.7045C28.0577 55.0206 56.1753 26.903 90.8592 26.903C125.543 26.903 153.661 55.0206 153.661 89.7045C153.67 99.0498 151.589 108.279 147.57 116.716C143.551 125.153 137.697 132.585 130.435 138.467C129.147 139.516 127.817 140.511 126.447 141.455C112.283 150.446 94.3907 150.446 78.2377 149.007C76.6697 148.772 75.1064 148.475 73.5549 148.134C67.356 146.768 61.3548 144.661 55.8104 141.589C54.4402 140.745 53.1116 139.833 51.8245 138.853C50.5309 137.868 49.2893 136.817 48.1047 135.703C46.9841 134.663 45.9018 133.581 44.8581 132.459C34.0417 120.852 28.0368 105.57 28.0577 89.7045Z" fill="#ADB5BD"/>
<path opacity="0.5" d="M36.6176 121.365C36.7824 121.648 36.9448 121.93 37.1143 122.208C37.2156 122.378 37.3215 122.543 37.4275 122.712C37.5828 122.964 37.7382 123.216 37.8983 123.463C38.0113 123.642 38.1338 123.816 38.2421 123.991C38.3974 124.226 38.5528 124.461 38.7129 124.697C38.833 124.876 38.9484 125.055 39.0802 125.234C39.2356 125.469 39.391 125.686 39.5511 125.912C39.6782 126.093 39.81 126.272 39.9395 126.453C40.069 126.634 40.255 126.889 40.4104 127.105C40.5658 127.322 40.6811 127.465 40.8177 127.644C40.9542 127.823 41.1402 128.068 41.305 128.28C41.4698 128.492 41.5852 128.636 41.7265 128.812C41.8677 128.989 42.0584 129.227 42.2256 129.431C42.3927 129.636 42.5151 129.782 42.6611 129.956C42.8071 130.131 43.0001 130.361 43.172 130.561C43.3439 130.762 43.471 130.908 43.6217 131.079L44.1443 131.668C44.2974 131.84 44.4528 132.007 44.6152 132.176C44.8177 132.398 45.0225 132.617 45.2273 132.833L45.5122 133.135C45.8159 133.45 46.122 133.766 46.4327 134.076L46.494 134.14C46.7977 134.441 47.1061 134.74 47.4145 135.037L47.7865 135.39C48.0101 135.6 48.2338 135.809 48.4598 136.016L48.7329 136.266C48.9683 136.487 49.225 136.704 49.4722 136.92C50.2412 137.591 51.026 138.233 51.8265 138.849C53.1119 139.828 54.4406 140.74 55.8124 141.584C61.3568 144.645 67.3485 146.764 73.5569 148.129C75.1084 148.471 76.6716 148.765 78.2396 149.003C88.1513 149.886 98.7222 150.222 108.676 148.278C92.8482 143.618 16.8366 116.247 64.6787 32.6075C64.0383 32.9018 63.4074 33.2055 62.7811 33.521L62.6422 33.5893C62.355 33.7329 62.0678 33.8812 61.7829 34.0319L61.5475 34.1567C60.6623 34.6275 59.7864 35.1149 58.9271 35.6234L58.7152 35.7482C58.4421 35.9107 58.1714 36.0755 57.9006 36.2426L57.6958 36.3697C56.8545 36.8955 56.0266 37.4394 55.212 38.0013L54.9577 38.1779C54.7011 38.3568 54.4492 38.5357 54.1973 38.717L54.0419 38.8277C53.5287 39.2028 53.0217 39.5826 52.521 39.9671L52.375 40.0802C52.1396 40.2638 51.9042 40.4521 51.6688 40.6428L51.3933 40.8641C51.1579 41.0548 50.9224 41.2455 50.687 41.441C50.1902 41.853 49.7005 42.2767 49.2179 42.7052L48.9495 42.9407L48.3162 43.5175L48.0101 43.7953C47.3384 44.4231 46.6815 45.0643 46.0396 45.7188L45.7147 46.0507C45.5287 46.2438 45.3427 46.4368 45.1591 46.6322C45.0508 46.7476 44.9425 46.8677 44.8365 46.9807C44.5132 47.326 44.1946 47.676 43.8807 48.0307C43.7747 48.1508 43.6664 48.2661 43.5605 48.3933C43.3933 48.584 43.2285 48.777 43.0637 48.9701L42.7082 49.3915C42.5481 49.5822 42.388 49.7729 42.2373 49.9659C42.1102 50.1213 41.9831 50.2791 41.8583 50.4368C41.6064 50.7499 41.3592 51.0631 41.1143 51.3785C40.9872 51.5433 40.8601 51.7081 40.7353 51.8753C40.6105 52.0425 40.4528 52.2496 40.3139 52.4403C40.175 52.631 40.0619 52.7817 39.9395 52.9536C39.8171 53.1254 39.6735 53.3185 39.544 53.5021C39.3211 53.8161 39.1014 54.1339 38.8848 54.4556C38.7671 54.6275 38.6494 54.8041 38.534 54.9783C38.4186 55.1525 38.275 55.3691 38.1479 55.5669L37.7971 56.1107L37.4016 56.7487C37.3003 56.9112 37.1991 57.0736 37.1002 57.2361C36.8907 57.5798 36.6882 57.9259 36.4857 58.272L36.1985 58.7805C36.0714 59.0042 35.9442 59.2302 35.8195 59.4562C35.7253 59.6281 35.6311 59.7999 35.5393 59.9718C35.3886 60.252 35.2403 60.5345 35.092 60.817L34.8095 61.3679C34.6588 61.6693 34.5081 61.9683 34.3598 62.272C34.2821 62.4344 34.202 62.5992 34.1243 62.764C34.0019 63.0207 33.8889 63.2796 33.7641 63.5386C33.6912 63.694 33.6205 63.8494 33.5499 64.0095C33.3757 64.3971 33.2054 64.7895 33.039 65.1866C32.9872 65.3091 32.9378 65.4338 32.886 65.5563C32.7612 65.8553 32.6388 66.1543 32.5187 66.4556C32.4551 66.6134 32.3939 66.7711 32.3327 66.9265C32.215 67.2231 32.0973 67.5221 31.9913 67.8211C31.9419 67.9506 31.8925 68.0801 31.8454 68.2096C31.6978 68.6224 31.5526 69.0352 31.4098 69.448L31.278 69.8482C31.1744 70.1621 31.0732 70.476 30.9743 70.7899L30.833 71.2396C30.7224 71.6022 30.6141 71.9647 30.5105 72.3296C30.4869 72.4073 30.4634 72.485 30.4422 72.5651C30.3198 72.9983 30.2021 73.433 30.089 73.8694C30.0514 74.0083 30.0184 74.1495 29.9831 74.2884C29.9007 74.6157 29.8207 74.9429 29.7477 75.2725L29.6488 75.6846C29.5475 76.1319 29.4487 76.5792 29.3569 77.0289L29.3215 77.2101C29.2415 77.6104 29.163 78.0106 29.0861 78.4109C29.0602 78.5545 29.0367 78.6957 29.0108 78.8393C28.9496 79.1901 28.8907 79.5456 28.8365 79.8988C28.8177 80.0189 28.7965 80.1342 28.78 80.2566C28.7094 80.7157 28.6458 81.1772 28.5846 81.641L28.5493 81.947C28.5022 82.3214 28.4599 82.6981 28.4198 83.0748C28.4057 83.216 28.3892 83.3573 28.3751 83.5009C28.3374 83.8964 28.3021 84.2943 28.2692 84.6922C28.2692 84.7746 28.255 84.8546 28.2503 84.9276C28.2158 85.3985 28.1852 85.8733 28.1585 86.352C28.1585 86.4768 28.1585 86.6039 28.142 86.7287C28.1263 87.0991 28.1122 87.4687 28.0996 87.8376C28.0996 87.9765 28.0996 88.1154 28.0996 88.2543C28.0996 88.7369 28.0808 89.2219 28.0808 89.7069C28.0808 89.7069 28.0808 89.7234 28.0808 89.7304C28.0808 90.2531 28.0808 90.771 28.0996 91.289C28.0996 91.4679 28.1138 91.6468 28.1185 91.8258C28.1302 92.1719 28.142 92.5179 28.1585 92.864C28.1585 93.0736 28.1844 93.2808 28.1962 93.4903C28.215 93.8034 28.2315 94.1165 28.255 94.432C28.2715 94.6674 28.2927 94.877 28.3115 95.0983C28.3374 95.3949 28.361 95.6916 28.3916 95.9859C28.4128 96.2213 28.441 96.4426 28.4646 96.671C28.4975 96.9558 28.5281 97.2431 28.5634 97.5279C28.5917 97.7634 28.6247 97.9988 28.6553 98.2225C28.6929 98.5003 28.7306 98.7804 28.773 99.0582C28.8083 99.2937 28.846 99.5291 28.8836 99.7645C28.926 100.038 28.9707 100.313 29.0178 100.586C29.0602 100.822 29.1026 101.057 29.1473 101.292C29.1968 101.563 29.2486 101.834 29.3003 102.102C29.3521 102.371 29.3969 102.573 29.4463 102.809C29.5028 103.077 29.5593 103.343 29.6205 103.609C29.6817 103.875 29.7241 104.08 29.7806 104.299C29.8418 104.565 29.9078 104.829 29.9737 105.09C30.0396 105.351 30.089 105.549 30.1479 105.775C30.2185 106.039 30.2892 106.3 30.3621 106.561C30.4234 106.797 30.4869 107.013 30.5528 107.237C30.6282 107.498 30.7059 107.757 30.7883 108.016C30.8707 108.275 30.9248 108.461 30.9955 108.685C31.0661 108.909 31.1603 109.201 31.245 109.457C31.3298 109.714 31.391 109.898 31.4663 110.116C31.5558 110.373 31.6453 110.63 31.7371 110.886C31.8148 111.101 31.8901 111.317 31.9725 111.531L32.2644 112.301C32.3468 112.511 32.4269 112.723 32.4999 112.932C32.6035 113.189 32.7094 113.448 32.8153 113.704C32.9001 113.907 32.9825 114.112 33.0696 114.314C33.1803 114.578 33.305 114.837 33.411 115.098C33.4981 115.291 33.5829 115.487 33.67 115.68C33.7924 115.953 33.9219 116.221 34.0467 116.49L34.3009 117.031C34.4445 117.328 34.5929 117.62 34.7412 117.914C34.8165 118.062 34.8871 118.213 34.9648 118.361C35.4169 119.242 35.8877 120.111 36.3774 120.968C36.4457 121.078 36.5328 121.222 36.6176 121.365Z" fill="#6B7278"/>
<path d="M28.0577 89.7045C28.0577 55.0206 56.1753 26.903 90.8592 26.903C125.543 26.903 153.661 55.0206 153.661 89.7045C153.67 99.0498 151.589 108.279 147.57 116.716C143.551 125.153 137.697 132.585 130.435 138.467C129.147 139.516 127.817 140.511 126.447 141.455C112.283 150.446 94.3907 150.446 78.2377 149.007C76.6697 148.772 75.1064 148.475 73.5549 148.134C67.356 146.768 61.3548 144.661 55.8104 141.589C54.4402 140.745 53.1116 139.833 51.8245 138.853C50.5309 137.868 49.2893 136.817 48.1047 135.703C46.9841 134.663 45.9018 133.581 44.8581 132.459C34.0417 120.852 28.0368 105.57 28.0577 89.7045V89.7045Z" stroke="#272727" stroke-width="2.82518" stroke-miterlimit="10"/>
<path d="M61.6369 114.166L45.2415 97.7704" stroke="#272727" stroke-width="3.76691" stroke-miterlimit="10" stroke-linecap="round"/>
<path d="M45.2415 114.166L61.6369 97.7704" stroke="#272727" stroke-width="3.76691" stroke-miterlimit="10" stroke-linecap="round"/>
<path d="M137.001 114.166L120.603 97.7704" stroke="#272727" stroke-width="3.76691" stroke-miterlimit="10" stroke-linecap="round"/>
<path d="M120.603 114.166L137.001 97.7704" stroke="#272727" stroke-width="3.76691" stroke-miterlimit="10" stroke-linecap="round"/>
<path d="M77.4722 118.394C77.4722 113.944 104.245 114.613 104.245 118.394C104.245 121.944 102.835 125.349 100.325 127.86C97.8142 130.37 94.4092 131.781 90.8588 131.781C87.3085 131.781 83.9035 130.37 81.393 127.86C78.8825 125.349 77.4722 121.944 77.4722 118.394Z" fill="#272727"/>
<path d="M89.6813 123.371C85.6907 123.136 82.2111 124.96 81.0527 127.661C82.9788 129.696 85.4947 131.075 88.246 131.604C90.9973 132.133 93.8453 131.786 96.3888 130.611C96.9178 130.367 97.4298 130.088 97.9214 129.775C97.7048 126.453 94.1687 123.649 89.6813 123.371Z" fill="#F2C2CA"/>
<path d="M77.4722 118.394C77.4722 113.944 104.245 114.613 104.245 118.394C104.245 121.944 102.835 125.349 100.325 127.86C97.8142 130.37 94.4092 131.781 90.8588 131.781C87.3085 131.781 83.9035 130.37 81.393 127.86C78.8825 125.349 77.4722 121.944 77.4722 118.394V118.394Z" stroke="#272727" stroke-width="1.41259" stroke-miterlimit="10"/>
<path d="M85.7073 120.89C85.8132 120.864 85.8556 120.852 85.9239 120.84L86.1005 120.807C86.2158 120.786 86.3359 120.774 86.4442 120.765C86.6702 120.742 86.8975 120.734 87.1246 120.741C87.5849 120.751 88.0424 120.816 88.4877 120.932C89.4204 121.168 90.266 121.667 90.9245 122.368C91.5439 123.035 91.959 123.865 92.1204 124.76C92.2676 125.586 92.1558 126.437 91.8003 127.197C91.3129 126.507 90.9386 125.888 90.5478 125.37C90.3718 125.122 90.1791 124.886 89.971 124.664C89.7808 124.469 89.5673 124.298 89.3353 124.155C88.8957 123.892 88.4056 123.724 87.8968 123.663C87.6297 123.629 87.3609 123.61 87.0916 123.607C86.9527 123.607 86.8138 123.607 86.6773 123.618L86.4771 123.633H86.3853C86.3618 123.633 86.3147 123.633 86.3312 123.633L85.7073 120.89Z" fill="#272727"/>
<path d="M140.299 129.177C139.56 130.091 138.798 130.983 138.013 131.854C137.425 132.506 138.621 131.59 140.299 129.177ZM143.831 54.6511C136.65 41.8412 124.172 33.0219 109.745 28.9631L108.25 28.5605C102.906 27.082 97.2742 26.9125 91.459 26.9125C85.1753 26.9125 79.1083 27.5576 73.3849 29.2668L72.382 29.5658C64.7639 32.1515 57.677 36.095 51.4638 41.2056C50.7779 41.7675 50.1054 42.3419 49.4462 42.9289C42.774 48.5063 37.5945 55.5693 34.0324 63.6234C33.6871 64.3956 33.3607 65.1749 33.053 65.9612C32.1342 68.3042 31.3936 70.7133 30.8376 73.1678C23.2897 102.969 35.0354 121.252 45.4603 132.459C46.4891 133.566 31.8217 108.48 41.3591 81.6057C43.179 81.5374 46.1242 81.4856 49.8794 81.448L53.5286 69.5327L57.6345 81.3938C64.0853 81.3632 71.7322 81.3585 79.7369 81.3656L82.6374 69.0383L85.9146 81.3703C103.424 81.4032 121.568 81.4927 131.89 81.5516L134.997 69.2691L138.529 81.5892L140.462 81.601C152.255 106.656 144.655 122.931 140.299 129.177C149.35 118.015 154.281 104.075 154.261 89.7046C154.261 69.3585 143.831 54.6511 143.831 54.6511V54.6511Z" stroke="#272727" stroke-width="2.82518" stroke-miterlimit="10"/>
<path d="M40.1184 80.9581C40.1608 80.7816 40.1961 80.6474 40.2432 80.5014C40.2903 80.3554 40.3374 80.2189 40.3892 80.0823C40.4975 79.8069 40.6246 79.5385 40.7447 79.2771C41.0074 78.7507 41.3104 78.2454 41.6511 77.7657C41.9876 77.277 42.3725 76.8234 42.8 76.4119C43.2659 75.9704 43.8311 75.6474 44.448 75.4702C44.4554 76.0791 44.3866 76.6865 44.2432 77.2783C44.1773 77.5467 44.1043 77.8081 44.0242 78.06L43.7888 78.8251C43.6318 79.3321 43.4749 79.8336 43.3179 80.3295C43.2402 80.5791 43.1578 80.8216 43.0825 81.0664C43.0425 81.1865 42.9954 81.3019 42.9507 81.4266C42.9059 81.5514 42.8588 81.6621 42.8188 81.7562L40.1184 80.9581Z" fill="#272727"/>
<path d="M140.459 80.1884C140.948 80.1495 141.438 80.1542 141.926 80.2025C142.419 80.2445 142.909 80.3121 143.395 80.405C143.631 80.4521 143.885 80.4991 144.13 80.5557C144.378 80.6078 144.622 80.6754 144.862 80.7581C145.402 80.9404 145.901 81.2267 146.331 81.601C145.9 81.975 145.402 82.262 144.862 82.4462C144.622 82.5281 144.378 82.595 144.13 82.6463C143.894 82.7051 143.64 82.7522 143.395 82.7993C142.905 82.8904 142.416 82.9578 141.926 83.0018C141.438 83.0493 140.948 83.0532 140.459 83.0136V80.1884Z" fill="#272727"/>
<path d="M27.6687 82.0553C27.6899 81.8198 27.7111 81.6197 27.744 81.4125C27.777 81.2054 27.8123 81.0076 27.8523 80.8051C27.9347 80.4049 28.0289 80.0094 28.1419 79.628C28.3634 78.8457 28.6363 78.0789 28.9589 77.3325C29.2704 76.5811 29.6404 75.8554 30.0654 75.1618C30.5102 74.4421 31.084 73.8108 31.7582 73.2996C31.8055 74.1198 31.7676 74.9427 31.6451 75.7551C31.5863 76.1389 31.5251 76.5203 31.4497 76.8946C31.3744 77.2689 31.3132 77.6456 31.2543 78.02L30.8706 80.2542L30.6752 81.356C30.6469 81.5397 30.6092 81.7233 30.5763 81.9022C30.5433 82.0812 30.5057 82.2719 30.4727 82.4178L27.6687 82.0553Z" fill="#272727"/>
<path d="M152.855 88.7909L152.798 88.1411C152.779 87.9056 152.76 87.6867 152.746 87.4607L152.64 86.0858L152.426 83.3077C152.355 82.3777 152.259 81.4454 152.191 80.499C152.172 80.0281 152.153 79.5431 152.167 79.0534C152.172 78.5491 152.212 78.0457 152.285 77.5466C152.926 78.3193 153.448 79.1834 153.834 80.1105C154.027 80.56 154.198 81.0188 154.345 81.4854C154.503 81.9563 154.637 82.4271 154.771 82.898C155.035 83.8406 155.247 84.7971 155.404 85.7632C155.482 86.2459 155.553 86.7332 155.595 87.2252C155.62 87.4701 155.639 87.7173 155.651 87.9669C155.666 88.2188 155.67 88.4542 155.668 88.7391L152.855 88.7909Z" fill="#272727"/>
<path d="M109.975 91.9089C112.227 90.4503 114.556 89.1127 116.95 87.9019L116.396 88.1808C119.189 86.7618 122.159 85.7201 125.227 85.0831L124.607 85.2029C125.372 85.0565 126.141 84.934 126.903 84.7787L126.284 84.9007C128.607 84.4565 130.957 84.1701 133.319 84.0436C134.54 83.9797 135.668 82.824 135.537 81.5565C135.49 80.9368 135.205 80.3593 134.741 79.9457C134.277 79.5321 133.671 79.3147 133.05 79.3392C130.285 79.4997 127.536 79.8637 124.825 80.4284L125.443 80.3093C122.836 80.7023 120.283 81.4005 117.839 82.3895C115.412 83.3898 113.058 84.5604 110.796 85.8926C109.631 86.569 108.484 87.2788 107.344 88.0035C106.305 88.6646 105.969 90.2709 106.708 91.2741C107.065 91.7822 107.605 92.1323 108.215 92.2509C108.825 92.3695 109.457 92.2474 109.978 91.9103L109.975 91.9089Z" fill="#272727"/>
<path d="M48.627 83.3677L50.6773 84.4318L55.5618 86.9685L61.5024 90.051L66.6077 92.6991C67.4364 93.1316 68.2637 93.5659 69.0966 93.9927L69.1279 94.0156C69.5232 94.2223 69.9175 94.3233 70.4575 94.1315C70.9625 93.9533 71.4528 93.5698 71.8206 93.0654C72.1885 92.5611 72.4038 91.977 72.4191 91.4418C72.4147 90.9461 72.2781 90.4065 71.9025 90.2112L69.8523 89.1472L64.9663 86.6124L59.0179 83.5242L53.914 80.8741C53.0839 80.4436 52.2566 80.0092 51.4237 79.5824L51.3924 79.5596C50.9957 79.3548 50.6014 79.2537 50.0628 79.4437C49.8126 79.5318 49.5632 79.6714 49.3291 79.8544C49.095 80.0374 48.8807 80.2602 48.6984 80.5102C48.516 80.7602 48.3693 81.0323 48.2666 81.3112C48.1639 81.59 48.1072 81.8701 48.0998 82.1353C48.1057 82.6291 48.2408 83.1706 48.6178 83.3639L48.627 83.3677Z" fill="#272727"/>
</svg>
