<svg width="28" height="29" viewBox="0 0 28 29" fill="none" xmlns="http://www.w3.org/2000/svg">
<path d="M20 15.1782C20 14.351 19.3273 13.6782 18.5 13.6782H17.75V11.4282C17.75 9.36047 16.0677 7.67822 14 7.67822C11.9323 7.67822 10.25 9.36047 10.25 11.4282V13.6782H9.5C8.67275 13.6782 8 14.351 8 15.1782V21.1782C8 22.0055 8.67275 22.6782 9.5 22.6782H18.5C19.3273 22.6782 20 22.0055 20 21.1782V15.1782ZM11.75 11.4282C11.75 10.1877 12.7595 9.17822 14 9.17822C15.2405 9.17822 16.25 10.1877 16.25 11.4282V13.6782H11.75V11.4282Z" fill="#F8F9FA"/>
</svg>
