<svg width="26" height="20" viewBox="0 0 26 20" fill="none" xmlns="http://www.w3.org/2000/svg">
<path d="M3.9 8.55322C5.33406 8.55322 6.5 7.37607 6.5 5.92822C6.5 4.48037 5.33406 3.30322 3.9 3.30322C2.46594 3.30322 1.3 4.48037 1.3 5.92822C1.3 7.37607 2.46594 8.55322 3.9 8.55322ZM22.1 8.55322C23.5341 8.55322 24.7 7.37607 24.7 5.92822C24.7 4.48037 23.5341 3.30322 22.1 3.30322C20.6659 3.30322 19.5 4.48037 19.5 5.92822C19.5 7.37607 20.6659 8.55322 22.1 8.55322ZM23.4 9.86572H20.8C20.085 9.86572 19.4391 10.1569 18.9678 10.6286C20.605 11.5351 21.7669 13.1716 22.0187 15.1157H24.7C25.4191 15.1157 26 14.5292 26 13.8032V12.4907C26 11.0429 24.8341 9.86572 23.4 9.86572ZM13 9.86572C15.5147 9.86572 17.55 7.81084 17.55 5.27197C17.55 2.73311 15.5147 0.678223 13 0.678223C10.4853 0.678223 8.45 2.73311 8.45 5.27197C8.45 7.81084 10.4853 9.86572 13 9.86572ZM16.12 11.1782H15.7828C14.9378 11.5884 13.9994 11.8345 13 11.8345C12.0006 11.8345 11.0662 11.5884 10.2172 11.1782H9.88C7.29625 11.1782 5.2 13.2946 5.2 15.9032V17.0845C5.2 18.1714 6.07344 19.0532 7.15 19.0532H18.85C19.9266 19.0532 20.8 18.1714 20.8 17.0845V15.9032C20.8 13.2946 18.7037 11.1782 16.12 11.1782ZM7.03219 10.6286C6.56094 10.1569 5.915 9.86572 5.2 9.86572H2.6C1.16594 9.86572 0 11.0429 0 12.4907V13.8032C0 14.5292 0.580937 15.1157 1.3 15.1157H3.97719C4.23312 13.1716 5.395 11.5351 7.03219 10.6286Z" fill="#F8F9FA"/>
</svg>
