<svg width="22" height="22" viewBox="0 0 22 22" fill="none" xmlns="http://www.w3.org/2000/svg">
<path d="M6.59211 0.924875C8.29776 0.177582 10.1654 -0.124618 12.02 0.046621C13.8745 0.21786 15.6552 0.856928 17.1948 1.90388C15.9217 3.62865 14.3189 5.08405 12.4791 6.18584C10.9329 4.01658 8.92174 2.21927 6.59222 0.924875H6.59211ZM10.9662 6.9844C9.37043 4.80842 7.25544 3.06556 4.81362 1.91435C2.68069 3.36807 1.12462 5.52206 0.415494 8.00243C1.66579 8.30773 2.94826 8.46188 4.23536 8.46157C6.55976 8.46378 8.8567 7.95972 10.9662 6.9845V6.9844ZM21.9999 10.3327C21.8293 7.52031 20.5826 4.88115 18.518 2.96178C17.1285 4.82871 15.3883 6.40731 13.3945 7.60939C13.975 8.61399 14.4552 9.67318 14.8282 10.7717C17.1641 10.1399 19.6044 9.9905 22 10.3327H21.9999ZM15.2952 12.3986C15.6089 13.7322 15.767 15.0976 15.7663 16.4676C15.7652 18.068 15.5486 19.661 15.1222 21.2037C16.9934 20.4477 18.6212 19.1935 19.8286 17.5776C21.036 15.9616 21.7767 14.0458 21.97 12.0386C19.7444 11.6917 17.4707 11.8144 15.2953 12.3986H15.2952ZM13.2159 11.2928C12.8747 10.2928 12.4353 9.32892 11.9041 8.41535C9.51091 9.56267 6.88982 10.1568 4.23536 10.1537C2.83623 10.1541 1.44194 9.98945 0.0814768 9.66311C-0.140055 11.4713 0.091872 13.3062 0.756389 15.0026C1.42091 16.6991 2.49716 18.2038 3.88832 19.3815C5.93764 15.6644 9.24407 12.7971 13.2159 11.2928ZM5.27118 20.3839C7.63276 21.8275 10.4523 22.3287 13.1673 21.7874C13.7656 20.0774 14.0715 18.279 14.0724 16.4675C14.0724 15.2767 13.9399 14.0896 13.6772 12.9281C10.0737 14.3303 7.09173 16.9752 5.27118 20.3839Z" fill="#272727"/>
</svg>
