<svg width="14" height="21" viewBox="0 0 14 21" fill="none" xmlns="http://www.w3.org/2000/svg">
<path d="M0.92797 19.6979L0.92799 19.6979L0.926245 19.6958C-0.922307 17.4575 0.753923 14.3379 3.41657 14.3379H6.67505V17.5965C6.67505 19.2039 5.68124 20.2805 4.46253 20.6817C3.23947 21.0843 1.80513 20.8021 0.92797 19.6979ZM0.981012 1.21236C1.51587 0.611094 2.32424 0.189499 3.41948 0.144295H6.67505V6.66143H3.41941C1.26479 6.57587 0.18366 4.9946 0.178221 3.40567C0.175495 2.60929 0.443901 1.81616 0.981012 1.21236ZM6.67505 7.2411V13.7582H3.41936C1.26476 13.6727 0.183661 12.0914 0.178237 10.5025C0.175518 9.7061 0.44393 8.91296 0.981046 8.30917C1.5159 7.7079 2.32428 7.28631 3.41952 7.2411H6.67505ZM7.25473 6.66143V0.144295H10.5111C11.5961 0.17838 12.4031 0.590329 12.9406 1.18457C13.4803 1.7812 13.7553 2.56947 13.7587 3.3643C13.7655 4.94901 12.6954 6.54265 10.5095 6.66143H7.25473ZM8.87665 7.67381C11.0488 6.42151 13.7788 7.99592 13.7788 10.4997C13.7788 13.0034 11.0489 14.5779 8.87665 13.3256C6.70487 12.0735 6.70491 8.92587 8.87665 7.67381Z" fill="#272727" stroke="#F8F9FA" stroke-width="0.288589"/>
</svg>
