<svg width="22" height="22" viewBox="0 0 22 22" fill="none" xmlns="http://www.w3.org/2000/svg">
<path d="M8.00583 19.2499C8.00583 20.4865 8.02441 21.6493 8.02441 22H15.4181C15.4181 21.5017 15.4367 19.9143 15.4367 17.9394C15.4367 16.5551 14.9723 15.6692 14.4335 15.2077C17.7403 14.8386 21.2142 13.5835 21.2142 7.91713C21.2142 6.29289 20.6383 4.98243 19.6909 3.94882C19.8395 3.57968 20.3597 2.06619 19.5423 0.0358898C19.5423 0.0358898 18.2976 -0.370169 15.4553 1.54938C14.2663 1.21715 13.0031 1.05104 11.7398 1.05104C10.4766 1.05104 9.21335 1.21715 8.02441 1.54938C5.1821 -0.351712 3.93742 0.0358898 3.93742 0.0358898C3.12003 2.06619 3.64019 3.57968 3.78881 3.94882C2.84137 4.98243 2.26548 6.31135 2.26548 7.91713C2.26548 13.565 5.72083 14.8386 9.02758 15.2077C8.6003 15.5769 8.21018 16.2229 8.08014 17.1827C7.22559 17.5703 5.08921 18.1978 3.75165 15.9645C3.47299 15.5215 2.63702 14.4325 1.46666 14.451C0.221984 14.4694 0.965071 15.1524 1.48523 15.4292C2.11686 15.7799 2.84137 17.0904 3.00856 17.5149C3.3058 18.3455 4.27181 19.9328 8.00583 19.2499Z" fill="#272727"/>
</svg>
