<svg width="20" height="20" viewBox="0 0 20 20" fill="none" xmlns="http://www.w3.org/2000/svg">
<path fill-rule="evenodd" clip-rule="evenodd" d="M7.42932 6.93409H11.1437V8.7886C11.6798 7.7225 13.0513 6.76302 15.1124 6.76302C19.0636 6.76302 20 8.88654 20 12.7828V20H16.0014V13.6703C16.0014 11.4514 15.4652 10.1993 14.1037 10.1993C12.2147 10.1993 11.4292 11.5493 11.4292 13.6703V20H7.42932V6.93409ZM0.571678 19.8302H4.57155V6.76302H0.571678V19.8289V19.8302ZM5.14385 2.5011C5.1514 2.8416 5.09045 3.18016 4.96461 3.49693C4.83876 3.81369 4.65054 4.10227 4.411 4.34574C4.17146 4.5892 3.88541 4.78264 3.56966 4.9147C3.2539 5.04677 2.9148 5.1148 2.57224 5.1148C2.22968 5.1148 1.89058 5.04677 1.57482 4.9147C1.25907 4.78264 0.973022 4.5892 0.733479 4.34574C0.493936 4.10227 0.305718 3.81369 0.179871 3.49693C0.0540233 3.18016 -0.00691802 2.8416 0.000623463 2.5011C0.0154264 1.83274 0.292865 1.19673 0.773524 0.729247C1.25418 0.261769 1.89985 0 2.57224 0C3.24463 0 3.8903 0.261769 4.37095 0.729247C4.85161 1.19673 5.12905 1.83274 5.14385 2.5011Z" fill="#272727"/>
</svg>
