<svg width="24" height="20" viewBox="0 0 24 20" fill="none" xmlns="http://www.w3.org/2000/svg">
<path d="M21.0573 5.23705C21.0699 5.44 21.0699 5.65159 21.0699 5.85886C21.0699 12.198 16.3678 19.5 7.77518 19.5C5.12549 19.5 2.66926 18.7098 0.599976 17.3495C0.978504 17.3927 1.34021 17.41 1.72715 17.41C3.9142 17.41 5.9246 16.65 7.52704 15.3632C5.47457 15.32 3.75017 13.9382 3.16135 12.0382C3.88055 12.1461 4.52825 12.1461 5.26849 11.9518C4.21166 11.7314 3.26176 11.1421 2.58017 10.2841C1.89857 9.42604 1.52731 8.35221 1.52947 7.245V7.18455C2.14773 7.54296 2.87535 7.76318 3.63661 7.79341C2.99666 7.35552 2.47183 6.76227 2.10867 6.06627C1.7455 5.37026 1.55523 4.593 1.55471 3.80341C1.55471 2.90955 1.78182 2.09341 2.18979 1.38523C3.36282 2.86782 4.82658 4.08039 6.48594 4.94412C8.14529 5.80786 9.96311 6.30344 11.8212 6.39864C11.1609 3.13841 13.533 0.5 16.3846 0.5C17.7305 0.5 18.9418 1.07864 19.7955 2.01136C20.8512 1.80841 21.8606 1.4025 22.7607 0.858409C22.4116 1.96818 21.6798 2.90523 20.7082 3.49682C21.6503 3.39318 22.5588 3.12545 23.4 2.74977C22.7649 3.70841 21.97 4.55909 21.0573 5.23705Z" fill="#272727"/>
</svg>
