<svg width="20" height="20" viewBox="0 0 20 20" fill="none" xmlns="http://www.w3.org/2000/svg">
<path d="M12.7578 7.24136C15.0917 9.57765 15.0596 13.3233 12.7719 15.6238C12.7676 15.6285 12.7625 15.6335 12.7578 15.6382L10.1328 18.2632C7.81758 20.5785 4.05082 20.5782 1.73594 18.2632C-0.579297 15.9484 -0.579297 12.1812 1.73594 9.86636L3.18539 8.41691C3.56977 8.03254 4.23172 8.288 4.25156 8.83121C4.27688 9.52347 4.40102 10.219 4.63008 10.8906C4.70766 11.118 4.65223 11.3696 4.48231 11.5395L3.97109 12.0507C2.87633 13.1455 2.84199 14.9281 3.92598 16.0335C5.02066 17.1499 6.81996 17.1566 7.92305 16.0535L10.548 13.4289C11.6493 12.3277 11.6446 10.5477 10.548 9.45113C10.4035 9.30683 10.2579 9.19472 10.1441 9.1164C10.0636 9.06114 9.99719 8.98784 9.95007 8.90235C9.90296 8.81685 9.87647 8.72153 9.87274 8.62398C9.85727 8.21121 10.0035 7.78586 10.3297 7.45968L11.1521 6.63722C11.3678 6.42156 11.7061 6.39508 11.9562 6.56961C12.2426 6.76959 12.5108 6.99437 12.7578 7.24136ZM18.2631 1.73582C15.9482 -0.579101 12.1814 -0.579414 9.86621 1.73582L7.24121 4.36082C7.23652 4.36551 7.23145 4.37058 7.22715 4.37527C4.93941 6.67574 4.90734 10.4214 7.24121 12.7577C7.4882 13.0047 7.75643 13.2294 8.04281 13.4294C8.29289 13.6039 8.63125 13.5774 8.84688 13.3618L9.6693 12.5393C9.99547 12.2132 10.1417 11.7878 10.1263 11.375C10.1225 11.2775 10.096 11.1822 10.0489 11.0967C10.0018 11.0112 9.93536 10.9379 9.85488 10.8826C9.74113 10.8043 9.59551 10.6922 9.45094 10.5479C8.35434 9.45128 8.34973 7.67136 9.45094 6.57015L12.0759 3.94555C13.179 2.84246 14.9783 2.8491 16.073 3.96547C17.157 5.07094 17.1227 6.85351 16.0279 7.94828L15.5167 8.45949C15.3468 8.62941 15.2913 8.88097 15.3689 9.10839C15.598 9.78004 15.7221 10.4755 15.7474 11.1678C15.7673 11.711 16.4292 11.9665 16.8136 11.5821L18.263 10.1327C20.5783 7.81785 20.5783 4.05066 18.2631 1.73582Z" fill="black"/>
</svg>
