<svg width="20" height="20" viewBox="0 0 20 20" fill="none" xmlns="http://www.w3.org/2000/svg">
<path d="M10 0C8.02219 0 6.08879 0.586489 4.4443 1.6853C2.79981 2.78412 1.51808 4.3459 0.761209 6.17316C0.00433281 8.00042 -0.1937 10.0111 0.192152 11.9509C0.578004 13.8907 1.53041 15.6725 2.92894 17.0711C4.32746 18.4696 6.10929 19.422 8.0491 19.8078C9.98891 20.1937 11.9996 19.9957 13.8268 19.2388C15.6541 18.4819 17.2159 17.2002 18.3147 15.5557C19.4135 13.9112 20 11.9778 20 9.99999C20 7.34783 18.9464 4.80429 17.0711 2.92893C15.1957 1.05357 12.6522 0 10 0V0ZM17.6375 14.1937H15.375C14.9472 15.533 14.3147 16.798 13.5 17.9437C12.8988 18.2058 12.2697 18.3987 11.625 18.5187C12.7797 17.2641 13.6684 15.7886 14.2375 14.1812H10.5375V18.65H9.48125V14.1937H5.7625C6.33088 15.8033 7.21961 17.281 8.375 18.5375C7.74353 18.4187 7.12724 18.2301 6.5375 17.975C5.71989 16.8196 5.0873 15.5439 4.6625 14.1937H2.3625C2.16284 13.8295 1.98948 13.4515 1.84375 13.0625H4.34375C4.1095 12.0583 3.98791 11.0311 3.98125 9.99999C3.9816 9.0442 4.08215 8.09107 4.28125 7.15625H1.725C1.85644 6.76842 2.01517 6.3904 2.2 6.025H4.58125C5.02806 4.5369 5.72098 3.13416 6.63125 1.875C7.20848 1.63582 7.8099 1.4598 8.425 1.35C7.18167 2.6844 6.24333 4.27318 5.675 6.00625H9.48125V1.25H10.5375V6.025H14.3437C13.7764 4.29471 12.8403 2.70818 11.6 1.375C12.2141 1.47687 12.8155 1.6445 13.3937 1.875C14.2987 3.12506 14.9894 4.51698 15.4375 5.99375H17.7937C17.9786 6.35916 18.1373 6.73718 18.2687 7.125H15.7312C15.9346 8.06981 16.0373 9.03353 16.0375 9.99999C16.0343 11.0372 15.9148 12.0707 15.6812 13.0812H18.1812C18.0266 13.4645 17.8449 13.8363 17.6375 14.1937Z" fill="#272727"/>
</svg>
